<svg style="opacity: 0.5" width="1919" height="879" viewBox="0 0 1919 879" fill="none" xmlns="http://www.w3.org/2000/svg">
<path opacity="0.3" d="M48 -337H1961V815H48V-337Z" fill="url(#paint0_linear_487_803)"/>
<path style="mix-blend-mode:screen" opacity="0.27" d="M1365.22 407.859C1365.22 501.107 1439.95 576.689 1532.13 576.689C1624.3 576.689 1699.04 501.107 1699.04 407.859C1699.04 314.61 1624.3 239.028 1532.13 239.028C1439.95 239.028 1365.22 314.61 1365.22 407.859Z" fill="url(#paint1_radial_487_803)"/>
<path opacity="0.3" fill-rule="evenodd" clip-rule="evenodd" d="M5.6701 671.234V429.388C5.94009 429.442 6.18294 429.469 6.45293 429.523C7.99189 429.82 8.85589 430.955 10.3679 431.306C11.9068 431.657 13.5538 431.495 15.0387 431.819C18.6027 432.575 21.1136 433.926 23.6515 434.736C33.7763 437.978 47.2488 438.032 57.1845 440.733C60.3434 441.598 62.6654 443.137 65.7973 443.651C67.5792 443.948 69.7662 443.326 72.0071 443.489C73.7891 443.624 75.787 444.461 77.461 444.596C81.3219 444.92 85.4258 445.325 89.1247 445.542C96.9815 445.974 105.297 446.919 113.181 444.866C116.907 448.351 124.494 446.784 128.787 448.216C129.084 448.324 129.219 449.35 129.597 449.458C135.563 451.187 141.962 450.89 148.28 452.079C156.758 453.672 164.507 455.023 173.983 455.131C174.118 455.131 175.765 454.348 177.061 454.402C178.168 454.456 178.573 454.888 180.193 454.942C186.943 455.131 194.8 454.429 201.928 454.942C206.383 455.266 210.19 457.022 214.401 457.103C220.503 457.238 226.416 454.888 232.221 455.347C236.325 455.671 241.023 457.265 245.504 458.751C249.689 460.156 254.225 462.803 258.032 462.803C261.029 462.803 262.892 461.101 264.188 460.75C265.133 460.48 266.348 460.885 267.293 460.669C269.021 460.264 269.993 459.561 271.91 459.291C278.552 458.292 284.14 459.048 291.295 458.751C300.988 458.319 310.303 457.616 319.212 456.698C324.288 456.185 329.283 456.32 333.954 455.644C335.196 455.455 336.438 454.618 337.815 454.267C343.431 452.835 348.507 452.538 353.259 451.295C355.311 450.539 355.337 450.539 357.119 450.566C358.82 450.566 360.251 450.836 362.573 451.052C371.105 448.054 379.583 450.269 388.196 450.323C389.141 450.323 389.762 449.702 391.273 449.593C395.377 449.35 398.293 450.647 402.154 450.539C408.148 450.404 414.358 447.865 419.191 448.162C421.189 448.297 422.485 449.188 424.645 449.269C428.749 449.404 433.446 448.648 437.82 448.891C442.059 449.134 445.947 450.674 449.511 450.458C454.884 450.134 460.797 446.271 465.71 446.217C467.924 445.352 470.246 445.893 472.649 444.137C484.097 443.813 494.627 440.976 504.373 438.815C514.336 436.6 523.894 434.439 532.129 430.468C535.882 430.468 536.88 428.334 539.04 427.119C549.3 426.551 555.456 422.851 562.962 420.149C567.039 419.528 572.196 416.908 574.517 416.044C581.51 413.423 593.282 414.018 602.408 413.369C609.589 412.856 616.123 413.18 621.793 412.829C623.764 414.153 628.813 412.829 630.379 414.477C641.881 413.261 650.52 414.801 662.211 414.828C665.559 416.044 670.068 416.233 673.902 417.016C677.736 417.745 680.814 419.312 684.837 419.852C693.881 421.122 704.438 419.339 713.564 420.312C716.75 420.663 719.395 421.392 722.149 422.581C725.389 423.013 729.736 422.527 731.518 424.201C739.942 423.418 745.828 424.796 751.741 426.146C757.303 423.58 764.538 422.283 772.044 421.23C782.115 425.957 792.834 429.847 803.957 433.008C804.443 433.008 804.956 433.035 805.442 433.089C806.279 433.467 807.143 433.818 808.061 434.142C826.421 439.031 845.779 442.03 865.138 443.57C866.326 443.408 867.514 443.299 868.837 443.326C872.184 443.381 875.667 443.894 879.15 444.434C884.847 444.677 890.517 444.812 896.16 444.839C897.213 444.65 898.266 444.488 899.4 444.407C902.424 444.164 905.879 444.407 908.606 443.84C917.489 444.866 924.266 444.488 932.771 446.406C934.229 445.325 937.82 446.757 939.521 445.947C943.759 446.73 948.754 447.054 954.1 448.081C960.904 449.377 969.895 449.999 974.782 452.565C976.402 453.402 979.857 455.806 982.854 456.644C988.092 459.318 992.142 462.614 999.837 463.937C1001.29 465.045 1001.7 466.693 1004.53 467.044C1010.12 470.718 1017.01 473.176 1024.19 475.715C1031.21 478.173 1038.72 481.199 1047.33 482.468C1048.87 484.008 1050.7 483.792 1052.24 484.629C1055.97 485.115 1059.8 488.492 1063.83 489.221C1066.47 489.708 1069.68 488.897 1072.92 489.113C1076.3 489.329 1079.7 490.302 1082.83 490.572C1084.48 490.707 1085.61 490.14 1087.15 490.248C1090.85 490.464 1095.14 492.895 1099.65 493.516C1102.57 493.922 1104.97 493.219 1108.05 493.787C1109.18 494.003 1109.56 494.516 1110.26 494.597C1116.77 495.326 1123.55 494.435 1129.51 497.433C1131.32 497.487 1132.43 497.433 1133.73 497.568C1135.08 497.73 1135.1 497.73 1136.53 498.46C1139.94 499.81 1143.74 500.459 1147.77 502.025C1148.74 502.404 1149.55 503.133 1150.47 503.376C1153.87 504.295 1157.67 504.619 1161.45 505.456C1168.04 506.942 1174.98 508.292 1182.24 509.454C1187.62 510.318 1191.96 510.264 1196.82 511.588C1198.23 511.966 1198.88 512.56 1200.09 513.047C1200.77 513.317 1201.76 513.101 1202.41 513.371C1203.36 513.749 1204.46 515.181 1206.76 515.451C1209.62 515.775 1213.48 514.208 1216.88 513.56C1220.53 512.858 1224.31 512.074 1227.47 512.209C1231.92 512.398 1236.03 514.667 1240.67 515.1C1243.86 515.397 1247.02 514.451 1250.44 514.613C1255.92 514.857 1261.76 516.072 1266.89 516.531C1268.13 516.639 1268.51 516.342 1269.34 516.396C1270.34 516.45 1271.45 517.207 1271.56 517.207C1278.74 517.963 1284.81 517.666 1291.48 517.234C1292.43 517.18 1293.37 517.153 1294.32 517.153C1298.64 516.747 1302.88 516.369 1307.09 516.072C1307.66 515.991 1308.25 515.937 1308.87 515.937C1312.03 515.721 1315.19 515.559 1318.29 515.478C1318.59 515.343 1318.91 515.208 1319.18 515.019C1319.56 515.181 1319.97 515.316 1320.37 515.451C1326.53 515.37 1332.6 515.613 1338.6 516.45C1341.03 516.774 1343.4 517.369 1345.81 518.017C1345.97 518.017 1346.1 518.017 1346.26 518.017C1347.56 518.071 1349.21 517.612 1350.58 517.693C1352.29 517.774 1353.85 518.422 1355.26 518.368C1357.71 518.26 1359.71 517.342 1362.22 516.991C1366.59 516.369 1371.64 516.45 1376.67 516.396C1376.64 515.586 1376.61 514.776 1376.58 513.965C1381.55 512.858 1389.19 513.695 1394.94 512.534C1398.48 511.831 1402.53 509.751 1405.96 508.455C1406.72 508.184 1407.63 507.185 1408.52 506.888C1410.82 506.158 1411.79 506.239 1413.74 505.24C1418.24 502.89 1427.1 503.349 1433.36 502.323C1436.31 501.836 1438.49 500.702 1441.19 500.567C1443.76 500.432 1446.27 501.215 1449.1 500.999C1454.96 500.567 1460.23 497.46 1466.03 496.704C1478.07 500.864 1495.08 499 1505.8 504.754C1510.72 502.809 1515.6 500.81 1522.76 501.188C1524.16 499.108 1527.86 499.432 1530.56 498.703C1532.83 497.136 1535.02 496.11 1537.66 495.515C1545.3 493.814 1554.35 495.191 1561.91 493.138C1565.26 492.247 1567.77 490.248 1570.95 489.14C1574.14 487.979 1577.95 487.466 1580.7 485.845C1590.58 485.061 1597.79 482.711 1607.56 483.387C1608.78 481.361 1613.13 482.576 1614.72 480.928C1619.55 480.982 1625.03 480.172 1631.13 480.307C1638.88 480.469 1648.79 479.038 1654.87 481.631C1656.86 482.495 1661.4 485.223 1664.88 485.656C1671.36 488.303 1676.82 492.22 1685.51 492.22C1687.43 493.489 1688.37 495.894 1691.56 495.65C1698.77 499.729 1706.95 501.62 1715.53 503.565C1723.9 505.429 1732.95 508.049 1742.64 507.698C1744.77 509.589 1746.69 508.806 1748.63 509.67C1752.79 509.4 1758.03 513.506 1762.59 513.533C1765.62 513.533 1768.8 511.534 1772.37 510.967C1776.07 510.399 1780.06 510.967 1783.52 510.562C1785.35 510.318 1786.38 509.211 1788.05 508.914C1792.1 508.265 1797.5 510.805 1802.58 510.562C1805.85 510.426 1808.22 508.725 1811.73 508.752C1813.03 508.752 1813.59 509.454 1814.38 509.373C1821.64 508.752 1828.66 505.645 1836.06 508.563C1838 508.184 1839.19 507.779 1840.62 507.671C1842.13 507.563 1842.16 507.536 1843.94 508.292C1846.64 509.022 1849.42 509.292 1852.37 509.751C1864.46 507.266 1877.58 504.997 1889.22 501.782C1890.92 501.323 1891.76 500.621 1893.67 500.162C1901.64 498.19 1910.2 496.218 1918.95 494.192V749.571C1741.32 756.19 1563.69 762.808 1386.03 769.426C1385.58 757.081 1385.12 744.763 1384.66 732.418C1287.92 736.011 1191.18 739.631 1094.42 743.223C1093.28 712.834 1092.17 682.444 1091.04 652.082C1030.48 643.195 969.895 634.334 909.335 625.474C909.497 632.2 909.659 638.927 909.794 645.68C608.374 654.162 306.982 662.644 5.58892 671.126L5.6701 671.234Z" fill="url(#paint2_linear_487_803)"/>
<path opacity="0.5" fill-rule="evenodd" clip-rule="evenodd" d="M102 549.028L105.294 548.947L113.421 548.38L121.142 552.729L129.485 549.703L137.72 547.677L145.739 548.596L153.568 551.81L161.614 552.323L169.687 552.54H177.76L185.671 555.052L194.013 550.892L201.843 554.836L210.132 551.027L218.097 553.134L226.197 552.188L234.08 556.699L242.234 554.809L250.226 557.321L258.353 555.106L266.398 556.564L274.525 552.35L282.544 554.457L290.59 556.294L298.635 552.458L306.708 555.673L314.754 554.89L322.827 554.998L330.819 552.783L339 555.619L346.91 552.269L355.037 553.377L363.137 555.538L371.183 551.81L379.282 551.513L387.274 553.863L395.32 554.376L403.528 552.161L411.411 554.863L419.295 557.051L427.044 560.076L435.657 554.782L443.703 555.214L451.046 561.535L459.821 556.105L467.624 558.482L475.265 561.913L483.824 558.617L491.005 565.236L499.429 562.993L507.124 565.857L514.954 567.829L522.891 568.99L531.423 565.965L539.064 569.342L547.164 569.396L555.048 571.016L563.12 571.124L571.139 571.611L579.536 568.45L587.285 571.827L595.303 572.394L603.322 572.988L611.395 572.718L619.495 570.989L627.379 576.203L635.478 576.554L643.524 570.233L651.597 572.988L659.589 571.827L667.878 575.879L675.653 571.611L683.51 571.016L691.88 573.556L699.035 568.369L706.838 567.343L714.559 565.911L721.984 563.264L730.165 563.642L737.644 561.211L746.31 563.318L753.573 559.995L761.376 558.779L768.477 554.592L776.496 554.16L784.379 553.08L792.479 553.323L800.309 552.107L808.652 555.916L816.32 553.35L824.203 553.647L832.222 551.243L840.241 551.702L848.287 551.162L856.278 551.756L864.189 554.647L872.289 552.837L880.173 556.645L888.246 555.889L896.291 552.269L904.337 555.187L912.194 551.486L920.375 553.998L928.231 552.08L935.845 549.325L943.54 547.596L951.235 546.029L960.604 550.324L967.38 545.273L975.831 545.435L983.31 542.842L991.572 542.734L998.808 539.087L1006.85 538.439L1014.04 533.063L1022.3 533.225L1030.69 535.17L1038.66 533.793L1046.52 530.794L1054.72 531.956L1062.88 532.874L1070.87 530.659L1079.05 533.252L1087.18 534.522L1092.55 530.74C1095.71 498.109 1098.6 465.126 1101.84 432.17C1102.08 429.658 1102.73 427.065 1102.43 424.472C1101.35 423.688 1099.46 423.85 1098 423.58C1096.52 423.31 1095.2 422.527 1094.17 422.986C1094.14 424.228 1093.04 424.418 1092.98 425.66C1093.52 426.416 1094.2 427.011 1094.17 428.334C1093.36 432.656 1091.74 436.141 1091.23 440.76C1090.17 442.219 1089.85 444.488 1089.17 446.379C1088.53 448.135 1088.01 450.242 1085.93 450.512C1083.69 449.593 1084.15 446.838 1083.88 444.596C1083.75 443.543 1083.37 442.408 1083.29 441.355C1083.21 440.031 1083.45 438.734 1083.29 437.519C1083.02 435.385 1082.13 433.359 1082.1 431.306C1082.05 426.822 1083.86 422.662 1085.04 419.474C1085.58 418.853 1084.31 418.232 1083.56 417.988C1083.29 417.097 1082.13 417.07 1082.07 415.908C1082.8 414.18 1085.1 414.018 1086.5 412.937C1085.85 411.748 1086.83 410.425 1086.8 409.101C1086.8 407.967 1086.34 406.967 1086.2 405.86C1085.8 402.753 1086.04 399.512 1086.2 395.811C1086.47 389.463 1086.31 382.98 1087.1 376.875C1087.45 373.984 1088.01 371.04 1088.58 368.312C1089.09 365.773 1089.5 362.882 1091.23 361.207C1093.14 361.478 1093.22 363.477 1093.58 365.043C1094.36 368.447 1094.47 372.094 1094.76 375.983C1094.84 376.956 1094.66 378.036 1094.76 378.955C1094.87 379.819 1095.28 380.495 1095.36 381.332C1095.6 384.411 1095.41 387.896 1095.65 391.084C1095.76 392.704 1095.84 394.298 1095.95 395.811C1096.14 398.377 1096.57 400.241 1095.95 402.321C1095.55 403.753 1094.33 404.779 1093.6 405.86C1092.71 407.183 1091.93 408.345 1091.55 409.696C1091.15 409.993 1090.66 410.182 1090.36 410.587C1089.96 411.262 1091.12 411.694 1090.36 411.775C1093.36 412.127 1096.49 411.613 1099.51 411.775C1102.92 411.965 1106.53 412.505 1109.83 412.964C1118.12 414.072 1126.24 415.449 1134.32 417.097C1134.91 417.205 1135.67 417.421 1136.67 417.691C1137.15 417.799 1138.42 417.61 1138.45 418.583C1139.66 418.34 1139.96 419.042 1141.09 418.88C1140.66 421.743 1138.39 422.473 1135.21 421.851C1132.72 423.283 1129.3 423.823 1127.24 425.687C1125.27 425.498 1123.95 424.985 1122.52 425.687C1117.42 425.363 1111.45 424.39 1106.29 425.093C1104.83 460.561 1103.13 495.786 1101.35 530.929L1103.27 531.524L1111.15 527.499L1119.31 528.768L1127.73 532.685L1135.75 530.362L1143.93 529.849L1150.65 524.527C1153.32 491.031 1156.13 457.697 1158.78 424.201C1157.32 423.499 1154.94 423.688 1153.46 423.013C1151.68 427.227 1153.16 434.736 1149.33 436.924C1147.49 437.573 1147.14 435.196 1146.39 435.736C1145.66 437.276 1145.31 439.356 1144.33 440.76C1142.55 443.272 1142.07 448.459 1138.45 449.621C1136.34 448.378 1136.91 445.569 1136.96 443.408C1137.12 438.626 1137.83 434.25 1139.01 430.09C1139.93 426.903 1140.66 424.715 1141.96 422.094C1142.42 421.176 1142.88 420.447 1142.85 419.717C1142.79 417.961 1139.93 417.475 1139.61 415.881C1140.45 414.342 1142.69 414.234 1143.74 412.91C1143.85 410.533 1144.44 407.967 1143.44 406.103C1143.15 392.029 1143.58 378.442 1146.09 367.069C1146.41 365.611 1146.44 363.828 1147.87 362.936C1150.19 364.125 1150.22 367.853 1150.52 371.229C1151.25 379.063 1151.57 388.004 1152.3 396.675C1152.49 398.998 1152.78 400.889 1152.3 402.591C1151.52 405.427 1148.87 407.345 1148.46 409.696C1148.14 410.344 1146.68 410.776 1147.57 411.775C1147.57 412.532 1147.79 412.127 1148.17 412.073H1149.65C1152.35 412.181 1155 411.857 1157.62 412.073C1168.71 412.964 1178.97 415.53 1189.18 417.394C1189.21 418.232 1191.2 417.151 1191.23 417.988C1191.74 418.259 1191.99 418.826 1193.01 418.583C1194.01 415.449 1191.12 415.881 1190.66 413.558C1191.45 412.154 1193.47 412.019 1194.5 410.911C1194.26 409.641 1194.82 408.588 1194.8 407.372C1194.77 406.157 1194.31 405.292 1194.2 404.131C1193.88 400.457 1194.07 396.513 1194.2 392.596C1194.34 388.652 1194.2 384.817 1194.5 381.062C1194.77 377.415 1195.17 373.822 1195.69 370.419C1195.93 368.69 1195.96 366.772 1196.28 365.097C1196.55 363.666 1196.79 361.802 1198.06 360.964C1199.52 361.505 1199.84 363.26 1200.11 364.8C1200.68 367.853 1200.74 371.445 1201.01 375.146C1201.09 376.118 1200.87 377.145 1201.01 378.09C1201.09 378.766 1201.55 379.441 1201.6 380.17C1201.87 383.223 1201.9 386.789 1202.19 390.219C1202.57 394.784 1203.44 399.323 1201.9 402.051C1201.71 402.375 1201.52 402.672 1201.3 402.942C1200.55 403.888 1199.79 406.049 1198.95 407.075C1199.2 408.507 1197.52 408.021 1198.06 409.75C1198.01 410.56 1199.17 410.074 1199.55 410.047C1208.21 409.182 1216.8 411.127 1224.93 412.721C1228.03 413.315 1231.16 413.882 1234.08 414.504C1237.13 415.179 1239.94 415.881 1242.64 416.881C1242.26 419.366 1240.13 420.285 1237.32 419.528C1236.62 420.501 1235.4 420.258 1234.38 420.717C1232.78 421.392 1231.6 422.527 1230.25 423.391C1228.73 422.959 1227.41 422.608 1226.11 423.391C1222.12 422.743 1216.31 422.392 1212.56 422.5C1211.48 453.456 1210.75 483.954 1210.05 514.532L1215.31 516.234L1223.06 512.858L1231.3 513.803L1239.48 513.398L1247.93 512.29L1253.68 512.75C1255.22 486.115 1256.76 459.48 1258.27 432.819C1257.81 431.441 1256.3 431.036 1255.33 430.144C1252.03 427.2 1249.28 422.743 1247.07 418.313C1246.44 420.122 1247.47 422.824 1247.96 424.526C1246.09 429.469 1242.72 432.873 1240.59 437.546C1237.86 439.815 1236.51 444.029 1233.51 446.406C1233.03 446.784 1231.92 447.838 1230.87 447.297C1229.46 446.028 1230.6 444.083 1230.87 442.867C1232.08 437.303 1234.43 432.251 1237.05 427.497C1238.05 425.714 1238.94 424.255 1239.99 422.473C1240.59 421.446 1241.18 420.204 1242.04 419.231C1242.53 418.664 1242.96 418.988 1243.23 417.745C1243.34 417.232 1243.61 416.476 1243.53 416.26C1243.31 415.638 1241.5 414.882 1241.48 413.585C1242.45 412.37 1244.12 411.911 1245.31 410.938C1244.91 409.668 1245.39 408.453 1245.31 407.102C1245.23 405.914 1244.82 404.779 1244.72 403.564C1244.42 399.998 1244.72 395.946 1244.72 392.029C1244.72 382.737 1245.45 373.471 1246.77 365.421C1247.04 363.855 1246.77 362.099 1247.96 360.991C1250.52 362.072 1250.01 366.097 1250.31 369.581C1250.58 372.796 1250.87 376.227 1251.2 379.63C1251.49 382.845 1251.79 386.383 1252.09 389.679C1252.3 392.11 1252.44 394.136 1252.68 397.08C1252.82 398.62 1253.06 399.106 1252.68 400.619C1252.33 401.997 1251.57 402.915 1250.9 404.158C1250.22 405.427 1249.77 406.724 1249.12 407.697C1249.5 408.642 1248.17 407.913 1248.52 408.885C1248.47 409.398 1249.04 409.641 1248.52 409.777C1251.06 410.209 1253.68 409.614 1256.19 409.777C1259.13 409.966 1262.1 410.506 1265.05 410.965C1270.72 411.83 1276.39 412.991 1281.87 414.207C1283.95 414.666 1285.78 415.071 1287.75 415.692C1288.37 415.881 1289.1 415.746 1289.24 416.584C1290.32 416.395 1290.8 416.773 1291.32 417.178C1290.62 418.042 1290.29 419.285 1288.97 419.555C1287.86 420.366 1286.4 419.123 1285.13 419.852C1284.32 420.636 1283.03 420.906 1281.89 421.338C1280.87 421.905 1280.46 423.04 1279.25 423.418C1277.76 423.013 1276.66 422.716 1275.42 423.418C1271.55 422.851 1266.02 422.392 1262.43 422.527C1262.43 424.201 1261.86 425.498 1262.13 427.551C1262.46 429.955 1264.83 432.224 1263.02 434.061C1262.78 434.304 1262.1 434.142 1262.13 434.953C1261.7 462.317 1261.38 490.059 1260.97 517.72L1262.48 519.179L1270.53 519.476L1277.2 523.852L1286 522.393L1293.61 524.068L1300.71 527.418L1308.57 526.823C1310.03 494.327 1311.59 461.992 1312.89 429.334C1312.38 428.145 1310.97 427.632 1309.95 426.66C1308.14 424.985 1306.63 422.797 1304.63 421.041C1303.68 420.203 1302.55 419.528 1301.39 418.961C1301.36 419.987 1301.09 420.852 1301.09 421.932C1301.09 423.094 1301.58 424.066 1301.39 425.201C1301.09 427.011 1298.85 429.523 1297.55 431.117C1297.26 431.468 1297.1 431.846 1296.66 432.305C1296.42 432.575 1296.45 432.981 1296.07 433.494C1295.88 433.737 1295.37 433.845 1295.18 434.088C1294.99 434.385 1295.07 434.709 1294.88 434.98C1292.69 437.897 1290.05 440.814 1287.51 443.57C1285.73 445.515 1284.08 448.108 1281.33 448C1279.98 445.974 1282.22 442.921 1283.11 440.895C1283.41 440.22 1283.41 439.437 1283.7 438.815C1284.3 437.6 1284.95 436.411 1285.76 434.98C1286.32 434.007 1287.29 432.386 1288.1 431.144C1288.29 430.874 1288.54 430.766 1288.7 430.549C1288.89 430.306 1288.81 429.928 1289 429.658C1289.35 429.172 1289.86 428.929 1290.18 428.469C1290.53 427.956 1290.72 427.173 1291.07 426.687C1291.45 426.146 1291.91 425.984 1292.26 425.498C1292.45 425.228 1292.37 424.85 1292.56 424.607C1292.8 424.282 1293.37 423.904 1293.75 423.418C1294.31 422.662 1295.15 421.176 1296.1 420.177C1296.66 419.582 1297.85 419.285 1298.15 418.096C1298.23 417.745 1298.47 417.07 1298.45 416.908C1298.34 416.287 1296.99 415.611 1296.96 414.531C1297.39 414.18 1297.61 413.288 1298.15 413.045C1298.28 412.991 1298.61 413.153 1298.74 413.045C1298.85 412.964 1298.96 412.505 1299.04 412.451C1299.28 412.343 1300.39 412.424 1300.23 411.559C1300.12 410.182 1300.01 408.804 1300.52 407.426C1300.12 406.022 1299.77 404.509 1299.63 402.996C1299.09 396.27 1299.63 388.571 1299.93 381.413C1300.15 376.254 1300.71 371.283 1301.42 366.34C1301.6 364.935 1301.33 363.098 1302.6 362.207C1304.28 362.585 1304.17 364.773 1304.39 366.043C1304.9 369.257 1304.95 372.607 1305.28 376.389C1305.41 378.009 1305.71 379.576 1305.87 381.116C1306.25 384.547 1306.06 388.031 1306.46 391.462C1306.84 394.838 1307.71 398.188 1307.36 401.511C1306.98 403.293 1305.63 404.104 1305.3 405.941C1304.79 406.508 1304.68 407.48 1304.41 408.318C1304.09 408.912 1303.01 409.533 1303.82 410.398C1303.76 411.235 1304.93 410.695 1305.3 410.695C1307.17 410.695 1310.35 410.56 1312.38 410.695C1317.97 411.1 1323.64 412.505 1328.9 413.639C1331.63 414.234 1334.35 414.774 1336.87 415.422C1337.49 415.584 1338 415.827 1338.65 416.017C1339.32 416.233 1340.16 416.125 1340.7 416.314C1341.24 416.503 1341.59 416.962 1342.18 417.205C1342.78 417.448 1343.37 417.421 1343.97 417.799C1343.62 419.015 1342.45 419.447 1341.91 420.474C1340.7 421.176 1339.59 419.771 1338.38 420.474C1336.3 421.446 1334.52 422.716 1332.76 424.012C1327.96 423.877 1322.83 423.418 1317.43 423.121C1316.35 423.229 1317.7 424.255 1317.72 424.309C1319.15 425.957 1321.18 427.605 1322.74 429.631C1322.96 429.928 1323.1 430.225 1323.34 430.522C1323.61 430.901 1323.8 431.252 1324.23 431.711C1324.55 432.035 1325.42 433.791 1324.82 434.655C1323.34 436.006 1321.72 434.79 1320.4 434.061C1319.77 433.71 1319.13 432.9 1318.61 432.575C1318.18 432.305 1317.02 431.792 1316.83 431.981C1316.37 464.072 1316.54 497.757 1316.56 531.172L1324.2 531.929L1331.95 531.172L1339.57 530.092L1347.23 530.929L1354.82 530.713L1362.51 528.552L1367.59 529.795C1368.75 494.543 1369.75 459.075 1371.1 423.985C1370.99 423.202 1370.32 422.986 1369.62 422.797C1368.54 421.311 1366.56 420.744 1365.48 419.258C1364.22 419.069 1363.22 418.583 1362.24 418.07C1360.62 418.313 1360.81 416.746 1359.3 416.881C1358.68 418.529 1358.3 420.42 1358.41 422.797C1357.09 425.498 1354.98 427.416 1353.09 429.604C1351.2 431.657 1349.61 433.98 1347.48 435.817C1345.83 438.086 1343.56 439.788 1341.59 441.733C1339.7 443.57 1337.86 446.217 1334.52 446.46C1333.36 445.596 1334.22 445.055 1334.52 444.083C1334.76 443.353 1335.06 442.381 1335.41 441.706C1335.97 440.652 1336.76 439.68 1337.46 438.437C1337.68 438.086 1337.51 438.113 1337.76 437.843C1338.11 437.465 1338.7 435.979 1339.24 435.169C1340.35 433.467 1342.05 431.414 1343.37 429.55C1345.42 427.065 1347.5 424.634 1349.56 422.148C1350.74 421.068 1351.61 419.663 1352.8 418.61C1353.93 417.61 1355.66 417.097 1356.03 415.368C1357.49 414.18 1355.52 413.477 1355.44 412.127C1356.14 410.857 1357.76 410.506 1358.68 409.452C1357.98 407.886 1359.17 406.319 1358.68 404.131C1358.55 403.564 1358.17 403.32 1358.09 402.645C1357.92 400.916 1357.87 398.917 1357.79 397.026C1357.71 395.19 1357.71 393.245 1357.79 391.408C1358.19 382.277 1358.46 372.526 1359.27 363.909C1359.41 362.315 1359.25 360.478 1360.17 359.181C1361.7 358.641 1361.7 361.342 1361.95 362.72C1362.68 367.231 1362.89 373.12 1363.43 378.09C1363.81 381.71 1363.92 385.249 1364.32 388.734C1364.73 392.218 1365.51 395.649 1365.21 399.079C1364 401.889 1362.19 405.373 1361.97 408.237C1364.3 408.426 1367.24 408.075 1369.64 408.237C1372.26 408.426 1375.07 408.966 1377.61 409.425C1382.52 410.317 1387.3 411.451 1392.05 412.667C1393.21 412.964 1394.54 413.207 1395.59 413.558C1395.8 413.639 1395.83 414.045 1396.18 414.153C1397.07 414.396 1398.18 414.018 1398.53 415.044C1399.45 414.909 1399.69 415.476 1400.31 415.638C1399.94 416.935 1399.15 417.826 1397.96 418.313C1397.51 418.799 1396.59 418.448 1396.18 418.015C1394.64 418.637 1393.21 419.393 1391.75 420.095C1391.16 420.771 1390.78 421.662 1389.7 421.878C1386.11 421.797 1382.79 421.581 1378.8 421.284C1382.74 424.039 1386.68 426.795 1389.7 430.441C1391.73 427.902 1394 425.687 1396.18 423.337C1398.45 420.906 1400.88 418.124 1403.55 415.935C1404.07 415.53 1404.88 414.558 1405.9 414.45C1406.33 414.018 1406.71 413.477 1407.09 412.964C1407.39 412.586 1407.6 411.748 1408.28 411.775C1408.93 411.019 1407.63 410.452 1407.68 409.398C1407.87 407.724 1409.87 407.859 1410.33 406.454C1410.01 405.157 1410.41 403.969 1410.33 402.618C1410.25 401.484 1409.84 400.295 1409.74 399.079C1409.44 395.595 1409.74 391.678 1409.74 387.842C1409.74 378.739 1409.93 369.906 1410.63 361.234C1410.76 359.668 1410.84 358.047 1411.52 356.804C1413.03 357.372 1413.11 359.371 1413.3 360.64C1413.54 362.342 1413.46 364.26 1413.6 365.962C1414.11 372.499 1414.76 379.36 1415.65 386.059C1415.87 387.761 1416.03 389.409 1416.24 391.084C1416.46 392.866 1416.73 394.676 1416.54 396.108C1416.3 397.729 1415.27 399.052 1414.76 400.538C1414.22 402.186 1413.92 403.78 1413.87 405.563C1423.91 404.698 1433.44 407.643 1441.6 409.993C1442.7 410.317 1444.05 410.479 1445.13 410.884C1446.05 411.208 1447.32 411.37 1447.78 412.37C1448.51 412.316 1449.21 412.316 1449.26 412.964C1448.94 415.53 1446.4 415.611 1444.24 415.638C1442.54 416.503 1441.46 417.988 1439.81 418.88C1437.65 418.718 1436.95 418.718 1434.79 418.88C1435.87 419.96 1437.33 420.42 1438.63 421.257C1440.41 422.392 1442.73 423.688 1444.51 425.093C1445.59 424.904 1445.97 424.012 1446.56 423.31C1448.75 421.77 1450.69 419.96 1452.45 417.988C1454.2 417.178 1455.2 415.611 1456.88 414.72C1459.01 414.396 1459.23 412.154 1461.01 411.478C1461.09 410.425 1460.47 410.047 1460.41 409.101C1461.01 407.94 1462.44 407.588 1463.06 406.454C1462.55 405.13 1463.2 403.753 1463.06 402.321C1463.01 401.754 1462.6 401.078 1462.47 400.538C1462.3 399.836 1462.22 399.106 1462.17 398.458C1461.55 391.84 1462.22 384.411 1462.47 377.172C1462.66 371.823 1462.74 366.745 1463.06 361.505C1463.17 359.884 1462.76 358.182 1463.65 356.777C1465.25 357.426 1464.98 359.587 1465.14 360.91C1465.57 364.422 1465.76 367.717 1466.03 371.256C1466.38 375.929 1466.76 381.251 1467.51 386.627C1468 390.192 1469.11 393.542 1468.7 396.378C1468.46 398.053 1467.33 399.566 1466.92 401.105C1466.73 401.862 1466.7 402.78 1466.62 403.483C1466.54 404.212 1466.46 404.752 1466.62 405.563C1474.13 404.698 1481.55 406.832 1487.87 408.507C1488.39 408.642 1489.06 408.642 1489.65 408.804C1490.63 409.101 1491.63 409.696 1492.6 409.993C1494.73 410.641 1497.05 410.722 1498.48 412.37C1499.43 412.127 1499.4 412.829 1499.97 412.964C1499.51 413.882 1499.16 414.909 1498.19 415.341C1497.19 416.071 1496.08 414.963 1495.24 415.638C1494.33 416.152 1493.65 416.8 1492.89 417.421C1492.19 417.961 1491.68 418.907 1490.55 418.907C1494.92 421.149 1499.43 423.202 1503.53 425.714C1504.61 426.822 1506.64 426.93 1506.77 428.956C1505.58 430.171 1504.13 429.253 1502.94 428.956C1502.34 428.821 1501.51 428.605 1500.89 428.361C1500.29 428.145 1499.91 427.659 1499.4 427.47C1498.16 427.011 1496.86 426.768 1495.57 426.281C1489.95 424.147 1483.42 421.446 1477.88 418.88C1478.85 448.621 1479.99 478.2 1481.1 507.806L1485.71 505.213L1492.14 500.432L1500.99 501.188L1506.99 496.11L1515.17 494.84L1520.97 489.789L1529.96 489.248L1537.79 487.006L1541.2 478.74L1549.7 477.444L1556.72 474.148L1563.09 469.853L1570.14 466.531L1578.78 466.423L1585.53 462.479L1593.55 461.668L1600.76 458.265L1608.67 457.13L1616.36 454.78L1624.33 453.672L1632.51 455.509L1640.45 453.483L1648.44 454.915L1656.59 453.267L1664.61 454.024L1672.09 457.967L1680.86 454.537L1687.67 460.669L1696.39 458.562L1702.92 464.667L1711.78 462.587L1719.53 464.37L1727.73 464.64L1735 467.854L1741.94 472.068L1749.28 475.121L1757.62 475.013L1765.59 476.066L1772.61 480.469L1780.65 481.334L1789.67 477.876L1796.93 482.765H1805.28L1812.89 486.493L1821.31 485.926L1829.63 485.818L1837.24 490.113L1845.72 488.816L1853.55 492.274L1861.89 491.734L1870.21 491.166L1878.77 488.033L1886.44 494.138L1894.89 491.625L1903.18 490.572L1911.14 494.408L1919.27 496.083L1927.64 493.678L1935.68 497.001L1944.11 492.463L1952.18 496.38L1960.39 496.488L1968.57 497.514L1976.88 493.003L1985.09 492.922L1993.27 494.003L2001.48 493.922L2009.71 492.139L2015.65 493.651V778.232L2013.09 777.557L2005.29 780.312L1997.73 784.175L1988.98 782.635L1981.36 786.147L1972.59 784.364L1965.17 788.821L1957.47 792.198L1948.94 791.468L1940.79 792.63L1932.36 792.279L1924.23 793.413L1916.05 794.251L1908.39 798.005L1900.34 799.248L1891.59 795.493L1883.49 796.439L1876.01 801.868L1867.32 798.302L1859.19 798.951L1851.09 799.842L1842.86 799.572L1834.89 801.463L1826.74 801.841L1819.02 805.812L1810.32 801.706L1802.49 804.894L1794.64 807.838L1786.54 808.702L1778.49 810.242L1770.15 808.892L1761.78 807.325L1753.71 808.405L1745.85 811.728L1737.59 811.107L1729.33 810.404L1721.28 811.917L1713.34 814.375L1704.97 812.484L1696.71 811.89L1688.45 811.134L1680.81 816.887L1672.66 817.347L1664.12 813.673L1655.97 814.078L1648.01 816.455L1640.09 819.4L1631.81 818.346L1623.38 815.834L1615.44 818.481L1607.67 823.019L1599.03 818.13L1591.01 819.913L1582.8 819.562L1575 823.803L1566.58 821.318L1558.56 823.235L1550.21 821.642L1542.3 824.775L1534.2 825.585L1526.29 828.611L1518.08 828.368L1509.66 825.883L1501.61 827.395L1493.76 831.069L1485.2 827.044L1477.21 829.232L1469.19 831.123L1460.79 828.962L1452.67 829.61L1444.67 831.555L1436.55 832.231L1428.42 832.96L1420.27 833.5L1412 832.771L1403.8 832.663L1395.94 835.958L1387.87 837.174L1379.9 839.227L1371.32 835.715L1363.46 838.714L1355.2 838.146L1346.75 835.877L1338.81 838.173L1330.87 840.389L1322.69 840.578L1314.59 841.361L1306.36 841.091H1298.15L1289.91 840.875L1282.22 844.9L1273.77 843.171L1266.07 847.034L1257.6 845.008L1249.6 846.547L1242.02 851.275L1233.76 850.789L1225.74 852.355L1217.72 853.787L1209.32 852.247L1201.11 852.031L1193.12 853.841L1184.99 854.462L1176.87 855.084L1168.93 857.461L1160.18 852.355L1152.16 854.003L1144.47 858.649L1136.07 856.623L1128.05 858.217L1120.2 861.54L1111.99 861.269L1103.86 861.999L1095.73 862.728L1087.39 860.864L1079.4 862.863L1071.11 861.54L1063.04 862.917L1055.07 865.375L1047 866.726L1038.79 866.267L1030.64 866.429L1022.24 863.647L1014.25 866.132L1006.15 867.293L998.079 868.833L989.547 863.16L981.798 869.616L973.32 864.457L965.302 866.807L957.04 865.294L949.102 869.211L940.948 869.373L932.632 866.618L924.722 871.507L916.325 866.645L908.279 868.779L900.152 869.616L891.945 868.644L883.764 868.158L875.88 874.344L867.483 868.455L859.491 872.669L851.419 875.046L843.022 868.887L834.895 869.968L826.768 870.859L818.75 875.343L810.434 869.914H802.28L794.126 870.211L785.999 870.778L777.9 873.182L769.827 876.883L761.565 871.778L753.519 876.37L745.365 876.586L737.212 876.532L729.058 877.342L720.823 872.885L712.723 876.181L704.543 874.317L696.416 876.37L688.235 872.777L680.081 871.696L671.954 873.912L663.801 872.669L655.674 876.829L647.52 874.884L639.366 874.992L631.213 878.126L623.059 875.073L614.905 877.18L606.751 876.802L598.598 871.886L590.444 872.912L582.29 871.588L574.109 876.208L565.955 876.532L557.828 872.102L549.675 871.291L541.494 873.398L533.286 877.909L525.159 875.64L517.06 871.264L508.879 874.398L500.725 875.64L492.598 873.236L484.472 871.318L476.237 876.073L468.137 873.128L459.929 876.559L451.829 873.02L443.73 870.481L435.468 876.343L427.368 873.02L419.187 874.344L411.033 874.479L402.907 873.182L394.699 875.289L386.545 875.694L378.472 872.426L370.4 869.698L362.111 874.452L353.984 873.722L345.803 874.209L337.677 873.155L329.496 874.371L321.45 870.886L313.377 868.266L305.115 871.588L297.043 868.86L288.862 869.373L280.627 871.859L272.554 869.13L264.32 871.669L256.193 870.94L248.039 871.264L239.912 870.427L231.839 867.807L223.524 872.318L215.505 868.509L207.378 867.347L199.116 870.427L190.99 869.589L182.917 867.347L174.655 870.103L166.717 864.187L158.374 869.238L150.302 866.51H142.148L133.994 866.321L125.921 864.646L117.794 868.914L109.695 867.023L-8.5 866.78V548.866L102 549.028ZM1427.83 519.125L1434.31 514.154L1442.11 510.156L1451.61 511.669L1459.55 506.483L1468.95 511.507L1472.86 510.67C1473.21 479.821 1473.54 448.972 1473.81 418.042C1472.32 417.016 1470.51 417.124 1468.78 416.557C1467.27 416.044 1465.89 415.044 1464.36 414.774C1464.19 414.342 1463.9 414.045 1463.47 413.882H1462.87C1462.93 414.72 1462.03 414.639 1461.68 415.071C1461.82 415.989 1461.25 416.233 1461.09 416.854C1460.55 417.772 1460.14 418.853 1459.9 420.095C1459.17 420.636 1458.77 421.257 1458.12 421.878C1456.82 423.148 1455.28 424.661 1453.69 426.011C1453.61 426.092 1453.48 426.578 1453.39 426.606C1452.26 427.119 1451.34 428.361 1450.15 429.28C1448.26 430.712 1446.19 432.981 1443.97 434.601C1443.3 435.115 1442.89 435.52 1442.19 436.087C1441.84 436.384 1441.41 436.357 1441 436.681C1440.76 436.897 1440.65 437.357 1440.41 437.573C1440.06 437.87 1439.62 437.843 1439.22 438.167C1438.54 438.707 1437.55 439.842 1436.57 440.544C1434.98 441.679 1432.44 443.597 1430.09 443.218C1429.42 441.625 1431.07 440.409 1431.88 439.383C1432.77 438.221 1433.63 436.924 1434.52 435.844C1436.38 433.602 1438.57 431.603 1440.14 429.334C1440.54 429.037 1441.89 428.172 1441.33 427.848C1436.41 425.876 1431.55 423.85 1427.18 421.338C1426.37 421.527 1425.8 419.987 1425.4 420.744C1426.18 453.591 1427.02 486.331 1427.8 519.179L1427.83 519.125ZM1375.58 528.93L1378.44 528.228L1385.17 533.333L1392.89 534.684L1400.18 532.847L1407.6 531.632L1416.03 531.199L1419.48 528.714C1420.21 491.842 1421.05 455.077 1421.91 418.313C1420.48 417.097 1418.4 417.097 1416.59 416.53C1414.54 415.881 1412.63 414.855 1410.98 413.855C1410.74 413.91 1410.68 414.153 1410.38 414.153C1409.47 415.8 1408.76 417.637 1408.6 420.068C1402.8 426.741 1396.29 433.008 1389.43 439.004C1388.33 439.977 1387.19 440.814 1385.9 441.679C1385.52 441.922 1385.38 442.381 1385.01 442.57C1384.22 442.975 1382.87 443.651 1381.77 443.164C1381.25 442.354 1381.71 441.544 1382.06 440.787C1382.36 440.139 1383.2 439.545 1383.55 439.004C1383.76 438.68 1383.93 438.14 1384.14 437.816C1384.6 437.141 1385.33 436.06 1385.92 435.142C1386.27 434.115 1387.41 433.872 1387.41 432.467C1383.84 431.414 1380.58 429.199 1377.39 427.443C1377.07 427.254 1376.8 427.335 1376.5 427.146C1376.07 426.876 1375.23 425.957 1374.45 426.254C1374.77 460.642 1375.23 494.651 1375.64 528.876L1375.58 528.93ZM1159.48 525.311L1168.01 525.959L1174.82 520.475L1184.1 523.744L1191.96 522.15L1198.71 516.153L1202.52 514.776C1204.25 489.383 1205.87 463.802 1207.76 438.437C1208.16 433.062 1208.73 427.578 1208.65 422.175C1208.56 421.095 1206.43 422.04 1206 421.284C1205.76 421.23 1205.73 421.392 1205.7 421.581C1205.95 423.067 1206.97 424.958 1207.19 426.606C1207.19 426.47 1206.89 426.768 1206.89 426.903C1206.89 428.875 1209 433.386 1205.7 434.601C1204.73 434.601 1203.71 434.007 1203.06 433.413C1202.87 433.251 1202.92 432.71 1202.76 432.521C1201.41 431.063 1199.14 429.307 1198.33 426.903C1196.87 428.388 1196.33 430.63 1195.39 432.521C1194.42 434.439 1193.26 436.195 1192.45 438.14C1189.72 441.111 1189.04 446.163 1184.78 447.595C1182.83 446.082 1183.86 442.948 1184.18 440.787C1184.45 439.004 1184.94 437.087 1185.37 435.466C1185.72 434.169 1185.78 433.251 1186.26 431.927C1186.32 431.765 1186.83 431.441 1186.86 431.333C1186.94 431.063 1186.75 430.711 1186.86 430.441C1186.91 430.279 1187.42 429.955 1187.45 429.847C1187.53 429.577 1187.34 429.226 1187.45 428.956C1187.51 428.821 1188.02 428.469 1188.05 428.361C1188.59 426.606 1189.34 424.877 1190.1 423.04C1190.26 422.635 1190.75 422.284 1190.39 421.851C1189.53 421.095 1188.59 421.851 1187.75 422.148C1185.59 422.878 1182.89 423.904 1181.27 425.39C1179.68 425.201 1178.16 424.607 1177.14 425.39C1172.52 424.877 1167.72 424.58 1162.69 424.499C1161.94 429.55 1161.91 434.682 1161.8 439.869C1161.48 455.023 1160.64 470.772 1160.02 486.304C1159.51 499.27 1159.1 512.209 1158.67 525.175L1159.51 525.284L1159.48 525.311Z" fill="url(#paint3_linear_487_803)"/>
<path opacity="0.3" fill-rule="evenodd" clip-rule="evenodd" d="M5.66992 575.149L13.5807 571.341L24.2723 576.716L34.8561 573.231L45.5477 574.933L56.2395 576.446L66.9042 576.824L77.4879 574.771L88.0715 572.664L98.7633 574.42L109.401 575.717L120.012 573.961L130.677 571.313L141.314 572.988L151.952 574.096L162.563 574.852L173.038 577.634L183.352 577.959L193.801 577.905L204.115 579.066L213.888 582.767L224.013 584.874H234.759L243.938 590.331L253.928 593.086L265.592 590.331L275.042 594.896L284.761 598.596L295.615 597.921L305.524 601.001L316.215 605.377L327.771 602.648L338.895 604.701L350.099 606.214L361.385 604.269L372.644 605.242L384.037 603.891L395.404 604.674L406.663 606.727L417.274 611.157L428.964 610.671L438.63 616.209L448.593 620.558L456.693 628.176L469.382 627.77L475.673 637.954L486.446 640.98L496.651 644.951L504.211 652.973L514.498 656.809L523.84 662.158L533.047 667.939L545.709 666.669L555.645 670.424L564.744 677.42L575.57 679.689L586.829 677.879L597.791 682.579L608.807 681.391L619.39 677.636L630.487 677.906L641.422 676.718L651.816 673.422L661.59 668.344L673.389 669.64L682.542 663.184L693.881 662.698L702.494 655.323L715.373 658.16L724.093 651.218L735.082 649.489L744.073 643.276L753.712 638.494L764.646 636.658L775.635 635.037L784.356 627.932L795.047 625.555L806.117 624.367L816.836 622.422L827.852 621.665L837.517 616.047L848.641 616.101L858.658 609.969L869.808 610.293L880.959 612.427L891.921 609.429L903.044 612.697L914.141 608.213L925.103 612.751L936.173 612.724L947.053 615.02L958.177 614.75L969.301 614.993L980.019 618.181L991.656 615.155L1002.1 620.099L1013.15 621.152L1023.54 624.124L1034.26 625.744L1044.82 620.855L1055.7 623.799L1065.61 618.1L1076.6 620.045L1087.04 618.424L1098.03 619.369L1107.64 613.778L1118.85 616.155L1128.95 612.967L1139.15 610.212L1149.3 606.673L1160.05 608.105L1170.5 606.592L1181.11 607.403L1191.53 605.593L1202.25 609.321L1212.67 606.673L1223.17 606.727L1233.73 603.189L1244.15 609.78L1254.74 607.079L1265.73 609.672L1276.71 605.404L1287.62 604.296L1298.88 610.077L1309.49 603.054L1320.53 603.702L1331.79 607.7L1342.48 602.351L1353.64 605.512L1364.62 606.484L1375.59 606.457L1386.71 601.595L1397.48 606.565L1408.77 604.08L1419.38 607.268L1430.1 611.157L1441.09 609.996L1451.99 606.187L1462.93 609.213L1473.86 610.32L1484.82 610.59L1495.46 606.7L1506.29 605.566L1517.36 607.7L1527.92 603.432L1538.82 603.351L1549.68 602.459L1560.77 605.728L1571.55 603.459L1582.43 602.054L1593.33 605.944L1604.3 601.757L1614.93 607.187L1625.76 607.322L1636.7 603.351L1647.06 605.863L1657.46 608.159L1668.18 605.485L1678.57 608.51L1688.99 611.293L1699.66 608.996L1710.16 610.185L1720.74 609.429L1731.27 609.699L1741.64 613.994L1752.36 610.347L1762.78 613.373L1773.2 616.128L1783.95 612.589L1794.67 615.452L1805.25 618.343L1816.11 618.937L1826.88 620.45L1837.81 620.882L1849.26 618.019L1860.06 619.099L1870.08 626.339L1881.5 622.395L1892.19 624.772L1902.91 627.959L1913.87 629.121L1919 626.474L1926.07 853.728L1919.35 851.891L1909.17 858.887L1898.21 858.374L1887.06 855.591L1876.64 860.994L1865.33 856.24L1854.5 857.347L1843.59 856.807L1832.76 857.996L1821.94 861.615L1811 860.724L1800.1 861.318L1789.21 857.401L1778.28 858.671L1767.48 855.889L1756.44 859.211L1745.45 860.13L1734.78 855.429L1723.8 856.213L1712.67 858.941L1702.14 853.349L1691.13 854.295L1680.57 850.135L1669.45 851.81L1658.4 852.647L1647.77 849.514L1636.88 848.487L1625.95 848.136L1614.8 849.514L1604.46 844.192L1593.74 842.247L1582.51 844.246L1571.6 843.571L1560.88 841.491L1550.46 837.169L1539.28 838.546L1528.46 837.169L1517.57 835.98L1507.1 831.955L1496.41 829.74L1485.47 828.984L1474.7 827.228L1463.95 825.364L1452.26 828.795L1442.33 822.204L1430.99 823.554L1420.03 822.744L1409.58 819.178L1399.37 814.37L1388.22 814.505L1376.91 815.504L1366.19 813.397L1355.93 808.913L1345.32 806.185L1334.52 804.537L1322.72 808.238L1312.08 805.699L1301.66 801.917L1291.13 798.729L1280.44 796.244L1269.26 796.947L1258.73 793.435L1247.23 796.676L1236.65 793.462L1225.85 791.571L1214.99 792.165L1204.57 789.059L1193.99 787.303L1183.22 787.087L1172.71 784.44L1162.02 783.602L1151.09 785.358L1140.83 779.847L1129.76 783.17L1119.39 778.659L1108.78 777.011L1097.68 781.009L1087.18 777.902L1076.38 778.281L1065.53 779.982L1054.94 777.605L1044.44 774.31L1033.72 773.553L1022.87 775.255L1012.09 776.147L1001.48 774.067L990.765 773.58L980.019 774.121L962.47 865.181L951.589 868.342L941.005 864.992L930.179 867.477L919.46 866.856L908.822 864.83L898.077 865.019L887.439 861.939L876.639 865.046L865.948 863.938L855.202 864.236L844.456 865.721L833.764 863.641L823.1 860.211L812.381 859.805L801.635 861.723L790.917 862.21L780.225 859.346L769.479 863.209L758.76 861.372L748.042 858.347L737.323 863.128L726.523 858.05L715.697 863.803L704.87 862.453L694.097 860.724L683.351 857.293L672.579 856.942L661.752 857.374L650.763 861.615L639.964 860.913L629.38 856.159L618.526 856.564L607.754 855.51L596.765 857.969L585.884 858.482L575.408 853.592L564.609 853.106L553.593 855.105L543.036 851.621L532.156 852.053L521.545 849.216L510.718 849L500.053 846.839L489.281 846.137L478.13 848.73L467.6 845.624L457.125 841.923L446.109 843.274L435.255 843.003L424.374 842.841L413.845 839.924L402.91 840.275L392.488 836.466L381.257 839.168L370.7 836.52L360.494 830.956L349.505 831.712L338.517 832.441L327.501 833.576L316.89 831.118L306.712 825.688L296.02 823.959L284.815 826.337L274.339 823.149L263.864 819.718L253.091 818.827L241.886 821.339L230.898 822.014L220.071 821.393L209.649 817.8L198.607 818.962L187.969 816.882L177.385 814.478L166.775 812.047L155.948 811.533L145.256 809.886L134.429 809.616L123.63 808.94L113.262 804.024L102.03 807.671L91.5546 803.646L80.4038 806.563L70.0361 801.512L58.8314 805.266L48.6527 800.971L38.1499 799.675L27.5663 798L17.1447 801.944L6.58777 800.89L5.66992 800.998V575.149Z" fill="url(#paint4_linear_487_803)"/>
<path opacity="0.53" fill-rule="evenodd" clip-rule="evenodd" d="M890.895 57.88C894.945 64.3361 898.914 66.281 902.963 71.2514C907.526 76.8701 907.472 83.3262 907.931 87.6482C909.443 87.8643 910.712 88.6207 911.387 89.8632C912.062 91.0788 912.008 92.5105 911.441 93.8611C914.789 96.6165 920.567 100.074 922.889 107.206C924.86 113.31 924.347 117.714 927.587 124.602C927.965 125.385 928.289 126.033 928.289 126.033C928.289 126.033 927.803 125.466 927.263 124.791C925.589 122.603 924.266 120.496 922.97 117.822C921.62 115.012 920.648 112.122 918.974 109.367C917.003 106.152 914.816 104.396 912.953 103.1C909.983 101.02 907.256 99.7499 904.449 98.2102C904.179 98.2102 903.908 98.1832 903.638 98.1292C903.584 98.2372 903.53 98.3183 903.476 98.3993C902.64 99.6419 902.667 101.587 902.478 103.208C902.073 104.126 900.615 102.992 900.021 102.586C897.078 99.777 895.296 96.5354 894.54 92.5375C894.54 91.8352 894.351 89.9713 895.35 90.1334C896.808 90.8357 898.428 91.9162 899.94 91.8892C900.048 91.8892 900.156 91.8892 900.264 91.8892C900.345 91.6731 900.453 91.457 900.588 91.2679C900.804 88.2155 901.182 85.2981 901.047 81.8404C900.966 79.5984 900.669 76.8161 899.022 73.3854C897.618 70.4951 895.701 68.1179 894.054 65.4436C892.488 62.9044 891.462 60.6353 890.517 58.0691C890.247 57.2317 890.031 56.5294 890.031 56.5294C890.031 56.5294 890.382 57.1507 890.841 57.9071L890.895 57.88Z" fill="black"/>
<path opacity="0.5" fill-rule="evenodd" clip-rule="evenodd" d="M5.6698 877.419V671.234C14.1206 670.856 23.2192 670.883 30.698 670.1C37.3398 669.397 42.3347 667.425 48.4365 667.398C54.2144 667.344 59.8032 668.938 66.175 668.749C79.3777 668.344 91.4193 662.968 104.595 661.969C131.27 670.478 169.663 668.236 193.234 679.608C204.438 676.34 215.562 672.963 231.654 674.179C234.948 670.424 243.236 671.261 249.392 670.1C254.603 667.344 259.598 665.588 265.646 664.67C282.952 662.023 303.121 665.21 320.292 661.969C327.906 660.537 333.684 656.998 340.974 655.189C348.237 653.244 356.822 652.541 363.14 649.759C385.414 648.976 401.803 645.113 423.699 647.058C426.588 643.384 436.281 645.95 439.953 642.979C450.78 643.411 463.172 642.303 476.888 642.979C494.276 643.816 516.631 641.844 530.077 647.058C534.531 648.786 544.44 654.135 552.243 655.189C566.58 660.537 578.486 668.182 598.034 668.749C602.219 671.234 604.19 675.772 611.317 675.529C627.166 683.579 645.417 687.658 664.506 691.818C683.135 695.87 703.25 701.299 725.065 701.326C729.736 705 734.11 703.677 738.349 705.405C747.718 705.216 759.111 713.158 769.371 713.536C776.148 713.779 783.492 710.241 791.538 709.457C799.88 708.647 808.844 710.025 816.647 709.457C820.778 709.16 823.181 707.134 826.988 706.756C836.14 705.811 848.074 710.889 859.495 710.835C866.838 710.781 872.346 707.81 880.176 708.134C883.065 708.242 884.28 709.565 886.089 709.484C902.451 708.836 918.461 703.541 934.85 709.484C939.277 708.917 941.977 708.242 945.19 708.134C948.565 708.026 948.646 707.999 952.588 709.484C961.714 711.834 971.407 712.159 982.125 714.914C984.744 715.589 987.12 717.318 989.523 717.615C998.406 718.804 1007.91 718.155 1017.6 718.966C1034.58 720.425 1052.32 721.343 1070.79 721.667C1084.43 721.91 1095.01 719.911 1107.73 721.667C1111.42 722.18 1113.29 723.585 1116.58 724.368C1118.42 724.801 1120.69 723.855 1122.49 724.368C1125.01 725.071 1128.6 728.636 1134.32 728.447C1141.53 728.204 1150.03 722.207 1157.94 718.939C1166.42 715.454 1175.25 711.726 1183.05 710.808C1194.07 709.511 1205.41 714.185 1217.02 713.509C1225.01 713.05 1232.17 709.079 1240.64 708.08C1254.2 706.486 1269.18 707.539 1282.01 706.729C1285.08 706.54 1285.84 705.567 1287.92 705.378C1290.38 705.162 1293.56 706.756 1293.83 706.729C1311.84 705.892 1326.5 702.542 1342.59 698.598C1354.55 695.654 1366.76 695.897 1378.04 691.818C1378.74 691.575 1378.96 689.333 1379.53 689.117C1387.63 685.767 1402.13 688.684 1409.06 680.986C1424.13 684.93 1439.92 682.417 1454.86 680.986C1461.88 680.31 1469.68 679.203 1477.02 678.257C1480.21 677.852 1483.99 675.934 1487.36 675.556C1491.6 675.07 1495.79 676.286 1499.19 675.556C1505.13 674.26 1509.45 670.802 1515.44 668.776C1534.21 662.374 1559.83 661.428 1578.97 653.865C1583.75 651.974 1588.45 648.949 1595.22 647.085C1598.01 646.328 1601.19 646.571 1604.08 645.734C1606.97 644.897 1608.56 642.384 1611.48 641.655C1620.36 639.413 1630.81 641.034 1636.59 633.524C1653.52 630.526 1664.75 622.287 1686.81 624.016C1691.83 622.881 1696.61 619.667 1701.57 618.586C1704.63 617.911 1708.84 619.126 1711.92 618.586C1714.51 618.127 1716.94 616.344 1719.31 615.885C1725.28 614.696 1731.19 614.831 1737.05 613.183C1739.13 612.589 1740.89 609.807 1742.96 609.105C1745.31 608.321 1748.34 608.348 1750.36 607.754C1768.32 602.513 1786.87 598.732 1803.55 591.465C1804.98 590.844 1807.98 589.223 1809.46 588.764C1815.11 587.008 1821.05 587.17 1827.2 586.063C1835.09 584.604 1843.05 580.471 1850.83 579.282C1854.2 578.769 1857.44 579.661 1861.17 579.282C1878.64 577.5 1898.37 573.556 1919.22 571.341L1919.22 877.5H5.6698V877.419Z" fill="url(#paint5_linear_487_803)"/>
<path fill-rule="evenodd" clip-rule="evenodd" d="M1252.69 284.707C1260 280.007 1262.3 275.739 1267.97 271.146C1274.37 265.987 1281.49 265.528 1286.3 264.717C1286.6 263.151 1287.49 261.773 1288.89 260.963C1290.27 260.179 1291.83 260.098 1293.32 260.611C1296.5 256.938 1300.55 250.698 1308.55 247.726C1315.38 245.187 1320.24 245.376 1327.99 241.486C1328.88 241.054 1329.58 240.649 1329.58 240.649C1329.58 240.649 1328.93 241.189 1328.15 241.811C1325.66 243.701 1323.26 245.268 1320.26 246.808C1317.11 248.429 1313.87 249.644 1310.73 251.616C1307.09 253.912 1305.06 256.316 1303.55 258.315C1301.15 261.557 1299.61 264.474 1297.8 267.473C1297.8 267.77 1297.75 268.04 1297.69 268.31C1297.8 268.337 1297.91 268.391 1297.99 268.445C1299.34 269.229 1301.5 269.039 1303.28 269.094C1304.28 269.445 1302.96 271.038 1302.5 271.687C1299.29 274.955 1295.61 277.035 1291.16 278.143C1290.38 278.224 1288.32 278.548 1288.54 277.495C1289.38 275.928 1290.65 274.172 1290.67 272.605C1290.67 272.497 1290.67 272.389 1290.7 272.281C1290.46 272.2 1290.24 272.119 1290.03 272.011C1286.65 272.011 1283.46 271.876 1279.6 272.281C1277.12 272.551 1274.01 273.064 1270.18 275.036C1266.91 276.738 1264.21 278.899 1261.19 280.79C1258.33 282.6 1255.76 283.87 1252.87 285.031C1251.93 285.382 1251.15 285.652 1251.15 285.652C1251.15 285.652 1251.85 285.247 1252.69 284.707Z" fill="black"/>
<path fill-rule="evenodd" clip-rule="evenodd" d="M-6.10352e-05 877.81V770.635C8.89325 770.635 13.8793 770.635 22.7726 770.635H30.192H55.6995H68.0472H97.6165H118.115H127.105H160.709H172.975H184.402H214.729H223.719H233.549H254.832H276.468H309.72H311.29H313.998H373.922H377.821H388.679H406.605H410.017H419.765H445.164H452.313H467.639H489.302H497.669H515.297H520.144H540.561H564.741H569.859H581.909H591.522H601.947H606.496H619.575H628.429H630.758H650.985H655.399H658.323H670.048H672.837H684.346H706.143H721.47H724.882H727.346H731.841H742.591H753.828H767.638H777.982H795.285H797.884H800.213C800.213 770.635 813.036 770.635 821.253 770.635C822.416 770.635 824.231 770.635 824.231 770.635H837.77H839.666H849.658H850.605H851.824H871.049H878.604H879.091H883.641H888.542H895.961H911.233C911.233 770.635 923.083 770.635 930.675 770.635C935.286 770.635 942.481 770.635 942.481 770.635H945.27H950.821H971.645H979.985H988.325H1006.39H1048.06H1066.12H1074.46H1082.1H1107.79H1117.51H1127.94H1156.4H1164.03H1181.39H1206.38H1216.81H1238.34H1244.59H1269.59H1298.04H1304.3H1318.89H1329.32H1341.13H1345.97C1345.97 770.635 1355.88 770.689 1361.24 770.635C1366.61 770.581 1370.97 770.635 1370.97 770.635H1373.75H1396.66H1401.51H1404.98H1413.83H1453.07H1457.83H1527.37C1527.37 770.635 1570.91 770.258 1598.8 770.635C1614.05 770.841 1637.85 771.45 1637.85 771.45V766.571V762.667C1637.85 762.667 1645.97 492.845 1649.27 357.148C1642.83 352.025 1636.39 346.928 1626.42 345.41C1624.39 344.435 1622.87 340.369 1620.71 342.483C1618.19 347.064 1618.38 354.41 1616.89 360.075C1607.28 370.403 1598.15 381.246 1588.32 391.357C1583.45 396.344 1578.17 401.169 1573.08 406.022C1568.07 410.819 1562.92 417.298 1554.99 417.759C1553.26 415.292 1554.23 413.096 1554.99 410.928C1556.34 407.025 1559.16 404.558 1561.65 400.194C1570.72 384.255 1583.04 370.457 1595.93 356.226C1598.48 353.407 1601.35 350.344 1604.51 347.443C1609.61 342.781 1615.13 340.07 1614.05 333.754C1613.8 332.372 1610.77 330.881 1613.1 328.875C1615.08 326.978 1616.86 327.005 1617.86 325.948C1620.9 322.749 1619.19 322.18 1619.76 319.117C1620.14 317.138 1619.49 313.56 1619.76 310.334C1616.27 293.88 1617.73 267.803 1618.81 245.847C1619.25 236.929 1619.16 228.037 1619.76 219.472C1620.03 215.704 1620.22 210.581 1620.71 206.759C1621.11 203.587 1620.87 198.193 1624.53 197C1628.59 203.424 1627.69 212.234 1628.34 220.448C1629.56 236.007 1631.08 252.488 1633.11 270.27C1634.08 278.836 1636.55 288.215 1635.98 294.693C1635.52 299.817 1632.03 303.91 1631.21 308.382C1629.89 312.936 1627.23 316.623 1628.34 321.096C1660.11 320.499 1684.99 327.249 1710.25 334.785C1711.91 335.272 1713.72 335.218 1715.02 335.76C1715.48 335.95 1715.59 337.522 1715.97 337.712C1717.38 338.39 1721.17 337.251 1720.73 340.64C1718.22 346.739 1712.56 345.736 1706.44 346.495C1701.32 348.419 1698.69 354.03 1693.11 355.277C1692.25 355.467 1689.43 354.302 1687.4 354.302C1685.29 354.302 1677.44 355.25 1672.16 353.326C1674.32 356.091 1677.54 357.88 1680.74 360.157C1685.91 363.897 1692.27 367.53 1696.93 372.87C1698.88 375.093 1702.7 378.156 1700.75 381.652C1691.9 381.436 1684.72 377.37 1677.9 373.846C1673.75 371.704 1669.88 369.617 1665.52 367.015C1663.98 366.093 1661.41 363.084 1658.86 364.087C1659.62 480.24 1663.63 770.635 1663.63 770.635H1666.5H1667.44H1665.55C1665.55 770.635 1665.48 770.635 1665.44 770.635C1663.81 770.635 1667.98 770.635 1669.61 770.635C1681.27 770.635 1699.48 770.635 1699.48 770.635H1707.11H1711.28H1714.75H1726.56H1750.17H1757.1H1761.97H1765.44H1773.78H1776.57H1780.04H1805.03H1807.82H1816.16H1827.26H1832.11H1873.78H1898.1H1905.03H1917.54C1917.54 770.635 1918.51 770.689 1919 770.635C1919.49 770.581 1919 878 1919 878H-6.10352e-05V877.81Z" fill="white"/>
<defs>
<linearGradient id="paint0_linear_487_803" x1="1206" y1="567" x2="1206" y2="-63" gradientUnits="userSpaceOnUse">
<stop offset="0.01" stop-color="white"/>
<stop offset="1" stop-color="#51A1B8"/>
</linearGradient>
<radialGradient id="paint1_radial_487_803" cx="0" cy="0" r="1" gradientUnits="userSpaceOnUse" gradientTransform="translate(1531.56 401.43) rotate(180) scale(167.152 167.237)">
<stop offset="0.19" stop-color="white"/>
<stop offset="0.52" stop-color="white"/>
<stop offset="1" stop-color="white"/>
</radialGradient>
<linearGradient id="paint2_linear_487_803" x1="2427.88" y1="540.982" x2="-255.382" y2="631.63" gradientUnits="userSpaceOnUse">
<stop stop-color="#E5E37A"/>
<stop offset="0.43" stop-color="#C0D388"/>
<stop offset="0.78" stop-color="#A9C890"/>
<stop offset="1" stop-color="#A1C594"/>
</linearGradient>
<linearGradient id="paint3_linear_487_803" x1="1058.67" y1="878.18" x2="1058.67" y2="356.804" gradientUnits="userSpaceOnUse">
<stop stop-color="#C4D57F"/>
<stop offset="1" stop-color="#86A669"/>
</linearGradient>
<linearGradient id="paint4_linear_487_803" x1="947.686" y1="979.837" x2="970.898" y2="558.265" gradientUnits="userSpaceOnUse">
<stop stop-color="#BDCF75"/>
<stop offset="1" stop-color="#7C9D5C"/>
</linearGradient>
<linearGradient id="paint5_linear_487_803" x1="962.335" y1="781" x2="962.335" y2="555.862" gradientUnits="userSpaceOnUse">
<stop stop-color="white"/>
<stop offset="1" stop-color="#638C3D"/>
</linearGradient>
</defs>
</svg>
