<svg style="opacity: 0.1" width="369" height="211" viewBox="0 0 369 211" fill="none" xmlns="http://www.w3.org/2000/svg">
<path d="M126.76 147.491C88.8832 146.981 57.0671 145.959 27.776 144.767C24.2409 144.427 21.2108 141.532 21.2108 137.616V72.5752C21.2108 68.9996 24.2409 65.5943 27.776 65.424C57.9088 63.8917 89.8933 63.0404 126.76 62.6998V147.491ZM147.802 181.544V29.1578C147.802 25.5822 150.832 22.3472 154.367 22.3472C174.568 21.6661 194.937 21.6661 214.969 22.3472C218.505 22.3472 221.535 25.5822 221.535 29.1578V181.544C221.535 185.12 218.505 188.355 214.969 188.355C194.937 189.036 174.568 189.036 154.367 188.355C150.832 188.355 147.802 185.46 147.802 181.544ZM242.577 62.6998C280.117 63.3809 311.428 64.2322 340.719 65.424C344.254 65.5943 347.116 68.6591 347.116 72.5752V137.616C347.116 141.192 344.254 144.597 340.719 144.767C311.428 145.959 279.78 146.81 242.577 147.491V62.6998ZM356.543 44.4815C319.677 41.7573 281.127 40.0547 242.745 38.8628V14.515C242.745 7.70446 237.359 1.91547 230.625 1.40468C200.324 -0.468227 169.349 -0.468227 138.88 1.40468C132.315 1.74521 126.76 7.70446 126.76 14.515V38.6926C88.7149 39.5439 50.3335 41.4168 12.1204 44.3113C5.5552 44.9923 0 50.6111 0 57.4216V152.429C0 159.24 5.38686 165.029 12.1204 165.539C49.9968 168.264 88.3782 170.307 126.76 171.158V196.357C126.76 203.168 132.146 208.787 138.88 209.468C154.199 210.489 169.686 211 185.005 211C200.324 211 215.138 210.489 230.12 209.468H230.962C237.527 209.297 243.082 203.168 243.082 196.357V171.158C281.127 170.307 319.34 168.434 356.88 165.539C363.445 165.029 369 159.24 369 152.429V57.5919C368.495 50.7813 363.108 44.9923 356.543 44.4815Z" fill="#CBD4D6"/>
</svg>
