<svg style="opacity: 0.1" width="247" height="141" viewBox="0 0 247 141" fill="none" xmlns="http://www.w3.org/2000/svg">
<path d="M85.1261 98.3883C59.9538 98.0491 38.809 97.3706 19.3423 96.579C16.9929 96.3529 14.9791 94.4305 14.9791 91.8297V48.6332C14.9791 46.2585 16.9929 43.9969 19.3423 43.8838C39.3683 42.8661 60.625 42.3007 85.1261 42.0745V98.3883ZM99.1108 121.004V19.7978C99.1108 17.4231 101.125 15.2746 103.474 15.2746C116.899 14.8223 130.436 14.8223 143.75 15.2746C146.099 15.2746 148.113 17.4231 148.113 19.7978V121.004C148.113 123.379 146.099 125.527 143.75 125.527C130.436 125.98 116.899 125.98 103.474 125.527C101.125 125.527 99.1108 123.605 99.1108 121.004ZM162.098 42.0745C187.046 42.5268 207.855 43.0922 227.322 43.8838C229.672 43.9969 231.573 46.0323 231.573 48.6332V91.8297C231.573 94.2043 229.672 96.4659 227.322 96.579C207.855 97.3706 186.823 97.936 162.098 98.3883V42.0745ZM237.839 29.975C213.337 28.1657 187.718 27.0349 162.21 26.2433V10.0729C162.21 5.54973 158.629 1.70501 154.154 1.36577C134.016 0.121892 113.431 0.121892 93.1813 1.36577C88.8181 1.59193 85.1261 5.54973 85.1261 10.0729V26.1303C59.8419 26.6957 34.3339 27.9395 8.93773 29.8619C4.57452 30.3142 0.882568 34.0459 0.882568 38.569V101.668C0.882568 106.191 4.46264 110.036 8.93773 110.375C34.1101 112.184 59.6181 113.541 85.1261 114.106V130.842C85.1261 135.365 88.7062 139.097 93.1813 139.549C103.362 140.228 113.655 140.567 123.836 140.567C134.016 140.567 143.862 140.228 153.819 139.549H154.378C158.741 139.436 162.433 135.365 162.433 130.842V114.106C187.718 113.541 213.114 112.297 238.062 110.375C242.426 110.036 246.117 106.191 246.117 101.668V38.6821C245.782 34.1589 242.202 30.3142 237.839 29.975Z" fill="url(#paint0_linear_153_1599)"/>
<defs>
<linearGradient id="paint0_linear_153_1599" x1="-93.4897" y1="70.5" x2="308.38" y2="40.7213" gradientUnits="userSpaceOnUse">
<stop stop-color="#223E4E"/>
<stop offset="1" stop-color="#0091A4"/>
</linearGradient>
</defs>
</svg>
