<svg width="149" height="85" viewBox="0 0 149 85" fill="none" xmlns="http://www.w3.org/2000/svg">
<path opacity="0.05" d="M51.1848 59.416C35.8905 59.2102 23.0433 58.7987 11.2158 58.3185C9.78832 58.1814 8.56478 57.0153 8.56478 55.4378V29.2364C8.56478 27.796 9.78832 26.4242 11.2158 26.3557C23.3832 25.7383 36.2984 25.3954 51.1848 25.2582V59.416ZM59.6816 73.1339V11.746C59.6816 10.3056 60.9051 9.00242 62.3326 9.00242C70.4895 8.72806 78.7144 8.72806 86.8034 9.00242C88.2308 9.00242 89.4544 10.3056 89.4544 11.746V73.1339C89.4544 74.5743 88.2308 75.8775 86.8034 75.8775C78.7144 76.1519 70.4895 76.1519 62.3326 75.8775C60.9051 75.8775 59.6816 74.7115 59.6816 73.1339ZM97.9512 25.2582C113.109 25.5326 125.753 25.8755 137.58 26.3557C139.008 26.4242 140.163 27.6589 140.163 29.2364V55.4378C140.163 56.8781 139.008 58.2499 137.58 58.3185C125.753 58.7987 112.974 59.1416 97.9512 59.416V25.2582ZM143.97 17.9191C129.083 16.8217 113.517 16.1358 98.0192 15.6556V5.84729C98.0192 3.10369 95.844 0.771636 93.125 0.565866C80.8896 -0.188622 68.3823 -0.188622 56.0789 0.565866C53.4279 0.703046 51.1848 3.10369 51.1848 5.84729V15.587C35.8225 15.93 20.3244 16.6845 4.89416 17.8505C2.24316 18.1249 0 20.3883 0 23.1319V61.4051C0 64.1487 2.17518 66.4807 4.89416 66.6865C20.1884 67.7839 35.6866 68.607 51.1848 68.95V79.1013C51.1848 81.8449 53.3599 84.1083 56.0789 84.3827C62.2646 84.7942 68.5182 85 74.7039 85C80.8896 85 86.8714 84.7942 92.9211 84.3827H93.2609C95.912 84.3141 98.1551 81.8449 98.1551 79.1013V68.95C113.517 68.607 128.948 67.8525 144.106 66.6865C146.757 66.4807 149 64.1487 149 61.4051V23.2005C148.796 20.4569 146.621 18.1249 143.97 17.9191Z" fill="white"/>
</svg>
