<svg width="24" height="24" viewBox="0 0 24 24" fill="none" xmlns="http://www.w3.org/2000/svg">
<path d="M24 12.0681C24.0012 9.76145 23.3445 7.50284 22.1075 5.56C20.8705 3.61716 19.1051 2.07158 17.0208 1.10649C14.9364 0.141399 12.6205 -0.202723 10.3475 0.114921C8.07446 0.432564 5.93973 1.39865 4.19637 2.89865C2.45301 4.39864 1.17416 6.36964 0.51138 8.57796C-0.151402 10.7863 -0.170323 13.1393 0.456924 15.3581C1.08417 17.5769 2.33124 19.5684 4.0503 21.0964C5.76935 22.6245 7.88831 23.6251 10.1559 23.9796V15.5706H7.11186V12.0817H10.1559V9.43773C10.1559 6.41215 11.9457 4.74263 14.6847 4.74263C15.5933 4.75384 16.4998 4.83356 17.3966 4.98113V7.94538H15.8847C15.6268 7.91163 15.3646 7.93658 15.1176 8.01838C14.8706 8.10017 14.645 8.23673 14.4576 8.41795C14.2701 8.59917 14.1255 8.82042 14.0346 9.06535C13.9437 9.31027 13.9087 9.57261 13.9322 9.83296V12.0885H17.261L16.7254 15.5775H13.9322V24C16.7474 23.5384 19.307 22.0839 21.1519 19.8973C22.9969 17.7107 24.0066 14.9351 24 12.0681Z" fill="#878C9C"/>
</svg>
