<svg width="24" height="24" viewBox="0 0 24 24" fill="none" xmlns="http://www.w3.org/2000/svg">
<path fill-rule="evenodd" clip-rule="evenodd" d="M24.0001 12C24.0001 18.6275 18.6275 24.0001 12 24.0001C5.3726 24.0001 0 18.6275 0 12C0 5.3726 5.3726 0 12 0C18.6275 0 24.0001 5.3726 24.0001 12ZM15.2634 7.59713C15.4004 7.50701 15.561 7.45962 15.725 7.46097C15.9433 7.46275 16.1521 7.55073 16.3058 7.70574C16.4596 7.86075 16.5458 8.07024 16.5458 8.28856C16.5458 8.45252 16.4971 8.61279 16.4059 8.74903C16.3146 8.88527 16.185 8.99134 16.0334 9.05377C15.8817 9.1162 15.715 9.13219 15.5542 9.09971C15.3935 9.06722 15.2461 8.98773 15.1306 8.87131C15.0152 8.75489 14.9369 8.6068 14.9057 8.44582C14.8745 8.28483 14.8919 8.11822 14.9556 7.96712C15.0193 7.81602 15.1264 7.68725 15.2634 7.59713ZM12.0543 8.51953C11.3687 8.51953 10.6985 8.72283 10.1284 9.10372C9.5584 9.48461 9.11414 10.026 8.85178 10.6594C8.58941 11.2928 8.52074 11.9898 8.65449 12.6622C8.78824 13.3346 9.11838 13.9522 9.60316 14.437C10.0879 14.9218 10.7056 15.2519 11.378 15.3857C12.0505 15.5194 12.7474 15.4508 13.3808 15.1884C14.0142 14.9261 14.5556 14.4818 14.9365 13.9117C15.3174 13.3417 15.5206 12.6715 15.5206 11.9859C15.5206 11.0666 15.1555 10.1849 14.5054 9.53481C13.8553 8.88474 12.9736 8.51953 12.0543 8.51953ZM12.0543 14.2041C11.6156 14.2041 11.1867 14.074 10.8219 13.8303C10.4571 13.5865 10.1728 13.2401 10.0049 12.8348C9.83705 12.4295 9.79311 11.9835 9.8787 11.5532C9.96429 11.1229 10.1755 10.7276 10.4858 10.4174C10.796 10.1072 11.1912 9.89591 11.6215 9.81032C12.0518 9.72473 12.4978 9.76866 12.9032 9.93655C13.3085 10.1044 13.6549 10.3888 13.8987 10.7535C14.1424 11.1183 14.2725 11.5472 14.2725 11.9859C14.2707 12.5737 14.0364 13.1368 13.6208 13.5524C13.2052 13.9681 12.642 14.2023 12.0543 14.2041ZM9.18526 19.0202H14.8088C15.9291 19.0184 17.003 18.5726 17.7951 17.7804C18.5873 16.9882 19.0331 15.9143 19.0349 14.7941V9.1773C19.0331 8.05701 18.5873 6.98312 17.7951 6.19095C17.003 5.39879 15.9291 4.95297 14.8088 4.95117H9.18526C8.06498 4.95297 6.99109 5.39879 6.19893 6.19095C5.40676 6.98312 4.9609 8.05701 4.95911 9.1773V14.7941C4.9609 15.9143 5.40676 16.9882 6.19893 17.7804C6.99109 18.5726 8.06498 19.0184 9.18526 19.0202ZM7.13667 7.12672C7.67969 6.58243 8.41643 6.27575 9.18526 6.27396H14.8088C15.5788 6.27396 16.3173 6.57984 16.8618 7.12433C17.4062 7.66881 17.7121 8.40728 17.7121 9.1773V14.7941C17.7121 15.5641 17.4062 16.3025 16.8618 16.847C16.3173 17.3915 15.5788 17.6974 14.8088 17.6974H9.18526C8.41643 17.6956 7.67969 17.3889 7.13667 16.8446C6.59365 16.3003 6.28869 15.5629 6.28869 14.7941V9.1773C6.28869 8.40846 6.59365 7.67101 7.13667 7.12672Z" fill="#878C9C"/>
</svg>
