<svg width="201" height="44" viewBox="0 0 201 44" fill="none" xmlns="http://www.w3.org/2000/svg">
<g clip-path="url(#clip0_401_664)">
<path d="M14.0977 16.0905C9.88525 16.0348 6.34678 15.9233 3.08914 15.7932C2.69598 15.7561 2.35898 15.4402 2.35898 15.0128V7.91484C2.35898 7.52464 2.69598 7.15302 3.08914 7.13444C6.44039 6.96721 9.99758 6.8743 14.0977 6.83714V16.0905ZM16.438 19.8067V3.17667C16.438 2.78647 16.775 2.43343 17.1681 2.43343C19.4148 2.3591 21.6801 2.3591 23.9081 2.43343C24.3012 2.43343 24.6382 2.78647 24.6382 3.17667V19.8067C24.6382 20.1969 24.3012 20.55 23.9081 20.55C21.6801 20.6243 19.4148 20.6243 17.1681 20.55C16.775 20.55 16.438 20.2341 16.438 19.8067ZM26.9785 6.83714C31.1535 6.91147 34.6358 7.00437 37.8934 7.13444C38.2866 7.15302 38.6049 7.48748 38.6049 7.91484V15.0128C38.6049 15.403 38.2866 15.7746 37.8934 15.7932C34.6358 15.9233 31.1161 16.0162 26.9785 16.0905V6.83714ZM39.6533 4.84897C35.5532 4.55167 31.2658 4.36586 26.9972 4.23579V1.5787C26.9972 0.835453 26.3981 0.203697 25.6492 0.147953C22.2792 -0.0564386 18.8344 -0.0564386 15.4457 0.147953C14.7155 0.185115 14.0977 0.835453 14.0977 1.5787V4.21721C9.86652 4.31012 5.59789 4.51451 1.34799 4.83039C0.617828 4.90471 0 5.51789 0 6.26113V16.6294C0 17.3726 0.599106 18.0044 1.34799 18.0601C5.56045 18.3574 9.82908 18.5804 14.0977 18.6733V21.4233C14.0977 22.1665 14.6968 22.7797 15.4457 22.854C17.1494 22.9655 18.8718 23.0213 20.5755 23.0213C22.2792 23.0213 23.9268 22.9655 25.593 22.854H25.6867C26.4168 22.8355 27.0346 22.1665 27.0346 21.4233V18.6733C31.2658 18.5804 35.5157 18.376 39.6908 18.0601C40.4209 18.0044 41.0387 17.3726 41.0387 16.6294V6.27971C40.9826 5.53647 40.3835 4.90471 39.6533 4.84897Z" fill="#086470"/>
<path d="M50.7368 42.3091C49.4637 41.1757 48.8271 39.4105 48.8271 36.9949V19.1013H53.3953V36.7348C53.3953 37.3666 53.4515 37.8868 53.5826 38.277C53.6949 38.6672 53.9195 39.0574 54.2191 39.4662C54.8182 40.3395 56.316 40.7855 58.675 40.7855C61.1837 40.7855 62.9436 40.5439 63.9546 40.0794C64.9281 39.6149 65.4336 38.7601 65.4336 37.5152V19.1013H70.0018V43.4797H65.4336V40.5068C64.9843 42.8294 62.307 43.9814 57.3644 43.9814C54.2191 43.9814 52.0099 43.424 50.7368 42.2905V42.3091Z" fill="#086470"/>
<path d="M93.0306 40.6368C93.9667 40.3767 94.6219 39.9307 95.0338 39.2432C95.427 38.5743 95.6329 37.5524 95.6329 36.1774V26.6081C95.6329 25.2331 95.427 24.1926 95.0338 23.5236C94.6219 22.8361 93.9667 22.3716 93.0306 22.1672C92.0945 21.9442 90.7278 21.8328 88.9492 21.8328C87.2829 21.8328 86.0098 21.9628 85.0924 22.2415C84.175 22.5017 83.5198 22.9848 83.1079 23.6723C82.696 24.3598 82.4901 25.3446 82.4901 26.6267V36.1959C82.4901 37.5709 82.696 38.5929 83.0704 39.2618C83.4636 39.9307 84.1189 40.3953 85.0175 40.6554C85.9349 40.9155 87.2642 41.027 88.9866 41.027C90.709 41.027 92.0945 40.8969 93.0306 40.6554V40.6368ZM84.4933 43.7027C83.3887 43.5169 82.3028 43.1824 81.217 42.6807C79.0078 41.6402 77.9219 39.2618 77.9219 35.527V8.21283H82.4901V18.3953C82.4526 19.2686 82.4526 20.2534 82.4526 21.3311C82.6211 20.5507 83.3326 19.9003 84.5869 19.3615C85.8788 18.8598 87.7322 18.5997 90.1848 18.5997C96.9435 18.5997 100.332 20.9037 100.332 25.5118V35.527C100.332 36.9763 100.126 38.2399 99.6956 39.299C99.265 40.3767 98.7221 41.2128 98.0481 41.826C97.449 42.3834 96.6065 42.848 95.5393 43.1824C94.4722 43.5169 93.4237 43.7399 92.3753 43.8513C91.4205 43.9443 90.2784 44 88.9304 44C87.0957 44 85.6354 43.9071 84.5308 43.7213L84.4933 43.7027Z" fill="#086470"/>
<path d="M107.315 19.1013H111.883V43.4797H107.315V19.1013ZM107.315 10.2753H111.883V15.0135H107.315V10.2753Z" fill="#086470"/>
<path d="M116.133 19.1013H120.963L127.759 39.5591H128.021L134.611 19.1013H139.03L130.455 43.4797H124.97L116.133 19.1013Z" fill="#086470"/>
<path d="M143.299 19.1013H147.867V43.4797H143.299V19.1013ZM143.299 10.2753H147.867V15.0135H143.299V10.2753Z" fill="#086470"/>
<path d="M152.117 19.1013H156.947L163.762 39.5591H164.005L170.595 19.1013H175.032L166.439 43.4797H160.954L152.117 19.1013Z" fill="#086470"/>
<path d="M192.781 40.9155C193.418 40.8412 194.055 40.6554 194.654 40.3581C195.253 40.0979 195.702 39.652 195.946 39.0202C196.189 38.4071 196.32 37.5338 196.32 36.4189V26.5338C196.32 25.0287 196.133 23.9138 195.758 23.2449C195.384 22.5574 194.747 22.0929 193.849 21.8699C192.95 21.6469 191.565 21.5354 189.655 21.5354C187.745 21.5354 186.36 21.6469 185.461 21.8699C184.562 22.0929 183.926 22.5388 183.57 23.2449C183.196 23.9324 183.009 25.0287 183.009 26.5338V36.4189C183.009 37.5152 183.14 38.3885 183.383 39.0202C183.645 39.652 184.076 40.0794 184.675 40.3581C185.293 40.6554 185.91 40.8412 186.547 40.9155C187.184 40.9898 188.232 41.027 189.636 41.027C191.04 41.027 192.089 40.9898 192.744 40.9155H192.781ZM184.806 43.7584C183.72 43.6098 182.634 43.2753 181.567 42.7736C180.444 42.2719 179.639 41.4544 179.133 40.3209C178.628 39.1875 178.365 37.6824 178.365 35.7686V27.2956C178.365 25.7905 178.553 24.4527 178.927 23.3192C179.302 22.1672 179.788 21.2939 180.387 20.6436C180.893 20.0675 181.661 19.6216 182.69 19.3057C183.72 18.9898 184.787 18.7854 185.854 18.674C187.071 18.5996 188.344 18.5811 189.655 18.5811C191.415 18.5811 192.744 18.6182 193.643 18.7111C194.541 18.7854 195.496 18.9713 196.507 19.25C197.556 19.5473 198.361 20.0118 198.941 20.6064C199.521 21.201 200.008 22.0929 200.42 23.2263C200.795 24.3969 200.982 25.7534 200.982 27.2956V35.7686C200.982 38.6115 200.326 40.7111 198.997 42.0118C198.454 42.5506 197.687 42.9594 196.657 43.2753C195.646 43.5726 194.598 43.777 193.512 43.8885C192.22 43.9628 190.928 43.9814 189.655 43.9814C187.483 43.9814 185.873 43.9071 184.787 43.7584H184.806Z" fill="#086470"/>
</g>
<defs>
<clipPath id="clip0_401_664">
<rect width="201" height="44" fill="white"/>
</clipPath>
</defs>
</svg>
