<svg width="193" height="43" viewBox="0 0 193 43" fill="none" xmlns="http://www.w3.org/2000/svg">
<g clip-path="url(#clip0_466_483)">
<path d="M13.5366 15.7252C9.4918 15.6707 6.09417 15.5617 2.96619 15.4346C2.58867 15.3983 2.26509 15.0896 2.26509 14.672V7.7353C2.26509 7.35396 2.58867 6.99079 2.96619 6.97263C6.18405 6.8092 9.59966 6.71841 13.5366 6.68209V15.7252ZM15.7837 19.3569V3.10481C15.7837 2.72347 16.1073 2.37846 16.4848 2.37846C18.642 2.30582 20.8173 2.30582 22.9565 2.37846C23.334 2.37846 23.6576 2.72347 23.6576 3.10481V19.3569C23.6576 19.7383 23.334 20.0833 22.9565 20.0833C20.8173 20.1559 18.642 20.1559 16.4848 20.0833C16.1073 20.0833 15.7837 19.7746 15.7837 19.3569ZM25.9047 6.68209C29.9136 6.75472 33.2573 6.84552 36.3852 6.97263C36.7628 6.99079 37.0684 7.31765 37.0684 7.7353V14.672C37.0684 15.0533 36.7628 15.4165 36.3852 15.4346C33.2573 15.5617 29.8776 15.6525 25.9047 15.7252V6.68209ZM38.0751 4.7391C34.1381 4.44856 30.0214 4.26697 25.9227 4.13986V1.54315C25.9227 0.816802 25.3474 0.199403 24.6284 0.144927C21.3925 -0.0548195 18.0848 -0.0548195 14.8309 0.144927C14.1298 0.181245 13.5366 0.816802 13.5366 1.54315V4.1217C9.47383 4.21249 5.37509 4.41224 1.29434 4.72094C0.593238 4.79358 0 5.39282 0 6.11917V16.2518C0 16.9781 0.575261 17.5955 1.29434 17.65C5.33914 17.9405 9.43787 18.1584 13.5366 18.2492V20.9367C13.5366 21.6631 14.1119 22.2623 14.8309 22.335C16.4668 22.4439 18.1207 22.4984 19.7566 22.4984C21.3925 22.4984 22.9745 22.4439 24.5744 22.335H24.6643C25.3654 22.3168 25.9586 21.6631 25.9586 20.9367V18.2492C30.0214 18.1584 34.1022 17.9587 38.111 17.65C38.8121 17.5955 39.4054 16.9781 39.4054 16.2518V6.13733C39.3514 5.41097 38.7762 4.79358 38.0751 4.7391Z" fill="white"/>
<path d="M48.7174 41.3473C47.495 40.2396 46.8838 38.5145 46.8838 36.1539V18.667H51.2702V35.8997C51.2702 36.5171 51.3241 37.0255 51.4499 37.4069C51.5578 37.7882 51.7735 38.1695 52.0611 38.569C52.6364 39.4225 54.0745 39.8583 56.3396 39.8583C58.7485 39.8583 60.4384 39.6222 61.4091 39.1683C62.3439 38.7143 62.8293 37.879 62.8293 36.6623V18.667H67.2157V42.4913H62.8293V39.5859C62.3979 41.8558 59.8272 42.9816 55.0813 42.9816C52.0611 42.9816 49.9399 42.4368 48.7174 41.3292V41.3473Z" fill="white"/>
<path d="M89.3277 39.7134C90.2265 39.4592 90.8557 39.0234 91.2512 38.3515C91.6287 37.6978 91.8265 36.6991 91.8265 35.3553V26.0036C91.8265 24.6598 91.6287 23.6429 91.2512 22.9892C90.8557 22.3173 90.2265 21.8634 89.3277 21.6636C88.4288 21.4457 87.1165 21.3368 85.4087 21.3368C83.8088 21.3368 82.5863 21.4639 81.7055 21.7362C80.8246 21.9905 80.1954 22.4626 79.7999 23.1345C79.4044 23.8063 79.2067 24.7688 79.2067 26.0217V35.3735C79.2067 36.7172 79.4044 37.716 79.764 38.3697C80.1415 39.0234 80.7707 39.4774 81.6336 39.7316C82.5144 39.9858 83.7908 40.0948 85.4447 40.0948C87.0985 40.0948 88.4288 39.9677 89.3277 39.7316V39.7134ZM81.1302 42.7096C80.0696 42.5281 79.0269 42.2012 77.9843 41.7109C75.863 40.694 74.8203 38.3697 74.8203 34.7198V8.02637H79.2067V17.9774C79.1707 18.8308 79.1707 19.7933 79.1707 20.8465C79.3325 20.0838 80.0156 19.4482 81.2201 18.9216C82.4605 18.4313 84.2402 18.1771 86.5952 18.1771C93.0848 18.1771 96.3387 20.4288 96.3387 24.9322V34.7198C96.3387 36.1362 96.1409 37.371 95.7274 38.406C95.314 39.4592 94.7926 40.2764 94.1455 40.8756C93.5702 41.4204 92.7613 41.8743 91.7366 42.2012C90.7119 42.5281 89.7052 42.746 88.6985 42.8549C87.7817 42.9457 86.6851 43.0002 85.3907 43.0002C83.629 43.0002 82.2268 42.9094 81.1662 42.7278L81.1302 42.7096Z" fill="white"/>
<path d="M103.044 18.6674H107.43V42.4917H103.044V18.6674ZM103.044 10.042H107.43V14.6725H103.044V10.042Z" fill="white"/>
<path d="M111.511 18.667H116.149L122.674 38.6598H122.926L129.254 18.667H133.496L125.263 42.4913H119.996L111.511 18.667Z" fill="white"/>
<path d="M137.595 18.6674H141.981V42.4917H137.595V18.6674ZM137.595 10.042H141.981V14.6725H137.595V10.042Z" fill="white"/>
<path d="M146.062 18.667H150.7L157.244 38.6598H157.478L163.805 18.667H168.066L159.815 42.4913H154.547L146.062 18.667Z" fill="white"/>
<path d="M185.108 39.9851C185.719 39.9124 186.33 39.7308 186.906 39.4403C187.481 39.1861 187.912 38.7503 188.146 38.1329C188.38 37.5336 188.505 36.6802 188.505 35.5906V25.9302C188.505 24.4593 188.326 23.3698 187.966 22.7161C187.607 22.0442 186.995 21.5902 186.133 21.3723C185.27 21.1544 183.939 21.0454 182.106 21.0454C180.272 21.0454 178.942 21.1544 178.079 21.3723C177.216 21.5902 176.605 22.026 176.263 22.7161C175.904 23.3879 175.724 24.4593 175.724 25.9302V35.5906C175.724 36.662 175.85 37.5155 176.083 38.1329C176.335 38.7503 176.749 39.1679 177.324 39.4403C177.917 39.7308 178.51 39.9124 179.122 39.9851C179.733 40.0577 180.739 40.094 182.088 40.094C183.436 40.094 184.443 40.0577 185.072 39.9851H185.108ZM177.45 42.7634C176.407 42.6181 175.364 42.2912 174.34 41.8009C173.261 41.3106 172.488 40.5117 172.003 39.404C171.517 38.2963 171.266 36.8254 171.266 34.9551V26.6747C171.266 25.2038 171.445 23.8964 171.805 22.7887C172.164 21.6628 172.632 20.8094 173.207 20.1738C173.693 19.6109 174.43 19.1751 175.418 18.8664C176.407 18.5577 177.432 18.358 178.456 18.249C179.625 18.1764 180.847 18.1582 182.106 18.1582C183.796 18.1582 185.072 18.1945 185.935 18.2853C186.798 18.3579 187.714 18.5395 188.685 18.8119C189.692 19.1025 190.465 19.5564 191.022 20.1375C191.58 20.7186 192.047 21.5902 192.442 22.6979C192.802 23.8419 192.982 25.1675 192.982 26.6747V34.9551C192.982 37.7334 192.353 39.7853 191.076 41.0564C190.555 41.583 189.818 41.9825 188.829 42.2912C187.858 42.5818 186.852 42.7815 185.809 42.8905C184.569 42.9631 183.328 42.9813 182.106 42.9813C180.02 42.9813 178.474 42.9086 177.432 42.7634H177.45Z" fill="white"/>
</g>
<defs>
<clipPath id="clip0_466_483">
<rect width="193" height="43" fill="white"/>
</clipPath>
</defs>
</svg>
