<svg width="56" height="56" viewBox="0 0 56 56" fill="none" xmlns="http://www.w3.org/2000/svg">
<path opacity="0.5" d="M43.7317 28.746C43.7317 36.8813 36.5956 45 28.4223 45C20.249 45 11 38.913 11 30.7778C14.1335 17.0635 23.7496 13 31.9229 13C40.0962 13 45.2627 15.5397 43.7317 28.746Z" fill="#00C1C1"/>
<g clip-path="url(#clip0_437_774)">
<path d="M15.7657 4.21562C14.9688 4.51562 14.2657 5.0125 13.5063 5.8C10.7219 8.6875 8.80942 14.5375 8.01255 22.6094C7.8438 24.2594 7.8438 31.7406 8.01255 33.3906C8.82817 41.6687 10.8344 47.6594 13.7313 50.425C14.9313 51.5781 15.8875 52 17.2657 52C19.6657 52 21.7563 50.05 23.4907 46.1875C24.1844 44.6594 25.0938 41.7906 25.0938 41.1437C25.0938 40.6656 24.6719 40.2812 24.1282 40.2812C23.6032 40.2812 23.275 40.5625 23.125 41.1344C23.0688 41.3594 22.8532 42.0906 22.6469 42.7469C21.25 47.2188 19.15 50.0312 17.2188 50.0312C14.5094 50.0312 11.7719 44.875 10.5157 37.3844C10 34.3094 9.81255 31.7781 9.81255 28C9.81255 24.1094 10.0094 21.6437 10.5625 18.3531C11.8094 11.0781 14.5563 5.96875 17.2094 5.96875C19.3 5.96875 21.475 9.1 22.9375 14.2C23.3594 15.6812 23.5563 15.9531 24.1563 15.9531C24.6063 15.9531 25.0188 15.6719 25.1313 15.2687C25.225 14.9406 25.0469 14.2 24.4188 12.25C23.1063 8.19062 21.2407 5.44375 19.0938 4.39375C18.4282 4.075 18.3344 4.04688 17.3594 4.02812C16.4688 4 16.2532 4.02812 15.7657 4.21562Z" fill="#EF615A"/>
<path d="M37.3845 4.1875C34.7126 5.14375 32.472 8.65937 31.0001 14.2C30.8408 14.7719 30.8126 15.0531 30.8689 15.2687C30.9814 15.6719 31.3939 15.9531 31.8439 15.9531C32.4439 15.9531 32.6408 15.6812 33.0626 14.2C34.5251 9.1 36.7001 5.96875 38.7908 5.96875C40.2158 5.96875 41.7626 7.50625 43.0376 10.1969C44.6314 13.5625 45.7095 18.4281 46.1033 24.0062C46.2439 26.1062 46.1595 31.9562 45.9626 33.8594C45.1751 41.1156 43.3283 46.6562 40.9095 48.9812C39.372 50.4531 37.9939 50.3875 36.4564 48.7656C35.097 47.3406 33.6908 44.3406 32.8751 41.1344C32.7251 40.5625 32.397 40.2812 31.872 40.2812C31.5345 40.2812 31.4033 40.3375 31.1783 40.5531C30.8314 40.9094 30.8314 41.1906 31.1783 42.4469C32.6314 47.5844 34.8626 50.95 37.3939 51.8031C37.797 51.9437 38.2095 52 38.7345 52C40.1126 52 41.0689 51.5781 42.2783 50.4156C45.1564 47.6594 47.172 41.65 47.9876 33.3906C48.1564 31.7406 48.1564 24.2594 47.9876 22.6094C47.172 14.3219 45.1658 8.34062 42.2595 5.56562C41.4439 4.7875 40.947 4.46875 40.1408 4.1875C39.4001 3.93437 38.097 3.93437 37.3845 4.1875Z" fill="#EF615A"/>
<path d="M16.5903 13.0937C14.9965 14.0031 13.7872 17.275 13.1684 22.3469C12.9809 23.8281 12.9622 24.4656 12.9622 28C12.9622 31.5344 12.9809 32.1719 13.1684 33.6531C13.7872 38.725 14.9965 41.9969 16.5903 42.9062C16.9934 43.1406 17.1809 43.1875 17.6872 43.1875C18.484 43.1875 18.9153 42.9812 19.5434 42.3062C20.1715 41.6406 20.9684 40.0562 20.9684 39.4656C20.9684 38.9125 20.6778 38.5938 20.1153 38.5281C19.759 38.4906 19.6465 38.5187 19.3934 38.7344C19.2247 38.875 19.0934 39.0344 19.0934 39.0812C19.0934 39.1375 18.9434 39.4937 18.7653 39.8781C18.3997 40.6187 17.9403 41.2187 17.7153 41.2187C17.1622 41.2187 16.2153 39.1187 15.6809 36.7187C15.109 34.1219 14.8747 31.5719 14.8747 28C14.8747 24.4281 15.109 21.8781 15.6809 19.2812C16.2153 16.8812 17.1622 14.7812 17.7153 14.7812C18.034 14.7812 18.6059 15.6531 19.0934 16.8719C19.3465 17.5187 19.5622 17.6875 20.1059 17.6875C20.434 17.6875 20.5653 17.6312 20.7997 17.4062C21.0528 17.1437 21.0809 17.0687 21.0434 16.6656C20.9778 15.9812 20.1528 14.3312 19.5434 13.6937C18.9153 13.0187 18.484 12.8125 17.6872 12.8125C17.1809 12.8125 16.9934 12.8594 16.5903 13.0937Z" fill="#EF615A"/>
<path d="M37.3283 12.9906C36.7002 13.2812 36.0158 14.1062 35.4814 15.2219C35.1814 15.8312 34.9845 16.3937 34.9564 16.6656C34.9189 17.0687 34.947 17.1437 35.2002 17.4062C35.4345 17.6312 35.5658 17.6875 35.9033 17.6875C36.4658 17.6875 36.6533 17.5094 37.0002 16.6562C37.5252 15.3719 38.0314 14.7062 38.3877 14.8281C38.6502 14.9031 39.1939 15.7469 39.5314 16.6C40.1127 18.0344 40.6658 20.6406 40.9564 23.2656C41.0314 24.0062 41.0783 25.6281 41.0783 28C41.0783 31.8062 41.0127 32.7437 40.6002 35.2094C40.1877 37.6937 39.597 39.5875 38.9127 40.6094C38.5095 41.2281 38.2939 41.3219 37.9658 41.0125C37.7033 40.7687 37.1783 39.85 36.9908 39.3062C36.9158 39.1094 36.7377 38.8375 36.5877 38.7156C36.3533 38.5187 36.2408 38.4906 35.8845 38.5281C35.322 38.5938 35.0314 38.9125 35.0314 39.4656C35.0314 40.0562 35.8283 41.6406 36.4564 42.3062C37.0845 42.9812 37.5158 43.1875 38.3127 43.1875C38.8189 43.1875 39.0064 43.1406 39.4095 42.9062C41.097 41.9406 42.3064 38.4719 42.9252 32.8281C43.0939 31.3 43.0939 24.7 42.9252 23.1719C42.3064 17.5281 41.097 14.0594 39.4095 13.0937C39.0064 12.8594 38.8189 12.8125 38.3127 12.8125C37.9189 12.8125 37.572 12.8781 37.3283 12.9906Z" fill="#EF615A"/>
<path d="M23.4906 18.0531C23.2469 18.2969 23.2188 18.3906 23.2188 18.8969V19.4687H21.8406C19.4219 19.4687 19.375 19.5156 19.375 21.7844V23.3125H18.9062C18.3813 23.3125 17.9313 23.5 17.7812 23.7719C17.7344 23.875 17.6875 24.1281 17.6875 24.3437C17.6875 24.6531 17.7438 24.7937 17.9594 25.0094C18.2031 25.2531 18.2969 25.2812 18.8031 25.2812H19.375V28.0937V30.9062H18.9531C18.4375 30.9062 17.9219 31.1031 17.7906 31.3562C17.7344 31.4687 17.6875 31.7406 17.6875 31.9656C17.6875 32.3219 17.7344 32.425 17.9781 32.6312C18.2125 32.8375 18.3625 32.875 18.8125 32.875H19.3656L19.3938 34.5156L19.4219 36.1562L19.6844 36.4094L19.9375 36.6719L21.5781 36.7L23.2188 36.7281V37.2812C23.2188 37.7594 23.2563 37.8812 23.4813 38.125C23.8188 38.5094 24.2781 38.575 24.7 38.3125C25.0656 38.0875 25.1875 37.8062 25.1875 37.1781V36.7187H28H30.8125V37.1781C30.8125 37.8062 30.9344 38.0875 31.3 38.3125C31.7219 38.575 32.1813 38.5094 32.5281 38.125C32.7438 37.8812 32.7813 37.7594 32.7813 37.2812V36.7281L34.4219 36.7L36.0625 36.6719L36.3156 36.4094L36.5781 36.1562L36.6063 34.5156L36.6344 32.875H37.1875C37.6375 32.875 37.7875 32.8375 38.0219 32.6312C38.2656 32.425 38.3125 32.3219 38.3125 31.9656C38.3125 31.7406 38.2656 31.4687 38.2094 31.3562C38.0781 31.1031 37.5625 30.9062 37.0469 30.9062H36.625V28.0937V25.2812H37.1969C37.7031 25.2812 37.7969 25.2531 38.0406 25.0094C38.2563 24.7937 38.3125 24.6531 38.3125 24.3437C38.3125 24.1281 38.2656 23.875 38.2188 23.7719C38.0688 23.5 37.6188 23.3125 37.0938 23.3125H36.625V21.7844C36.625 19.5156 36.5781 19.4687 34.1688 19.4687H32.7813V18.8969C32.7813 18.3906 32.7531 18.2969 32.5094 18.0531C32.2844 17.8375 32.1531 17.7812 31.825 17.7812C31.15 17.7906 30.8125 18.1844 30.8125 18.9906V19.4687H28H25.1875V18.9906C25.1875 18.1844 24.85 17.7906 24.175 17.7812C23.8469 17.7812 23.7156 17.8375 23.4906 18.0531ZM34.6562 28.0937V34.75H28H21.3438V28.0937V21.4375H28H34.6562V28.0937Z" fill="#EF615A"/>
<path d="M24.7376 24.2594C24.5501 24.3156 24.3626 24.4656 24.2407 24.6531C24.072 24.9437 24.0626 25.1031 24.0814 28.2062L24.1095 31.4688L24.372 31.7219L24.6251 31.9844H28.0001H31.3751L31.6282 31.7219L31.8907 31.4688L31.9189 28.2062C31.9376 25.1125 31.9282 24.9344 31.7595 24.6531C31.6376 24.4562 31.4501 24.325 31.2157 24.2594C30.7657 24.1281 25.1689 24.1375 24.7376 24.2594ZM29.9689 28.0937V30.0625H28.0001H26.0314V28.0937V26.125H28.0001H29.9689V28.0937Z" fill="#EF615A"/>
</g>
<defs>
<clipPath id="clip0_437_774">
<rect width="48" height="48" fill="white" transform="translate(4 4)"/>
</clipPath>
</defs>
</svg>
