<svg width="56" height="56" viewBox="0 0 56 56" fill="none" xmlns="http://www.w3.org/2000/svg">
<path opacity="0.5" d="M43.7317 28.746C43.7317 36.8813 36.5956 45 28.4223 45C20.249 45 11 38.913 11 30.7778C14.1335 17.0635 23.7496 13 31.9229 13C40.0962 13 45.2627 15.5397 43.7317 28.746Z" fill="#00C1C1"/>
<g clip-path="url(#clip0_437_777)">
<path d="M26.8656 4.25307C25.3749 5.01245 25.1124 7.11245 26.3687 8.20933C26.5562 8.37807 26.8093 8.54683 26.9312 8.5937L27.1562 8.68745V11.125V13.5625H25.6093H24.0718L24.0437 10.9843C24.0156 8.52808 24.0062 8.4062 23.8187 8.2187C23.7156 8.11558 23.4812 8.00307 23.3031 7.97495C23.0406 7.92808 22.9187 7.96558 22.6749 8.17183L22.3749 8.42495V10.9937V13.5625H20.8281H19.2812V10.6749C19.2718 7.66558 19.2343 7.32808 18.8406 6.88745C18.4937 6.4937 17.9874 6.3437 16.9187 6.3437H15.9249L15.6812 5.92183C15.3999 5.45308 14.8187 5.00307 14.2656 4.85308C12.4093 4.33745 10.7218 6.03432 11.2562 7.8812C11.8562 9.93433 14.7624 10.2531 15.7281 8.37807L15.9062 8.0312H16.7499H17.5937V10.7875V13.5437L16.7781 13.5812C15.7749 13.6281 15.1187 13.9 14.5093 14.5093C13.8999 15.1187 13.6281 15.775 13.5812 16.7687L13.5437 17.5937H10.7874H8.03118V16.75V15.9062L8.37805 15.7281C9.83118 14.9781 10.0562 12.8968 8.8093 11.7718C7.82493 10.8906 6.2218 10.9937 5.36868 11.9874C4.37493 13.1406 4.6468 14.9312 5.9218 15.6812L6.34368 15.925V16.9187C6.34368 17.9875 6.49368 18.4937 6.88743 18.8406C7.32805 19.2343 7.66555 19.2718 10.6843 19.2812H13.5624V20.8281V22.375H10.9937H8.42493L8.1718 22.675C7.96555 22.9187 7.92805 23.0406 7.97493 23.3031C8.00305 23.4812 8.11555 23.7156 8.21868 23.8187C8.40618 24.0062 8.52805 24.0156 10.9843 24.0437L13.5624 24.0718V25.6093V27.1562H11.1249H8.68743L8.59368 26.9312C8.46243 26.575 7.93743 26.0406 7.5343 25.825C7.06555 25.5906 6.24055 25.5062 5.71555 25.6468C4.29055 26.0312 3.56868 27.7656 4.26243 29.1343C5.01243 30.625 7.11243 30.8875 8.2093 29.6312C8.37805 29.4437 8.5468 29.1906 8.59368 29.0687L8.68743 28.8437H11.1249H13.5624V30.3906V31.9281L10.9843 31.9562C8.52805 31.9843 8.40618 31.9937 8.21868 32.1812C8.11555 32.2843 8.00305 32.5187 7.97493 32.6968C7.92805 32.9593 7.96555 33.0812 8.1718 33.325L8.42493 33.625H10.9937H13.5624V35.1718V36.7187H10.6843C7.66555 36.7281 7.32805 36.7656 6.88743 37.1593C6.49368 37.5062 6.34368 38.0125 6.34368 39.0812V40.075L5.9218 40.3187C5.2468 40.7218 4.74993 41.5843 4.74993 42.3906C4.74993 43.7218 5.81868 44.8093 7.13118 44.8187C7.86243 44.8187 8.34055 44.6593 8.8093 44.2281C10.0562 43.1031 9.83118 41.0218 8.38743 40.2718L8.03118 40.0937V39.25V38.4062H10.7874H13.5437L13.5812 39.2312C13.6281 40.225 13.8999 40.8812 14.5093 41.4906C15.1187 42.1 15.7749 42.3718 16.7781 42.4187L17.5937 42.4562V45.2125V47.9687H16.7499H15.9062L15.7281 47.6125C14.9781 46.1593 12.8968 45.9437 11.7624 47.2C10.8812 48.175 10.9843 49.7781 11.9874 50.6312C13.1499 51.625 14.9312 51.3531 15.6812 50.0593L15.9249 49.6562H16.9187C17.9874 49.6562 18.4937 49.5062 18.8406 49.1125C19.2343 48.6718 19.2718 48.3343 19.2812 45.3156V42.4375H20.8281H22.3749V45.0062V47.575L22.6749 47.8281C22.9187 48.0343 23.0406 48.0718 23.3031 48.025C23.4812 47.9968 23.7156 47.8843 23.8187 47.7812C24.0062 47.5937 24.0156 47.4718 24.0437 45.0156L24.0718 42.4375H25.6093H27.1562V44.875V47.3125L26.9312 47.4062C26.8093 47.4531 26.5562 47.6218 26.3687 47.7906C25.1124 48.8875 25.3749 50.9875 26.8656 51.7468C28.2343 52.4312 29.9687 51.7093 30.3531 50.2843C30.4937 49.7593 30.4093 48.9343 30.1749 48.4656C29.9593 48.0625 29.4249 47.5375 29.0687 47.4062L28.8437 47.3125V44.875V42.4375H30.3906H31.9281L31.9562 45.0156C31.9843 47.4718 31.9937 47.5937 32.1812 47.7812C32.2843 47.8843 32.5187 47.9968 32.6968 48.025C32.9593 48.0718 33.0812 48.0343 33.3249 47.8281L33.6249 47.575V45.0062V42.4375H35.1718H36.7187V45.3156C36.7281 48.3343 36.7656 48.6718 37.1593 49.1125C37.5062 49.5062 38.0124 49.6562 39.0812 49.6562H40.0749L40.3187 50.0593C41.0687 51.3531 42.8499 51.625 44.0124 50.6312C45.0156 49.7781 45.1187 48.175 44.2374 47.2C43.1031 45.9437 41.0218 46.1593 40.2718 47.6218L40.0937 47.9687H39.2499H38.4062V45.2125V42.4562L39.2312 42.4187C40.2249 42.3718 40.8812 42.1 41.4906 41.4906C42.0999 40.8812 42.3718 40.225 42.4187 39.2312L42.4562 38.4062H45.2124H47.9687V39.25V40.0937L47.6218 40.2718C46.1687 41.0218 45.9437 43.1031 47.1906 44.2281C48.1749 45.1093 49.778 45.0062 50.6312 44.0125C51.6249 42.85 51.3531 41.0687 50.0593 40.3187L49.6562 40.075V39.0812C49.6562 38.0125 49.5062 37.5062 49.1124 37.1593C48.6718 36.7656 48.3343 36.7281 45.3249 36.7187H42.4374V35.1718V33.625H45.0062H47.5749L47.8281 33.325C48.0343 33.0812 48.0718 32.9593 48.0249 32.6968C47.9968 32.5187 47.8843 32.2843 47.7812 32.1812C47.5937 31.9937 47.4718 31.9843 45.0156 31.9562L42.4374 31.9281V30.3906V28.8437H44.8749H47.3124L47.4062 29.0687C47.4531 29.1906 47.6218 29.4437 47.7906 29.6312C48.8874 30.8875 50.9874 30.625 51.7468 29.1343C52.4312 27.7656 51.7093 26.0312 50.2843 25.6468C49.7593 25.5062 48.9343 25.5906 48.4655 25.825C48.0624 26.0406 47.5374 26.575 47.4062 26.9312L47.3124 27.1562H44.8749H42.4374V25.6093V24.0718L45.0156 24.0437C47.4718 24.0156 47.5937 24.0062 47.7812 23.8187C47.8843 23.7156 47.9968 23.4812 48.0249 23.3031C48.0718 23.0406 48.0343 22.9187 47.8281 22.675L47.5749 22.375H45.0062H42.4374V20.8281V19.2812H45.3249C48.3343 19.2718 48.6718 19.2343 49.1124 18.8406C49.5062 18.4937 49.6562 17.9875 49.6562 16.9187V15.925L50.0593 15.6812C52.1405 14.4625 51.2687 11.1906 48.8687 11.1812C48.1374 11.1812 47.6593 11.3406 47.1906 11.7718C45.9437 12.8968 46.1687 14.9781 47.6218 15.7281L47.9687 15.9062V16.75V17.5937H45.2124H42.4562L42.4187 16.7687C42.3249 14.8656 41.1343 13.6749 39.2312 13.5812L38.4062 13.5437V10.7875V8.0312H39.2499H40.0937L40.2718 8.37807C41.0218 9.8312 43.1031 10.0562 44.2281 8.80933C44.6593 8.34058 44.8187 7.86245 44.8187 7.1312C44.8093 5.54683 43.2906 4.42183 41.7343 4.85308C41.1812 5.00307 40.5999 5.45308 40.3187 5.92183L40.0749 6.3437H39.0812C38.0124 6.3437 37.5062 6.4937 37.1593 6.88745C36.7656 7.32808 36.7281 7.66558 36.7187 10.6749V13.5625H35.1718H33.6249V10.9937V8.42495L33.3249 8.17183C33.0812 7.96558 32.9593 7.92808 32.6968 7.97495C32.5187 8.00307 32.2843 8.11558 32.1812 8.2187C31.9937 8.4062 31.9843 8.52808 31.9562 10.9843L31.9281 13.5625H30.3906H28.8437V11.125V8.68745L29.0687 8.5937C29.4249 8.46245 29.9593 7.93745 30.1749 7.53432C30.4093 7.06557 30.4937 6.24058 30.3531 5.71558C30.0812 4.70308 29.1156 3.99995 27.9999 3.99995C27.5031 3.99995 27.2687 4.0562 26.8656 4.25307ZM28.5156 5.92183C28.8062 6.20308 28.8156 6.54058 28.5343 6.8687C28.3749 7.0562 28.2249 7.12183 27.9999 7.12183C27.6343 7.12183 27.2499 6.74683 27.2499 6.3812C27.2499 6.05308 27.6437 5.68745 27.9999 5.68745C28.1781 5.68745 28.3749 5.77183 28.5156 5.92183ZM14.1531 6.72808C14.3968 7.02808 14.3593 7.5062 14.0687 7.74058C13.3093 8.34058 12.4093 7.2812 13.1406 6.6437C13.4499 6.3812 13.8812 6.40932 14.1531 6.72808ZM42.8687 6.65308C43.0562 6.81245 43.1218 6.96245 43.1218 7.18745C43.1218 7.55308 42.7468 7.93745 42.3999 7.93745C42.0531 7.93745 41.6874 7.59058 41.6874 7.27183C41.6874 6.54058 42.3437 6.20308 42.8687 6.65308ZM7.73118 13.15C7.99368 13.4406 7.99368 13.75 7.74055 14.0687C7.20618 14.7437 6.09993 13.9468 6.57805 13.225C6.87805 12.7656 7.3468 12.7374 7.73118 13.15ZM49.3562 13.1593C49.778 13.6187 49.4124 14.3125 48.7656 14.3125C48.1656 14.3125 47.8374 13.5156 48.278 13.1218C48.6812 12.7562 48.9999 12.7656 49.3562 13.1593ZM39.9062 15.4656C40.1874 15.6156 40.3843 15.8125 40.5343 16.0937L40.7499 16.4968V28V39.5031L40.5343 39.9062C40.3843 40.1875 40.1874 40.3843 39.9062 40.5343L39.5031 40.75H27.9999H16.4968L16.0937 40.5343C15.8124 40.3843 15.6156 40.1875 15.4656 39.9062L15.2499 39.5031V28V16.4968L15.4656 16.0937C15.6156 15.8125 15.8124 15.6156 16.0937 15.4656L16.4968 15.25H27.9999H39.5031L39.9062 15.4656ZM6.86868 27.4656C7.21555 27.775 7.21555 28.225 6.86868 28.5343C6.72805 28.6468 6.51243 28.75 6.38118 28.75C6.05305 28.75 5.68743 28.3562 5.68743 28C5.68743 27.6437 6.05305 27.25 6.38118 27.25C6.51243 27.25 6.72805 27.3531 6.86868 27.4656ZM50.078 27.4843C50.2281 27.625 50.3124 27.8218 50.3124 28C50.3124 28.3562 49.9468 28.75 49.6187 28.75C49.2531 28.75 48.8781 28.3656 48.8781 28C48.8781 27.775 48.9437 27.625 49.1312 27.4656C49.4593 27.1843 49.7968 27.1937 50.078 27.4843ZM7.74055 41.9312C7.99368 42.2593 7.9843 42.55 7.7218 42.8687C7.41243 43.225 6.96243 43.2156 6.64368 42.8593C6.47493 42.6531 6.43743 42.5312 6.47493 42.3062C6.5968 41.6875 7.37493 41.4625 7.74055 41.9312ZM49.2718 41.8468C49.5905 42.1187 49.6187 42.55 49.3562 42.8593C49.0562 43.1968 48.6249 43.2156 48.2968 42.9062C48.0062 42.6343 47.9968 42.2687 48.2593 41.9312C48.4937 41.6406 48.9718 41.6031 49.2718 41.8468ZM14.0687 48.2593C14.5374 48.625 14.3124 49.4031 13.6937 49.525C13.4687 49.5625 13.3468 49.525 13.1406 49.3562C12.8031 49.0562 12.7843 48.625 13.0937 48.2968C13.3656 48.0062 13.7312 47.9968 14.0687 48.2593ZM42.9062 48.2968C43.2155 48.625 43.1968 49.0562 42.8593 49.3562C42.3718 49.7687 41.6874 49.4218 41.6874 48.7656C41.6874 48.1468 42.4749 47.8375 42.9062 48.2968ZM28.5437 49.15C28.6562 49.2812 28.7499 49.4875 28.7499 49.6187C28.7499 49.9468 28.3562 50.3125 27.9999 50.3125C27.6531 50.3125 27.2499 49.9468 27.2499 49.6375C27.2499 49.3562 27.4937 49.0093 27.7562 48.9062C28.0281 48.7937 28.2906 48.8781 28.5437 49.15Z" fill="#EF615A"/>
<path d="M22.4969 20.9687C22.3375 21.0625 22.15 21.2312 22.0938 21.3437C21.9438 21.6156 19.1875 34.0656 19.1875 34.45C19.1875 34.8906 19.5344 35.2188 20.0125 35.2188C20.6406 35.2188 20.725 35.05 21.2688 32.6125L21.7469 30.4375L23.2 30.4562L24.6531 30.4844L25.15 32.6781C25.6844 35.125 25.7406 35.2188 26.4156 35.2188C26.8281 35.2188 27.1188 34.9937 27.2125 34.6094C27.25 34.4594 26.7813 32.1531 25.9 28.2062C25.1406 24.8125 24.4844 21.8781 24.4281 21.7C24.3813 21.5125 24.1938 21.2312 24.0063 21.0719C23.7438 20.8375 23.6031 20.7812 23.2375 20.7812C22.9656 20.7812 22.6844 20.8562 22.4969 20.9687ZM23.7812 26.5187C24.0344 27.7 24.25 28.675 24.25 28.7031C24.25 28.7781 22.1875 28.7594 22.1875 28.675C22.1781 28.6375 22.4031 27.5875 22.675 26.3312C22.9938 24.8875 23.2 24.1187 23.2375 24.2219C23.275 24.3156 23.5188 25.3469 23.7812 26.5187Z" fill="#EF615A"/>
<path d="M29.1437 20.8469C28.975 20.9125 28.75 21.3812 28.75 21.6625C28.75 21.7937 28.8531 22.0187 28.975 22.1594C29.1906 22.4125 29.2375 22.4219 30.1937 22.45L31.1875 22.4875V28V33.5125L30.1937 33.55C29.2375 33.5781 29.1906 33.5875 28.975 33.8406C28.8531 33.9812 28.75 34.2062 28.75 34.3375C28.75 34.6375 28.9844 35.0875 29.1719 35.1625C29.2562 35.1906 30.55 35.2188 32.0406 35.2188H34.7594L34.9844 34.9844C35.3406 34.6375 35.3125 34.0938 34.9281 33.775C34.6656 33.55 34.5719 33.5312 33.7562 33.5312H32.875V28V22.4687H33.7562C34.5719 22.4687 34.6656 22.45 34.9281 22.225C35.3125 21.9062 35.3406 21.3625 34.9844 21.0156L34.7594 20.7812L32.0125 20.7906C30.5031 20.7906 29.2094 20.8187 29.1437 20.8469Z" fill="#EF615A"/>
</g>
<defs>
<clipPath id="clip0_437_777">
<rect width="48" height="48" fill="white" transform="translate(4 4)"/>
</clipPath>
</defs>
</svg>
