<svg width="48" height="48" viewBox="0 0 48 48" fill="none" xmlns="http://www.w3.org/2000/svg">
<path opacity="0.5" d="M39.7317 24.746C39.7317 32.8813 32.5956 41 24.4223 41C16.249 41 7 34.913 7 26.7778C10.1335 13.0635 19.7496 9 27.9229 9C36.0962 9 41.2627 11.5397 39.7317 24.746Z" fill="#00C1C1"/>
<path d="M5.55938 0.88125C4.6125 1.19062 3.77813 1.94062 3.3 2.90625C3.06563 3.375 3.04688 3.51562 3.04688 4.5C3.04688 5.50312 3.06563 5.61562 3.31875 6.14062C3.675 6.8625 4.3875 7.575 5.10938 7.93125C5.63438 8.18437 5.74688 8.20312 6.75 8.20312C7.75313 8.20312 7.86563 8.18437 8.39062 7.93125C9.1125 7.575 9.825 6.8625 10.1813 6.14062C10.4344 5.61562 10.4531 5.50312 10.4531 4.5C10.4531 3.49687 10.4344 3.38437 10.1813 2.85938C9.825 2.1375 9.1125 1.425 8.39062 1.07812C7.90313 0.834375 7.71563 0.796875 6.89063 0.778125C6.29063 0.759375 5.8125 0.796875 5.55938 0.88125ZM7.575 2.49375C9.00938 3.08437 9.36563 4.99687 8.24063 6.06562C7.81875 6.46875 7.33125 6.65625 6.73125 6.65625C4.8375 6.64687 3.88125 4.3875 5.18438 3.00937C5.78438 2.38125 6.7875 2.16562 7.575 2.49375Z" fill="#EF615A"/>
<path d="M15.6281 1.05C15.5063 1.21875 15.0375 1.99687 14.5875 2.775C14.0156 3.77812 13.7812 4.275 13.7812 4.5C13.7812 4.725 14.0156 5.22187 14.5875 6.225C15.0375 7.00312 15.5063 7.78125 15.6281 7.94062L15.8531 8.25H18H20.1469L20.3719 7.94062C20.4938 7.78125 20.9625 7.00312 21.4125 6.225C21.9844 5.22187 22.2188 4.725 22.2188 4.5C22.2188 4.275 21.9844 3.77812 21.4125 2.775C20.9625 1.99687 20.4938 1.21875 20.3719 1.05L20.1469 0.75H18H15.8531L15.6281 1.05ZM19.8938 3.39375L20.5406 4.49062L19.8938 5.59687L19.2563 6.70312H18H16.7438L16.1063 5.59687L15.4688 4.5L15.9938 3.58125C16.2844 3.08437 16.5844 2.57812 16.6594 2.45625C16.7812 2.25 16.8281 2.25 18.0188 2.26875L19.2563 2.29688L19.8938 3.39375Z" fill="#EF615A"/>
<path d="M26.4375 0.9375C26.2594 1.11562 26.25 1.24687 26.25 4.5C26.25 7.75312 26.2594 7.88437 26.4375 8.0625C26.6156 8.24062 26.7469 8.25 30 8.25C33.2531 8.25 33.3844 8.24062 33.5625 8.0625C33.7406 7.88437 33.75 7.75312 33.75 4.5C33.75 1.24687 33.7406 1.11562 33.5625 0.9375C33.3844 0.759375 33.2531 0.75 30 0.75C26.7469 0.75 26.6156 0.759375 26.4375 0.9375ZM32.25 4.5V6.75H30H27.75V4.5V2.25H30H32.25V4.5Z" fill="#EF615A"/>
<path d="M40.8004 0.9C40.6692 0.984375 39.966 2.27812 39.0473 4.13437C37.416 7.39687 37.3129 7.6875 37.6879 8.0625C37.866 8.24062 37.9973 8.25 41.2504 8.25C44.5035 8.25 44.6348 8.24062 44.8129 8.0625C44.991 7.88437 45.0379 7.725 45.0098 7.40625C45.0004 7.33125 44.2973 5.84062 43.4348 4.10625C41.8223 0.8625 41.7473 0.75 41.2223 0.75C41.1004 0.75 40.9129 0.815625 40.8004 0.9ZM42.1223 5.01562C42.5723 5.91562 42.9379 6.675 42.9379 6.70312C42.9379 6.73125 42.1785 6.75 41.2504 6.75C40.3223 6.75 39.5629 6.73125 39.5629 6.70312C39.5629 6.60937 41.2035 3.375 41.2504 3.375C41.2785 3.375 41.6723 4.11562 42.1223 5.01562Z" fill="#EF615A"/>
<path d="M6 11.25V12H6.75H7.5V11.25V10.5H6.75H6V11.25Z" fill="#EF615A"/>
<path d="M17.25 11.25V12H18H18.75V11.25V10.5H18H17.25V11.25Z" fill="#EF615A"/>
<path d="M29.25 11.25V12H30H30.75V11.25V10.5H30H29.25V11.25Z" fill="#EF615A"/>
<path d="M40.5 11.25V12H41.25H42V11.25V10.5H41.25H40.5V11.25Z" fill="#EF615A"/>
<path d="M6 17.025C6 18.9844 6.0375 20.6156 6.08438 20.7C6.13125 20.7844 7.81875 21.6844 9.83438 22.6875L13.5 24.5156V26.1281V27.75H14.25H15V25.725C15 24.6187 14.9625 23.6344 14.9156 23.55C14.8688 23.4656 13.1813 22.5656 11.1656 21.5625L7.5 19.7344V16.6219V13.5H6.75H6V17.025Z" fill="#EF615A"/>
<path d="M17.25 16.275C17.25 17.7937 17.2875 19.1156 17.3344 19.2C17.3813 19.2844 18.0563 19.6781 18.8344 20.0625L20.25 20.7562V23.1281V25.5H21H21.75V22.725C21.75 21.2062 21.7125 19.8844 21.6656 19.8C21.6188 19.7156 20.9438 19.3219 20.1656 18.9375L18.75 18.2437V15.8719V13.5H18H17.25V16.275Z" fill="#EF615A"/>
<path d="M29.25 15.8719V18.2437L27.8344 18.9375C27.0563 19.3219 26.3813 19.7156 26.3344 19.8C26.2875 19.8844 26.25 21.2062 26.25 22.725V25.5H27H27.75V23.1281V20.7562L29.1656 20.0625C29.9438 19.6781 30.6188 19.2844 30.6656 19.2C30.7125 19.1156 30.75 17.7937 30.75 16.275V13.5H30H29.25V15.8719Z" fill="#EF615A"/>
<path d="M40.5 16.6219V19.7344L36.8344 21.5625C34.8188 22.5656 33.1313 23.4656 33.0844 23.55C33.0375 23.6344 33 24.6187 33 25.725V27.75H33.75H34.5V26.1281V24.5156L38.1656 22.6875C40.1813 21.6844 41.8688 20.7844 41.9156 20.7C41.9625 20.6156 42 18.9844 42 17.025V13.5H41.25H40.5V16.6219Z" fill="#EF615A"/>
<path d="M22.2375 27.9094C21.8156 28.1157 21.4594 28.6032 21.4031 29.0625C21.3563 29.3719 21.3 29.475 21.1031 29.55C20.9719 29.6063 20.6063 29.7656 20.2969 29.9063L19.725 30.1594L19.4063 29.9438C19.0031 29.6625 18.4219 29.5781 17.9156 29.7188C17.6063 29.8032 17.2969 30.0282 16.6125 30.6844C15.3281 31.9219 15.1219 32.5407 15.6281 33.5344L15.8719 34.0313L15.675 34.4813C15.5625 34.725 15.4125 35.0719 15.3375 35.2594C15.225 35.5594 15.1594 35.6063 14.8219 35.6532C14.1 35.7469 13.5844 36.3094 13.4531 37.1344L13.4062 37.4719L12.3938 37.2938C9.7875 36.825 7.54688 36.0563 6.98438 35.4375C6.84375 35.2782 6.83438 35.2313 6.94688 35.1C7.48125 34.4531 9.74063 33.675 12.5156 33.1782C13.1344 33.075 13.65 32.9719 13.6594 32.9719C13.6875 32.9344 13.4344 31.5 13.3875 31.4532C13.3219 31.3875 10.9781 31.8282 9.825 32.1188C7.51875 32.7 5.99063 33.4875 5.48438 34.35L5.25 34.7531V39.0188V43.2844L5.5125 43.6688C6.72188 45.4594 11.5031 46.6688 19.3125 47.1563C21.2812 47.2781 26.6906 47.2781 28.6406 47.1563C36.4969 46.6688 41.2781 45.4688 42.4875 43.6688L42.75 43.2844V39V34.725L42.4781 34.3032C42.0094 33.5532 40.7063 32.8407 38.85 32.2969C37.9219 32.025 35.5031 31.5282 34.9219 31.4813L34.5563 31.4532L34.4438 32.2032C34.3875 32.6157 34.3406 32.9625 34.35 32.9719C34.35 32.9719 34.8656 33.075 35.4844 33.1782C38.2594 33.675 40.5188 34.4531 41.0531 35.1C41.1656 35.2313 41.1562 35.2875 40.9781 35.475C40.4344 36.0563 38.1375 36.8438 35.7656 37.2656C35.3063 37.3406 34.8281 37.4344 34.7156 37.4625C34.5188 37.5 34.5 37.4625 34.5 37.1625C34.5 36.4219 33.9094 35.7469 33.1875 35.6532C32.8781 35.6063 32.775 35.55 32.7 35.3532C32.6438 35.2219 32.4844 34.8563 32.3438 34.5469L32.0906 33.9844L32.325 33.6375C32.6063 33.2063 32.6906 32.5875 32.5313 32.1C32.3625 31.5844 30.7688 29.9625 30.2156 29.7563C29.7 29.5594 29.0719 29.625 28.6125 29.925L28.2656 30.1594L27.7031 29.9063C27.3938 29.7656 27.0281 29.6063 26.8969 29.55C26.7 29.475 26.6438 29.3719 26.5969 29.0625C26.5406 28.5938 26.1375 28.05 25.725 27.8813C25.2469 27.6844 22.65 27.7031 22.2375 27.9094ZM25.1156 29.7938C25.1906 30.0938 25.3594 30.3938 25.5375 30.5813C25.8375 30.8813 27.2906 31.5375 27.9656 31.6875C28.3969 31.7719 28.9969 31.65 29.3438 31.4063L29.5969 31.2282L30.3188 31.9594L31.0406 32.6813L30.8438 32.925C30.5531 33.3 30.4219 34.0031 30.5813 34.4157C31.4063 36.6094 31.6031 36.9094 32.4469 37.1344C32.8406 37.2375 32.9625 37.3125 32.9813 37.4719C33.0188 37.6969 32.9344 37.7156 31.3219 37.875C29.9344 38.0063 30 38.0156 30 37.6594C30 37.1438 29.7375 36.2813 29.3344 35.4563C28.7812 34.3313 27.8719 33.4313 26.7 32.8688C25.6688 32.3719 25.1156 32.25 24 32.25C22.8844 32.25 22.3313 32.3719 21.3 32.8688C20.0813 33.45 19.2 34.3313 18.6188 35.55C18.2156 36.4031 18 37.1344 18 37.6875C18 38.0156 18.0469 38.0063 16.6781 37.875C15.0656 37.7156 14.9813 37.6969 15.0188 37.4719C15.0375 37.3219 15.1688 37.2375 15.5438 37.125C16.4062 36.8813 16.6125 36.5813 17.4188 34.4157C17.5688 34.0125 17.4469 33.2813 17.1562 32.9063L16.9781 32.6719L17.6906 31.95L18.4031 31.2282L18.6469 31.4063C19.0313 31.6782 19.6219 31.8 20.0344 31.6969C20.7656 31.5094 22.1813 30.8719 22.4719 30.5813C22.6313 30.4219 22.7906 30.15 22.8281 29.9813C22.9969 29.2125 22.95 29.2407 24.0188 29.2688L24.9844 29.2969L25.1156 29.7938ZM25.3031 34.0219C26.6813 34.4531 27.8531 35.6344 28.2563 37.0219C28.3406 37.3032 28.4062 37.65 28.4062 37.7907C28.4062 38.025 28.3688 38.0438 27.9 38.1C27.2438 38.1844 20.5594 38.1844 20.0156 38.1C19.6313 38.0438 19.5938 38.0156 19.5938 37.7907C19.5938 37.3969 19.8656 36.5625 20.1656 36.0375C20.4563 35.5219 21.2156 34.7625 21.7781 34.4157C22.7156 33.8438 24.2063 33.675 25.3031 34.0219ZM7.79063 37.725C9.74063 38.5313 12.7594 39.0938 17.6719 39.5719C19.2844 39.7313 26.7 39.7875 28.6969 39.6656C34.5563 39.3 38.3906 38.5781 41.1375 37.3406C41.2219 37.3032 41.25 37.875 41.25 40.0219V42.7594L41.025 42.9844C40.2938 43.7156 37.2563 44.5969 33.75 45.0844C28.0312 45.8813 19.9688 45.8813 14.25 45.0844C10.7438 44.5969 7.70625 43.7156 6.975 42.9844L6.75 42.7594V40.0219C6.75 37.875 6.77813 37.3032 6.87188 37.3406C6.92813 37.3781 7.35 37.5469 7.79063 37.725Z" fill="#EF615A"/>
</svg>
