<svg width="56" height="56" viewBox="0 0 56 56" fill="none" xmlns="http://www.w3.org/2000/svg">
<path opacity="0.5" d="M43.7317 28.746C43.7317 36.8813 36.5956 45 28.4223 45C20.249 45 11 38.913 11 30.7778C14.1335 17.0635 23.7496 13 31.9229 13C40.0962 13 45.2627 15.5397 43.7317 28.746Z" fill="#00C1C1"/>
<path d="M29.7156 6.42812C29.1438 6.63437 28.4688 7.08437 28.1969 7.43125C27.925 7.76875 27.9344 8.34062 28.2063 8.59375C28.5344 8.89375 29.0219 8.84687 29.4813 8.45312C29.9875 8.0125 30.4188 7.84375 31.0188 7.84375C32.2281 7.85312 33.1563 8.8 33.1563 10.0187C33.1469 11.95 30.7656 12.8875 29.4344 11.4906C29.0781 11.1156 28.8906 10.6844 28.8063 10.0656C28.7219 9.48438 28.4875 9.25 28 9.25C27.4469 9.25 27.25 9.48438 27.25 10.1687C27.25 10.8812 27.4375 11.5 27.85 12.1094L28.1781 12.6062L26.4813 15.0344C25.5531 16.3656 24.7844 17.4625 24.775 17.4719C24.775 17.4719 23.3125 17.0125 21.5313 16.4312L18.2969 15.3906L18.2406 14.875C18.0719 13.3094 16.8625 12.25 15.25 12.25C14.35 12.25 13.6844 12.5125 13.0938 13.0938C12.4469 13.75 12.2219 14.3875 12.2688 15.4375C12.325 16.5156 12.7 17.2 13.5813 17.8281L13.8438 18.0156L12.0156 26.6406C11.0125 31.3844 10.1406 35.4812 10.0844 35.7437L9.97188 36.2219L9.41875 36.2781C8.29375 36.3812 7.12188 37.2344 6.56875 38.3594C6.31563 38.8844 6.29688 38.9969 6.29688 40C6.29688 41.0031 6.31563 41.1156 6.56875 41.6406C6.925 42.3625 7.6375 43.075 8.35938 43.4312C8.88438 43.6844 8.99688 43.7031 10 43.7031C10.9844 43.7031 11.125 43.6844 11.5938 43.45C12.3063 43.0937 12.8406 42.625 13.2438 41.9594C13.4313 41.6594 13.5906 41.4062 13.6 41.4062C13.6094 41.4062 14.0969 41.4906 14.6875 41.5938C15.2781 41.6969 15.8969 41.7812 16.0563 41.7812C16.4594 41.7812 16.75 41.4437 16.75 40.9656C16.75 40.3281 16.75 40.3281 14.0594 39.8594C13.7969 39.8125 13.75 39.7656 13.75 39.55C13.75 39.4094 13.7125 39.1656 13.6656 39.0156L13.5906 38.7344L18.6156 35.6219C23.3125 32.7156 23.65 32.5187 23.8281 32.65C24.4 33.0719 24.85 33.2031 25.75 33.2031C26.5188 33.2031 26.7063 33.1656 27.1281 32.9594L27.6063 32.725L35.05 38.5094C39.1375 41.6875 42.4844 44.35 42.4844 44.4156C42.4844 44.5 42.3906 44.5375 42.2031 44.5281C42.0531 44.5187 37.0563 43.6937 31.1125 42.7094L20.3031 40.9094L20.05 41.0969C19.8531 41.2469 19.7875 41.3781 19.7688 41.6969C19.7125 42.4937 18.9156 42.3062 30.9531 44.3031C36.8875 45.2875 41.8469 46.1219 41.9781 46.15C42.1938 46.1875 42.2313 46.2531 42.2781 46.675C42.4094 47.7437 43.2812 48.8969 44.3594 49.4312C44.8844 49.6844 44.9969 49.7031 46 49.7031C47.0031 49.7031 47.1156 49.6844 47.6406 49.4312C48.3625 49.075 49.075 48.3625 49.4313 47.6406C49.6844 47.1156 49.7031 47.0031 49.7031 46C49.7031 44.9969 49.6844 44.8844 49.4313 44.3594C48.8688 43.2156 47.6875 42.3719 46.5344 42.2781L45.9438 42.2312L44.5094 36.0719C43.3938 31.2906 43.0375 29.875 42.8781 29.7062C42.5125 29.3125 41.6875 29.4906 41.5563 30.0062C41.5188 30.1562 42.0156 32.4437 42.9062 36.2687C43.675 39.5875 44.3125 42.3625 44.3125 42.4375C44.3125 42.5781 43.75 43 43.5625 43C43.5063 43 40.1219 40.4031 36.0344 37.225C30.8875 33.2219 28.6188 31.3937 28.6375 31.2906C28.6562 31.2062 28.7031 30.8312 28.7313 30.4562L28.7969 29.7625L33.5688 27.6156L38.3313 25.4781L38.7438 25.8062C39.1844 26.1719 39.9531 26.5 40.3563 26.5C40.6094 26.5 40.6281 26.5281 40.8344 27.4094C41.0875 28.4688 41.2844 28.75 41.7531 28.75C42.5594 28.75 42.7094 28.3937 42.4188 27.1281L42.2125 26.1906L42.4375 26.0406C42.8125 25.8062 43.2719 25.2906 43.4875 24.8687C43.7969 24.2781 43.8344 23.0594 43.5625 22.3469C43.2906 21.625 42.625 20.9594 41.9031 20.6875C41.4438 20.5094 41.2281 20.4906 40.4969 20.5281L39.6344 20.5656L36.7563 16.5812L33.8688 12.5969L34.0844 12.2594C34.6469 11.35 34.7031 11.1344 34.7031 10C34.7031 8.99687 34.6844 8.88437 34.4313 8.35938C34.075 7.6375 33.3625 6.925 32.6406 6.57812C32.1531 6.33437 31.9563 6.29688 31.1406 6.26875C30.4 6.25 30.1 6.2875 29.7156 6.42812ZM35.4813 17.5844C37.7031 20.6687 38.3594 21.6344 38.275 21.7094C38.1906 21.7844 37.3844 21.5687 35.3969 20.9219C33.8781 20.4344 32.5469 20.0312 32.4438 20.0312C32.3313 20.0312 32.1344 20.1156 31.9938 20.2281C31.6844 20.4719 31.6469 21.1281 31.9281 21.3812C32.0313 21.475 33.3719 21.9531 34.9094 22.4594L37.7031 23.3687V23.6781V23.9875L32.9406 26.1344L28.1688 28.2719L27.7281 27.925L27.2781 27.5687L28.1688 24.1C28.6656 22.1969 29.0781 20.6219 29.0875 20.6031C29.1063 20.5844 29.3125 20.6406 29.5563 20.725C30.4563 21.025 31 20.8 31 20.125C31 19.6469 30.8219 19.4594 30.1469 19.225C29.6875 19.075 29.5469 18.9812 29.5656 18.8594C29.575 18.7656 29.8656 17.575 30.2219 16.2156L30.8594 13.75L31.3281 13.7406C31.5813 13.7312 31.9 13.6937 32.0313 13.6562C32.1625 13.6187 32.3313 13.5812 32.4156 13.5719C32.5188 13.5625 33.5969 14.9781 35.4813 17.5844ZM15.9813 14.0312C17.2 14.7719 16.675 16.6562 15.25 16.6562C14.9969 16.6562 14.7063 16.5812 14.5188 16.4688C13.3 15.7281 13.825 13.8438 15.25 13.8438C15.5031 13.8438 15.7938 13.9187 15.9813 14.0312ZM28.4969 16.4406L27.9625 18.5031L27.2125 18.2781C26.7906 18.1469 26.4438 18.0344 26.425 18.0156C26.4062 18.0062 26.9781 17.1625 27.6813 16.15C28.3938 15.1469 28.9844 14.3312 29.0031 14.35C29.0219 14.3687 28.7969 15.3062 28.4969 16.4406ZM20.9688 17.95C22.4875 18.4375 23.7438 18.85 23.7625 18.8594C23.7812 18.8687 23.2281 19.6844 22.5438 20.6687C21.8594 21.6437 21.2875 22.4406 21.2781 22.4312C21.2688 22.4219 20.4344 21.2406 19.4313 19.7969C18.0063 17.7625 17.6219 17.1531 17.7063 17.0594C17.7625 16.9844 17.8844 16.9562 18.0063 16.9937C18.1188 17.0312 19.45 17.4531 20.9688 17.95ZM18.2688 20.9687C19.3375 22.4875 20.2094 23.7906 20.2188 23.8562C20.2188 24.0156 11.7531 36.1187 11.7156 36.0062C11.6969 35.9406 15.1 19.6656 15.3906 18.4656C15.4375 18.2687 15.7563 18.1656 16.1875 18.1937C16.2625 18.2031 17.2 19.45 18.2688 20.9687ZM26.5469 19.75C27.0625 19.9187 27.4938 20.0687 27.5125 20.0781C27.5312 20.0969 27.1281 21.7094 26.6219 23.6687L25.7031 27.2312L25.2344 27.2781C24.9813 27.3062 24.7375 27.3062 24.7 27.2875C24.6719 27.2687 24.1094 26.4906 23.4625 25.5625L22.2813 23.875L23.8469 21.625C24.7188 20.3875 25.4688 19.3937 25.5156 19.4125C25.5719 19.4312 26.0312 19.5812 26.5469 19.75ZM41.4813 22.2812C42.7 23.0219 42.175 24.9062 40.75 24.9062C39.9531 24.9062 39.3438 24.2969 39.3438 23.5C39.3438 22.7031 39.9531 22.0937 40.75 22.0937C41.0031 22.0937 41.2938 22.1687 41.4813 22.2812ZM22.4781 26.9969L23.3875 28.3L23.1625 28.6281C22.8438 29.0969 22.7313 29.5938 22.7594 30.4187L22.7781 31.1406L18.8031 33.5969C12.4469 37.5344 12.9438 37.2437 13.15 36.925C13.2438 36.775 15.1188 34.0937 17.3031 30.9719C21.1469 25.4875 21.2875 25.3 21.4281 25.4969C21.5125 25.6094 21.9813 26.2844 22.4781 26.9969ZM26.4813 29.0312C27.7 29.7719 27.175 31.6562 25.75 31.6562C24.9531 31.6562 24.3438 31.0469 24.3438 30.25C24.3438 29.1625 25.5531 28.4688 26.4813 29.0312ZM10.825 37.9937C12.2594 38.5844 12.6156 40.4969 11.4906 41.5656C10.1125 42.8687 7.84375 41.9031 7.84375 40C7.84375 39.1469 8.28438 38.4344 9.0625 38.0219C9.475 37.8062 10.3469 37.7875 10.825 37.9937ZM46.825 43.9937C48.2594 44.5844 48.6156 46.4969 47.4906 47.5656C46.1125 48.8687 43.8438 47.9031 43.8438 46C43.8438 45.1469 44.2844 44.4344 45.0625 44.0219C45.475 43.8062 46.3469 43.7875 46.825 43.9937Z" fill="#EF615A"/>
<path d="M17.7433 40.7593C17.4152 41.0218 17.3964 41.6499 17.7152 41.9499C18.0152 42.2312 18.5308 42.2218 18.7933 41.9406C19.1027 41.6124 19.0745 41.0124 18.7558 40.7593C18.6152 40.6468 18.3902 40.5624 18.2495 40.5624C18.1089 40.5624 17.8839 40.6468 17.7433 40.7593Z" fill="#EF615A"/>
</svg>
