<svg width="48" height="48" viewBox="0 0 48 48" fill="none" xmlns="http://www.w3.org/2000/svg">
<g clip-path="url(#clip0_433_224)">
<path opacity="0.5" d="M23.746 6.26825C31.8813 6.26825 40 13.4044 40 21.5777C40 29.751 33.913 39 25.7778 39C12.0635 35.8665 8 26.2504 8 18.0771C8 9.9038 10.5397 4.73731 23.746 6.26825Z" fill="#00C1C1"/>
<path d="M21.2343 0.103123C17.0062 0.609371 12.9187 2.25937 9.46871 4.85624C8.07184 5.90625 5.87809 8.09062 4.85621 9.46875C2.13746 13.0969 0.553085 17.1187 0.0843353 21.5437C-0.0750397 23.1187 0.0187103 26.4656 0.271835 27.8906C1.03121 32.2031 2.67184 35.8687 5.31559 39.15C6.30934 40.3781 8.54996 42.5344 9.06559 42.7687C9.87184 43.125 10.5937 42.6375 10.5937 41.7375C10.5937 41.3344 10.575 41.3156 8.97184 39.7219C7.28434 38.0531 6.50621 37.125 5.58746 35.6719C5.06246 34.8469 3.90934 32.5875 3.61871 31.8187C3.48746 31.4531 3.48746 31.425 3.63746 31.4625C5.80309 31.9406 10.9968 32.6812 14.4375 33C15.0843 33.0562 15.6375 33.15 15.6656 33.1969C15.6937 33.2531 15.7781 33.7875 15.8437 34.3875C16.05 36.3469 16.4625 38.6719 16.6406 38.9719C16.8468 39.3281 17.1375 39.4687 17.6343 39.4687C18.075 39.4687 18.5062 39.1125 18.6187 38.6719C18.6562 38.5219 18.5812 37.725 18.4312 36.8062C18.1406 34.9031 18 33.825 18 33.4969V33.2531L19.2468 33.3187C19.9218 33.3469 21.1593 33.3844 21.9937 33.3937C23.625 33.4031 23.8312 33.3562 24.0937 32.85C24.2531 32.5687 24.2437 32.025 24.0937 31.725C23.8593 31.2937 23.5687 31.2469 20.5875 31.1344C19.0406 31.0781 17.7656 31.0219 17.7562 31.0031C17.7468 30.9937 17.6906 30.1594 17.625 29.1562C17.4937 27.0187 17.4656 22.0125 17.5687 19.7531L17.6437 18.1687L17.9437 18.225C18.4968 18.3375 27.1218 18.3937 28.7343 18.3C29.6156 18.2437 30.3375 18.2156 30.3468 18.225C30.3562 18.2344 30.4031 19.3687 30.45 20.7375C30.5531 23.5312 30.5718 23.6156 31.1906 23.8781C31.6593 24.0656 32.1187 23.9625 32.4656 23.5969L32.7468 23.2969L32.6812 20.8594C32.6531 19.5187 32.5968 18.3375 32.5687 18.225C32.5218 18.0375 32.5875 18.0281 34.425 17.8219C37.125 17.5312 39.675 17.1187 39.9656 16.9312C40.2843 16.7156 40.4437 16.3031 40.3781 15.8156C40.3218 15.3937 40.0125 15.0469 39.6 14.9437C39.4687 14.9062 38.5125 15.0094 37.4718 15.1687C36.4312 15.3281 34.9687 15.525 34.2187 15.6094C33.4687 15.6844 32.7468 15.7687 32.6156 15.7875L32.3812 15.8344L32.2125 14.2219C31.8281 10.5375 30.8625 5.68125 30.0562 3.39375C29.9812 3.17812 29.925 3 29.9343 3C30.0187 3 31.9312 3.68437 32.4281 3.89062C35.4843 5.15625 38.2406 7.18124 40.6031 9.89999C41.2875 10.6875 41.5031 10.875 41.7656 10.9312C42.2156 11.0156 42.5343 10.9125 42.8531 10.5937C43.0687 10.3875 43.125 10.2375 43.125 9.9375C43.125 9.72187 43.0781 9.45937 43.0218 9.34687C42.6468 8.63437 40.3406 6.26249 38.9531 5.15625C36.45 3.16874 33.2343 1.55625 30.1781 0.759373C28.0218 0.206245 26.9812 0.0749969 24.375 0.0468712C23.0625 0.0281219 21.6468 0.0562477 21.2343 0.103123ZM25.3593 2.25C26.0343 2.29687 26.7562 2.3625 26.9625 2.4L27.3562 2.45625L27.8718 4.0125C28.6687 6.4125 29.2406 8.925 29.7093 12.15C29.8875 13.3687 30.1875 15.9656 30.1593 16.0031C30.15 16.0031 28.7437 16.0594 27.0375 16.125C24.7312 16.2 23.1656 16.2 20.8968 16.125C19.2281 16.0594 17.85 16.0031 17.8312 15.9844C17.8125 15.975 17.9156 15.0375 18.0468 13.9125C18.5531 9.68437 19.3875 5.89687 20.4093 3.12187L20.6625 2.44687L21.1406 2.38125C21.6093 2.31562 23.1843 2.19375 23.8125 2.175C23.9906 2.16562 24.6937 2.20312 25.3593 2.25ZM17.9437 3.39375C17.1093 5.76562 16.1812 10.4062 15.7875 14.1562C15.7031 15.0094 15.6 15.7312 15.5718 15.7594C15.4593 15.8812 11.1656 15.3281 8.55934 14.8594C6.69371 14.5219 4.69684 14.1094 4.64059 14.0437C4.61246 14.025 4.87496 13.5469 5.21246 12.975C7.90309 8.41874 12.1218 5.00625 17.1093 3.31875C17.625 3.15 18.0562 3 18.0656 3C18.075 3 18.0187 3.17812 17.9437 3.39375ZM5.24996 16.4906C7.84684 17.0625 11.6156 17.6531 14.2781 17.9156C15.3 18.0187 15.4687 18.0562 15.4125 18.1781C15.2906 18.4875 15.2531 26.5875 15.375 28.6875C15.4312 29.8312 15.4687 30.7875 15.4406 30.8062C15.3843 30.8719 12.825 30.6187 10.875 30.375C9.17809 30.15 5.95309 29.625 4.07809 29.2687L2.76559 29.0156L2.60621 28.2187C2.31559 26.775 2.22184 25.6687 2.22184 23.8594C2.22184 21.3937 2.57809 19.2562 3.33746 17.0812C3.60934 16.3219 3.71246 16.125 3.83434 16.1625C3.91871 16.1906 4.55621 16.3406 5.24996 16.4906Z" fill="#EF615A"/>
<path d="M39.6942 0.178055C39.2254 0.262432 38.7286 0.41243 38.5879 0.496807C37.9036 0.946804 38.0629 2.17493 38.8411 2.42805C39.1036 2.51243 39.3473 2.51243 40.0036 2.39993C41.8411 2.09056 42.7129 2.11868 43.8379 2.54055C44.5317 2.80305 45.1973 3.47805 45.4786 4.19056C45.7598 4.93118 45.8348 6.63743 45.6192 7.82805C44.8692 12.1499 41.5504 18.2343 36.6192 24.3281C35.4473 25.7718 34.2942 27.1031 34.2286 27.0749C34.2004 27.0562 33.9661 26.9343 33.7036 26.8031C32.9629 26.4093 32.2973 26.2499 31.4161 26.2499C30.0004 26.2499 28.8754 26.7093 27.9098 27.6843C25.0598 30.5343 26.6723 35.3906 30.6848 36.0187C33.1504 36.3937 35.6067 34.7249 36.1879 32.2593C36.3661 31.4999 36.2723 30.0843 35.9911 29.3906L35.7661 28.8281L36.9379 27.4593C42.8348 20.6062 46.8286 13.5656 47.8223 8.2593C48.1129 6.71243 48.0567 4.7718 47.6817 3.70306C47.3629 2.76556 46.716 1.78118 46.0879 1.29368C45.4504 0.778057 44.4473 0.31868 43.6129 0.140556C42.7129 -0.0469437 40.8004 -0.0281944 39.6942 0.178055ZM32.4848 28.7249C33.8348 29.3343 34.4442 30.9749 33.8067 32.2874C33.5348 32.8499 33.1129 33.2624 32.5036 33.5812C31.9411 33.8812 30.8723 33.8812 30.2723 33.5812C29.7192 33.3093 29.2223 32.8124 28.9504 32.2593C28.6504 31.6593 28.6504 30.5906 28.9411 30.0374C29.2411 29.4749 29.5879 29.0906 30.0473 28.8187C30.8067 28.3781 31.6223 28.3499 32.4848 28.7249Z" fill="#EF615A"/>
<path d="M45.937 18.4874C45.3277 18.8999 45.3089 18.9937 45.562 20.7749C45.9183 23.3343 45.8433 26.0437 45.3464 28.453L45.2245 29.0155L44.1558 29.2218C43.5652 29.3343 42.1964 29.578 41.1277 29.7655C40.0589 29.953 39.0839 30.1405 38.962 30.1874C38.587 30.328 38.3433 30.7312 38.3433 31.1905C38.3433 31.5468 38.3902 31.6593 38.662 31.9312C38.9339 32.203 39.0464 32.2499 39.4402 32.2499C39.8527 32.2499 42.1495 31.8937 43.837 31.5655L44.5027 31.4343L44.2214 32.1468C42.5808 36.1874 39.5902 39.8249 35.9058 42.2437C34.312 43.2843 31.9964 44.3812 30.412 44.8405L29.9339 44.9812L30.1589 44.2687C30.4402 43.3874 31.0495 41.0155 31.2745 39.9562C31.4245 39.2343 31.4245 39.1499 31.2839 38.8499C31.1152 38.4937 30.637 38.1562 30.2995 38.1562C30.037 38.1562 29.6339 38.353 29.4089 38.5968C29.3152 38.6999 29.1277 39.3187 28.9589 40.0405C28.5652 41.7749 28.2839 42.7687 27.7777 44.2593L27.3464 45.5437L26.9808 45.5999C26.7839 45.628 25.9964 45.703 25.2183 45.7499C23.6152 45.8624 21.9183 45.7593 20.1839 45.4593C18.8995 45.2437 18.5714 45.2718 18.2433 45.6655C17.737 46.2655 17.887 47.0343 18.562 47.3624C18.7402 47.4468 19.4152 47.6062 20.062 47.7187C21.5339 47.9812 24.862 48.0749 26.4558 47.9155C31.0027 47.4468 35.3808 45.6562 38.9995 42.7874C40.0308 41.9624 42.0652 39.9187 42.8527 38.9062C45.4402 35.578 47.0058 32.0155 47.737 27.7874C47.9152 26.7374 47.9433 26.2405 47.9527 24.0468C47.9527 21.478 47.8214 19.9968 47.4933 19.0687C47.2589 18.3749 46.5089 18.0937 45.937 18.4874Z" fill="#EF615A"/>
<path d="M25.425 35.8781C25.3125 35.8969 24.5531 36.4406 23.7375 37.0875C15.3656 43.7156 7.45312 47.0344 3.96562 45.3656C3.40312 45.1031 2.91562 44.625 2.63437 44.0812C2.25937 43.3687 2.1 42.0937 2.25 41.0625C2.4375 39.7687 2.46562 38.9531 2.35312 38.7281C2.2125 38.4656 1.70625 38.1562 1.425 38.1562C1.07812 38.1562 0.5625 38.4375 0.43125 38.7094C0.20625 39.15 0 40.6406 0 41.7937C0 43.2187 0.178125 44.0812 0.665625 45.0844C2.0625 47.9344 5.45625 48.7406 10.2562 47.3531C13.8187 46.3219 18.5719 43.7531 23.1562 40.3781C24.8625 39.1219 26.5875 37.6969 26.7 37.4531C27.1031 36.5719 26.3906 35.6906 25.425 35.8781Z" fill="#EF615A"/>
</g>
<defs>
<clipPath id="clip0_433_224">
<rect width="48" height="48" fill="white"/>
</clipPath>
</defs>
</svg>
