<svg width="56" height="56" viewBox="0 0 56 56" fill="none" xmlns="http://www.w3.org/2000/svg">
<g clip-path="url(#clip0_433_273)">
<path opacity="0.5" d="M43.7317 28.746C43.7317 36.8813 36.5956 45 28.4223 45C20.249 45 11 38.913 11 30.7778C14.1335 17.0635 23.7496 13 31.9229 13C40.0962 13 45.2627 15.5397 43.7317 28.746Z" fill="#00C1C1"/>
<path d="M27.2781 0.19698C26.8515 0.536041 26.7968 0.798542 26.7968 2.65792C26.7968 4.64854 26.8187 4.59386 26.064 4.59386C25.0577 4.59386 22.5202 5.10792 20.8359 5.65479C12.0968 8.47667 5.87336 16.2642 4.97649 25.5064L4.89992 26.2501H3.22649C1.23586 26.2501 0.951487 26.2939 0.557737 26.6985C-0.0328876 27.2892 0.0655499 28.2626 0.754612 28.7329C1.10461 28.9735 1.22492 28.9845 3.00774 28.9845H4.88899L5.02024 30.1657C5.80774 37.2314 9.75617 43.4876 15.8046 47.272C16.8984 47.9501 18.0359 48.5407 18.528 48.6829C19.3374 48.9126 20.1249 48.3548 20.2015 47.5017C20.2671 46.7032 20.0265 46.4189 18.714 45.7189C13.9234 43.2032 10.4124 39.0907 8.70617 33.9939C8.30149 32.7907 7.82024 30.5923 7.73274 29.5642L7.68899 28.9845H10.4124C12.4905 28.9845 13.1359 29.0173 13.1687 29.1157C13.1905 29.1923 13.2671 29.6517 13.3437 30.1329C13.8796 33.611 15.8812 37.0454 18.6921 39.2767C19.9937 40.2939 20.3437 40.4142 21.0655 40.0751C21.5359 39.8564 21.7655 39.4298 21.7655 38.8064C21.7655 38.1939 21.6124 37.986 20.5734 37.1985C18.3749 35.5251 16.7015 32.8673 16.1437 30.1657C15.8812 28.8751 15.7718 28.9845 17.3249 28.9845C18.5499 28.9845 18.703 28.9626 19.0421 28.7329C19.7202 28.2735 19.8187 27.2782 19.239 26.6985C18.8671 26.3157 18.539 26.2501 17.0952 26.2501H15.9577L16.0343 25.7251C16.1546 24.861 16.614 23.4064 17.0734 22.4329C18.703 18.9439 21.8312 16.4939 25.6812 15.6954C26.1187 15.6079 26.5452 15.5314 26.6327 15.5314C26.7421 15.5314 26.7859 15.8595 26.8187 17.0079C26.8515 18.4517 26.8624 18.4845 27.1577 18.7798C27.4093 19.0314 27.5515 19.086 28.0109 19.086C28.503 19.086 28.6015 19.0423 28.8859 18.7251C29.2031 18.3751 29.2031 18.3642 29.2031 16.9423V15.5095L29.7281 15.5751C33.7968 16.1548 37.4062 18.8892 39.0687 22.6626C39.4843 23.6032 40.0312 25.4845 40.0312 25.9876C40.0312 26.2501 40.0202 26.2501 38.8937 26.2501C37.4609 26.2501 37.1327 26.3157 36.7609 26.6985C36.1921 27.2564 36.2468 28.1751 36.8702 28.7001C37.1874 28.9735 37.2531 28.9845 38.664 28.9845H40.1187L39.9655 29.772C39.6593 31.4017 38.9484 33.1517 38.0624 34.4532C37.4609 35.3392 36.1921 36.6517 35.3171 37.3079C34.464 37.9314 34.2343 38.2814 34.2343 38.9267C34.2343 39.7142 35.0327 40.3485 35.8202 40.2064C36.7062 40.0314 39.2109 37.7235 40.3593 36.0064C41.6718 34.0376 42.3718 32.1564 42.8202 29.3892L42.8859 28.9845H45.6202H48.3546L48.289 29.4985C48.0155 31.6532 47.7749 32.7032 47.1515 34.4314C45.4015 39.3204 41.9671 43.2579 37.3187 45.7079C36.1812 46.3095 35.8968 46.5829 35.7984 47.1845C35.7327 47.622 35.9952 48.2782 36.3343 48.486C36.903 48.8579 37.2859 48.8251 38.3468 48.311C45.2593 44.9314 50.1046 37.9751 50.9906 30.1657L51.1218 28.9954L53.1343 28.9626L55.1468 28.9298L55.453 28.5798C55.8796 28.0985 55.9671 27.5735 55.7155 27.0485C55.3656 26.3485 55.0265 26.2501 52.9265 26.2501H51.0999L51.0234 25.3423C50.903 23.9204 50.4546 21.8642 49.9187 20.2564C47.414 12.7532 41.2234 7.04386 33.5234 5.15167C32.4406 4.88917 30.5812 4.59386 29.9906 4.59386C29.1702 4.59386 29.2031 4.67042 29.2031 2.65792C29.2031 1.55323 29.1593 0.765728 29.0827 0.623543C28.864 0.19698 28.5249 0.000106812 27.9999 0.000106812C27.6937 0.000106812 27.4202 0.0766678 27.2781 0.19698ZM26.7968 10.0626V12.797H26.4468C25.4077 12.797 22.7609 13.5517 21.4156 14.2298C17.0624 16.4173 13.9452 20.6939 13.3218 25.3423L13.1905 26.2501H10.4452H7.69992L7.78742 25.3423C8.58586 17.6314 14.1859 10.7954 21.7765 8.26886C23.2312 7.78761 25.2218 7.38292 26.3374 7.33917L26.7968 7.32823V10.0626ZM31.9374 7.66729C36.1812 8.49854 40.3593 10.9048 43.2249 14.1642C46.0905 17.4235 47.8405 21.3829 48.278 25.6157L48.3437 26.2501H45.6093H42.8749L42.8312 25.9985C42.8093 25.8673 42.6999 25.3314 42.6124 24.8064C41.7921 20.3329 38.9046 16.4501 34.814 14.3501C33.1624 13.5079 30.7781 12.797 29.5749 12.797H29.2031V10.0517V7.29542L30.0015 7.37198C30.4281 7.41573 31.3031 7.54698 31.9374 7.66729Z" fill="#EF615A"/>
<path d="M26.3155 20.6281C24.3795 21.0984 22.7061 22.4 21.7217 24.1828C20.978 25.5281 20.6389 27.8469 21.0545 28.6562C21.3499 29.2359 22.2358 29.4875 22.8483 29.1703C23.3624 28.9078 23.5374 28.5141 23.6249 27.4641C23.778 25.6594 24.6858 24.3141 26.228 23.5922C26.8842 23.2859 27.0702 23.2531 27.9999 23.2531C29.3452 23.2531 30.0452 23.5156 30.9639 24.3687C31.9483 25.2766 32.4842 26.5016 32.4842 27.8469C32.4842 28.7766 32.9983 29.3125 33.9061 29.3125C34.2561 29.3125 34.4311 29.2359 34.7592 28.9406L35.1639 28.5578L35.153 27.4312C35.142 25.4516 34.5295 24.0187 33.0858 22.5859C32.1014 21.5906 31.1717 21.0437 29.8592 20.6828C28.8858 20.4094 27.3108 20.3875 26.3155 20.6281Z" fill="#EF615A"/>
<path d="M27.3873 25.8234C26.9389 25.9547 26.2827 26.6766 26.1952 27.1469C26.1295 27.4531 25.6592 27.9125 23.3186 29.9687C21.7873 31.325 20.4311 32.5719 20.3217 32.7578C20.0483 33.2172 20.0592 34.0484 20.3655 34.5406C20.7155 35.1094 21.2952 35.3281 22.4655 35.3281H23.428L23.3623 35.6781C23.3295 35.875 22.6623 39.5719 21.8748 43.8812C20.9998 48.7047 20.453 51.9969 20.453 52.4344C20.453 53.9328 21.3498 55.2672 22.6733 55.7594C23.2858 55.9891 23.4608 56 28.0436 56C33.1514 56 33.1733 56 34.1139 55.4094C34.6717 55.0594 35.2733 54.25 35.4592 53.5937C35.5358 53.3203 35.5905 52.7844 35.5795 52.3906C35.5795 51.9969 34.9014 48.0266 34.0811 43.5641C33.2608 39.0906 32.5936 35.4156 32.5936 35.3828C32.5936 35.35 33.0202 35.3281 33.5561 35.3281C34.6827 35.3281 35.2733 35.1094 35.667 34.5516C36.028 34.0375 36.028 33.2062 35.6561 32.6703C35.503 32.4625 34.1358 31.1937 32.6264 29.8484C30.5811 28.0547 29.8592 27.3547 29.8592 27.1797C29.8592 26.7859 29.3998 26.2172 28.8748 25.9437C28.3717 25.6922 27.9561 25.6594 27.3873 25.8234ZM31.4233 32.9328C30.3842 32.9984 30.2639 33.0531 30.0123 33.5234L29.8155 33.8953L31.478 43.0609C32.3967 48.1031 33.1405 52.3797 33.1405 52.5547C33.1405 52.9703 32.9108 53.3094 32.517 53.4734C32.2873 53.5609 30.9858 53.5937 27.8467 53.5719L23.4936 53.5391L23.1764 53.1781C22.9905 52.9703 22.8592 52.6969 22.8592 52.5219C22.8592 52.3578 23.603 48.1031 24.5217 43.0609L26.1842 33.8953L25.9873 33.5234C25.7358 33.0531 25.6155 32.9984 24.5983 32.9328L23.7561 32.8672L25.8889 30.9859L28.0217 29.1156L30.1436 30.9859L32.2655 32.8672L31.4233 32.9328Z" fill="#EF615A"/>
</g>
<defs>
<clipPath id="clip0_433_273">
<rect width="56" height="56" fill="white"/>
</clipPath>
</defs>
</svg>
