<svg width="48" height="48" viewBox="0 0 48 48" fill="none" xmlns="http://www.w3.org/2000/svg">
<g clip-path="url(#clip0_433_292)">
<path opacity="0.5" d="M39.7317 24.746C39.7317 32.8813 32.5956 41 24.4223 41C16.249 41 7 34.913 7 26.7778C10.1335 13.0635 19.7496 9 27.9229 9C36.0962 9 41.2627 11.5397 39.7317 24.746Z" fill="#00C1C1"/>
<path d="M1.35979 0.665664C0.862916 0.909414 0.412915 1.35941 0.187915 1.82816C0.00979051 2.20316 0.000415512 2.41879 0.000415512 10.2469C0.000415512 19.1063 -0.0370845 18.5907 0.600415 19.2938C1.25667 20.0157 1.46292 20.0625 4.12542 20.0625H6.46917V20.475C6.46917 21.9938 7.19104 23.2219 8.41916 23.7938C9.14104 24.1313 10.3973 24.15 11.091 23.8313C12.3754 23.25 13.1254 22.0407 13.1254 20.5594V20.0625H15.4692C17.2785 20.0625 17.8879 20.0344 18.1317 19.9313C18.6004 19.7344 19.1817 19.1719 19.4254 18.675C19.6317 18.2532 19.641 18.1125 19.6692 15.9282L19.7067 13.6219L20.3723 13.5657C21.2254 13.4907 21.7692 13.3032 22.341 12.8813C24.0379 11.6438 24.0379 8.88754 22.341 7.65004C21.7692 7.22816 21.2254 7.04066 20.3723 6.96566L19.7067 6.90941L19.6692 4.60316C19.6317 2.04379 19.6129 1.92191 18.9942 1.23754C18.8067 1.03129 18.4598 0.768789 18.2348 0.665664C17.8223 0.468789 17.7473 0.468789 9.77854 0.468789C1.95042 0.478164 1.72542 0.478164 1.35979 0.665664ZM17.541 2.61566C17.7098 2.82191 17.7192 3.01879 17.7192 5.58754V8.33441L17.9442 8.59691C18.1692 8.85004 18.1973 8.85941 19.4254 8.90629C20.841 8.96254 21.1785 9.08441 21.4785 9.65629C21.8442 10.3219 21.6004 11.0532 20.9067 11.4094C20.541 11.5969 20.3442 11.625 19.3785 11.625C18.2723 11.625 18.2629 11.625 17.991 11.8969L17.7192 12.1688V14.9344C17.7192 17.5125 17.7098 17.7094 17.541 17.9157L17.3629 18.1407L14.4848 18.1875L11.6067 18.2344L11.3817 18.4969C11.1754 18.7407 11.1567 18.8344 11.1567 19.8469C11.1567 21.1594 10.9973 21.5907 10.416 21.9188C9.95666 22.1813 9.63791 22.1813 9.17854 21.9188C8.59729 21.5907 8.43791 21.1594 8.43791 19.8469C8.43791 18.8344 8.41916 18.7407 8.21291 18.4969L7.98791 18.2344L5.10979 18.1875L2.23167 18.1407L2.05354 17.9157C1.88479 17.7094 1.87542 17.4375 1.87542 10.2938C1.87542 5.24066 1.90354 2.83129 1.97854 2.70941C2.03479 2.60629 2.16604 2.48441 2.27854 2.43754C2.39104 2.39066 5.74729 2.36254 9.91916 2.37191L17.3629 2.39066L17.541 2.61566Z" fill="#EF615A"/>
<path d="M12.4132 7.11555C12.1694 7.22805 11.8976 7.53743 10.5944 9.25305L9.5163 10.6687L9.0663 10.2749C8.28818 9.59993 8.0538 9.46868 7.66943 9.46868C6.9663 9.46868 6.53505 10.2187 6.8538 10.8937C7.02255 11.2499 9.05693 12.9749 9.41318 13.0687C10.0132 13.2281 10.1819 13.0687 11.9351 10.7999C12.8257 9.62805 13.6132 8.57805 13.6694 8.46555C14.0726 7.70618 13.2101 6.77805 12.4132 7.11555Z" fill="#EF615A"/>
<path d="M26.1567 10.2094C25.4629 10.425 24.8817 10.9406 24.5723 11.625C24.3942 12.0188 24.3754 12.2344 24.3754 15.0656V18.0844L24.6004 18.3469C24.8254 18.6094 24.8442 18.6094 26.1286 18.6563C27.2911 18.7031 27.4504 18.7313 27.7317 18.9188C28.3129 19.3313 28.4723 20.0063 28.1348 20.625C27.8348 21.1969 27.4973 21.3188 26.0817 21.375C24.8536 21.4219 24.8254 21.4313 24.6004 21.6844L24.3754 21.9469V24.9188V27.8906H21.3661H18.3567L18.0848 28.2C17.8129 28.5 17.8129 28.5188 17.8129 29.5969C17.8129 30.9469 17.6536 31.3594 17.0348 31.6875C16.5192 31.9594 16.0504 31.8938 15.6004 31.4719C15.1879 31.0969 15.1036 30.7219 15.0942 29.4281C15.0942 28.4813 15.0848 28.4156 14.8504 28.1906C14.5129 27.8531 14.1942 27.825 11.1473 27.8625C8.58794 27.9 8.46606 27.9094 8.03481 28.1156C7.49106 28.3875 6.91919 29.0156 6.76919 29.5125C6.60981 30.0375 6.60981 45.4313 6.76919 45.9469C6.91919 46.4625 7.45356 47.0531 8.00669 47.3063L8.48481 47.5312H16.5098H24.5348L24.9473 47.3156L25.3598 47.0906L25.8286 47.3156L26.2973 47.5312H34.2192C41.9817 47.5312 42.1504 47.5219 42.5629 47.3344C43.0786 47.1 43.5473 46.6688 43.8098 46.1719C43.9973 45.8344 44.0161 45.6281 44.0442 43.9313C44.0723 42.6188 44.0442 41.9906 43.9598 41.7938C43.7629 41.325 43.1348 41.1188 42.6098 41.3625C42.1598 41.5688 42.0942 41.8406 42.0942 43.6219C42.0942 45.0844 42.0754 45.2719 41.9254 45.4031C41.7661 45.5531 41.0911 45.5625 34.2004 45.5625C27.0098 45.5625 26.6442 45.5531 26.5036 45.3938C26.3629 45.2438 26.3442 44.9438 26.3442 43.1531V41.0906L27.0379 41.0344C28.0411 40.95 28.7254 40.6594 29.2973 40.0875C30.0473 39.3375 30.2348 38.8594 30.2348 37.7344C30.2348 36.6094 30.0473 36.1313 29.2973 35.3813C28.7254 34.8094 28.0411 34.5188 27.0379 34.4344L26.3442 34.3781V32.2406C26.3442 30.1406 26.3442 30.1031 26.5504 29.9625C26.7286 29.8406 27.1129 29.8125 28.8379 29.8125H30.9192L30.9567 30.6281C31.0129 31.65 31.2473 32.1938 31.9411 32.8781C32.5786 33.5063 33.2442 33.7688 34.2473 33.7688C36.0567 33.7688 37.3879 32.4563 37.4817 30.5813L37.5286 29.8125H39.6004C41.2504 29.8125 41.7192 29.8406 41.8692 29.9438C42.0379 30.0656 42.0473 30.2344 42.0942 32.1563L42.1411 34.2375L42.4036 34.4625C42.7692 34.7719 43.3879 34.7719 43.7536 34.4625L44.0161 34.2375V31.95C44.0161 29.7938 44.0067 29.6531 43.8098 29.2594L43.6036 28.8469L43.8098 28.4625C44.0067 28.0969 44.0161 27.9375 44.0442 25.6781L44.0723 23.2688L44.8411 23.2406C46.1629 23.175 47.1754 22.5375 47.7379 21.3844C47.9254 21.0188 47.9536 20.8031 47.9536 19.9688C47.9536 19.0781 47.9254 18.9375 47.6911 18.4875C47.1004 17.3719 46.1536 16.7719 44.8411 16.7063L44.0629 16.6594V14.4469C44.0629 11.8313 44.0067 11.5594 43.3129 10.8656C42.5348 10.0875 42.9567 10.125 34.1348 10.1344C29.8786 10.1344 26.2879 10.1719 26.1567 10.2094ZM41.9067 12.2813C42.0848 12.4594 42.0942 12.5906 42.0942 15.2438V18.0188L42.4129 18.3375L42.7317 18.6563H43.8661C45.1317 18.6563 45.3661 18.7313 45.7879 19.2188C46.2286 19.7531 46.0786 20.6344 45.4598 21.075C45.2817 21.1969 44.9536 21.2438 43.9411 21.2813L42.6379 21.3281L42.3661 21.6375L42.0942 21.9375V24.6938C42.0942 27.1781 42.0754 27.4688 41.9348 27.6469C41.7754 27.8344 41.6817 27.8438 38.9254 27.8625L36.0754 27.8906L35.8036 28.2C35.5317 28.5 35.5317 28.5188 35.5317 29.6344C35.5317 30.6188 35.5036 30.8156 35.3348 31.125C34.8379 31.9969 33.6098 32.0344 33.0942 31.1906C32.9348 30.9375 32.9067 30.7125 32.9067 29.7656C32.9067 28.5188 32.7661 28.1156 32.2879 27.9375C32.1567 27.8813 30.8817 27.8438 29.3723 27.8438C27.0004 27.8438 26.6629 27.825 26.5129 27.6844C26.3629 27.5438 26.3442 27.3469 26.3442 25.4531V23.3813L27.1786 23.2781C28.5192 23.1281 29.3442 22.6031 29.9067 21.5531C30.6942 20.0719 30.2254 18.2063 28.8379 17.2781C28.2942 16.9125 27.9098 16.7906 27.0286 16.7156L26.3442 16.6594V14.55C26.3442 12.7125 26.3629 12.4125 26.5036 12.2625C26.6442 12.1031 27.0098 12.0938 34.1911 12.0938C41.5973 12.0938 41.7192 12.0938 41.9067 12.2813ZM13.1911 30.6844C13.2567 31.275 13.3692 31.7156 13.5286 32.025C14.4848 33.8906 16.9036 34.4063 18.5629 33.0938C19.2848 32.5219 19.7817 31.3969 19.7817 30.3094V29.8125H21.8442H23.9161L24.1411 30.0469L24.3754 30.2719V33.0375V35.8031L24.6004 36.0656C24.8254 36.3188 24.8536 36.3281 26.0817 36.3844C27.0098 36.4219 27.4036 36.4688 27.6379 36.5906C28.5754 37.0969 28.5192 38.4656 27.5348 38.9063C27.2161 39.0563 26.9254 39.0938 26.0348 39.0938C24.9286 39.0938 24.9192 39.0938 24.6473 39.3656L24.3754 39.6375V42.4031C24.3754 44.9813 24.3661 45.1781 24.1973 45.3844L24.0192 45.6094H16.4723C10.2192 45.6094 8.90669 45.5906 8.78481 45.4781C8.63481 45.3656 8.62544 44.7094 8.62544 37.725V30.1031L8.83169 29.9625C9.00981 29.8406 9.38481 29.8125 11.0629 29.8125H13.0879L13.1911 30.6844Z" fill="#EF615A"/>
<path d="M42.5723 37.1625C42.0379 37.4531 41.9442 38.1656 42.3661 38.6437C42.6004 38.9062 42.7036 38.9531 43.0786 38.9531C43.4536 38.9531 43.5567 38.9062 43.7911 38.6437C44.5411 37.8094 43.5567 36.6187 42.5723 37.1625Z" fill="#EF615A"/>
</g>
<defs>
<clipPath id="clip0_433_292">
<rect width="48" height="48" fill="white"/>
</clipPath>
</defs>
</svg>
