<svg width="56" height="56" viewBox="0 0 56 56" fill="none" xmlns="http://www.w3.org/2000/svg">
<g clip-path="url(#clip0_433_77)">
<path opacity="0.5" d="M43.7317 28.746C43.7317 36.8813 36.5956 45 28.4223 45C20.249 45 11 38.913 11 30.7778C14.1335 17.0635 23.7496 13 31.9229 13C40.0962 13 45.2627 15.5397 43.7317 28.746Z" fill="#00C1C1"/>
<path d="M25.211 0.514107C23.3079 0.689107 20.2891 1.40004 18.3094 2.14379C9.54849 5.41411 2.9313 13.0813 0.995361 22.2032C0.229736 25.8016 0.229736 30.1875 0.995361 33.7969C3.4563 45.4125 13.2891 54.2391 25.1344 55.4641C26.9719 55.65 30.8875 55.5407 32.5172 55.2454C40.9719 53.736 47.8516 48.9125 52.1063 41.486C54.1954 37.8438 55.5625 32.8235 55.5625 28.7985V27.4313L55.1907 27.0594C54.8625 26.7313 54.7422 26.6875 54.2719 26.6875C53.7032 26.6875 53.2766 26.9282 53.036 27.3766C52.9594 27.4969 52.8719 28.3282 52.8282 29.2032C52.7735 30.0891 52.6532 31.325 52.5547 31.9594L52.3688 33.0969L51.1438 32.7907C49.9625 32.4844 49.9188 32.4844 49.4485 32.6594C48.5625 32.9985 48.3329 34.2125 49.0438 34.8797C49.1969 35.0219 49.711 35.2297 50.3235 35.3938C50.8922 35.5469 51.4172 35.6891 51.4829 35.711C51.5813 35.7438 51.5375 35.9954 51.3079 36.6079C50.925 37.6469 50.236 39.1563 50.1485 39.1563C50.1157 39.1563 49.6563 38.9047 49.1204 38.6094C48.3329 38.1719 48.0485 38.0625 47.6329 38.0625C47.1954 38.0625 47.0641 38.1172 46.7469 38.4344C46.4188 38.7625 46.375 38.8829 46.375 39.3532C46.375 40.075 46.5938 40.3266 47.8079 41.0266L48.7813 41.5954L48.6063 41.8797C48.3657 42.2516 47.0532 43.9469 46.736 44.2969L46.4954 44.5594L45.5766 43.6625C44.6579 42.7766 44.6469 42.7657 44.0782 42.7657C43.575 42.7657 43.4657 42.8094 43.1375 43.1375C42.8094 43.4657 42.7657 43.575 42.7657 44.0782C42.7657 44.6469 42.7766 44.6579 43.6735 45.5766L44.5704 46.5063L44.2422 46.7797C43.5532 47.3485 42.1532 48.4313 41.8797 48.6063L41.5844 48.7922L41.0594 47.8407C40.3704 46.6266 40.075 46.375 39.3532 46.375C38.8719 46.375 38.7625 46.4188 38.4344 46.7469C38.1172 47.0641 38.0625 47.1954 38.0625 47.6438C38.0625 48.0704 38.161 48.3438 38.6094 49.1313C38.9157 49.6563 39.1563 50.1157 39.1563 50.1485C39.1563 50.236 37.45 51.0125 36.5313 51.3407L35.7766 51.6141L35.5579 50.8813C35.4375 50.4766 35.2954 49.9516 35.2297 49.7219C35 48.836 34.1907 48.4094 33.3704 48.7375C32.5063 49.0766 32.386 49.5907 32.8016 51.1766C32.9657 51.8438 33.075 52.3907 33.0313 52.3907C32.9985 52.3907 32.4735 52.4563 31.8719 52.5438C31.2813 52.6313 30.461 52.7297 30.0563 52.7735L29.3125 52.85V51.5157V50.1813L28.9407 49.8094C28.6125 49.4813 28.5032 49.4375 28 49.4375C27.4969 49.4375 27.3875 49.4813 27.0594 49.8094L26.6875 50.1813V51.5047C26.6875 52.6969 26.6657 52.8282 26.5016 52.8282C26.2829 52.8172 24.0625 52.5438 23.3407 52.4344L22.8922 52.3688L23.2094 51.1985C23.625 49.6344 23.4938 49.0875 22.6297 48.7375C21.8094 48.4094 21 48.836 20.7704 49.7219C20.7047 49.9516 20.5625 50.4766 20.4422 50.8813L20.2235 51.6141L19.3813 51.3079C18.3532 50.925 16.8438 50.236 16.8438 50.1485C16.8438 50.1157 17.0954 49.6563 17.3907 49.1313C17.8391 48.3438 17.9375 48.0704 17.9375 47.6438C17.9375 47.1954 17.8829 47.0641 17.5657 46.7469C17.2375 46.4188 17.1282 46.375 16.6469 46.375C15.925 46.375 15.6297 46.6266 14.9407 47.8407L14.4157 48.7922L14.1204 48.6063C13.8469 48.4313 12.4469 47.3485 11.7579 46.7797L11.4297 46.5063L12.3375 45.5766C13.2235 44.6579 13.2344 44.6469 13.2344 44.0782C13.2344 43.575 13.1907 43.4657 12.8625 43.1375C12.5344 42.8094 12.425 42.7657 11.9219 42.7657C11.3532 42.7657 11.3422 42.7766 10.4344 43.6625C9.86567 44.2204 9.47192 44.5157 9.41724 44.45C9.13286 44.1766 7.57974 42.1969 7.40474 41.9125L7.2188 41.5844L8.15942 41.0485C9.37349 40.3704 9.62505 40.075 9.62505 39.3532C9.62505 38.8719 9.5813 38.7625 9.25317 38.4344C8.93599 38.1172 8.80474 38.0625 8.36724 38.0625C7.95161 38.0625 7.66724 38.1719 6.85786 38.6204C5.95005 39.1344 5.85161 39.1672 5.7313 38.9922C5.56724 38.7735 4.51724 36.236 4.46255 35.9407C4.42974 35.7657 4.5938 35.6891 5.56724 35.4266C6.84692 35.0766 7.17505 34.8469 7.32817 34.1797C7.49224 33.436 7.02192 32.6813 6.28911 32.55C6.09224 32.5063 5.50161 32.6047 4.77974 32.8016C4.13442 32.9766 3.60942 33.086 3.60942 33.0422C3.60942 32.9985 3.5438 32.4735 3.4563 31.8719C3.3688 31.2813 3.27036 30.461 3.22661 30.0454L3.15005 29.3125H4.48442H5.8188L6.19067 28.9407C6.5188 28.6125 6.56255 28.5032 6.56255 28C6.56255 27.4969 6.5188 27.3875 6.19067 27.0594L5.8188 26.6875H4.48442H3.15005L3.22661 25.9438C3.27036 25.5391 3.3688 24.7188 3.4563 24.1282C3.5438 23.5266 3.60942 23.0016 3.60942 22.9579C3.60942 22.9141 4.13442 23.0235 4.77974 23.1985C6.12505 23.5594 6.5188 23.5375 6.98911 23.0672C7.35005 22.7063 7.44849 22.3454 7.31724 21.7985C7.17505 21.1532 6.83599 20.9125 5.56724 20.5735C4.5938 20.311 4.42974 20.2344 4.46255 20.0594C4.51724 19.7641 5.56724 17.2266 5.7313 17.0079C5.85161 16.8329 5.95005 16.8657 6.85786 17.3797C7.66724 17.8282 7.95161 17.9375 8.36724 17.9375C8.80474 17.9375 8.93599 17.8829 9.25317 17.5657C9.5813 17.2375 9.62505 17.1282 9.62505 16.6469C9.62505 15.925 9.37349 15.6297 8.15942 14.9516L7.2188 14.4157L7.40474 14.0875C7.57974 13.8032 9.13286 11.8235 9.41724 11.55C9.47192 11.4844 9.86567 11.7797 10.4344 12.3375C11.3422 13.2235 11.3532 13.2344 11.9219 13.2344C12.425 13.2344 12.5344 13.1907 12.8625 12.8625C13.1907 12.5344 13.2344 12.425 13.2344 11.9219C13.2344 11.3532 13.2235 11.3422 12.3375 10.4344C11.7797 9.86567 11.4844 9.47192 11.55 9.41723C11.8235 9.13286 13.8032 7.57973 14.0875 7.41567L14.4157 7.21879L14.9735 8.20317C15.6735 9.40629 15.925 9.62504 16.6469 9.62504C17.1172 9.62504 17.2375 9.58129 17.5657 9.25317C17.8829 8.93598 17.9375 8.80473 17.9375 8.35629C17.9375 7.92973 17.8391 7.65629 17.3907 6.86879C17.0954 6.34379 16.8438 5.88442 16.8438 5.85161C16.8438 5.76411 18.3532 5.07504 19.3813 4.69223L20.2235 4.38598L20.4422 5.11879C20.5625 5.52348 20.7047 6.04848 20.7704 6.30004C20.9125 6.83598 21.2625 7.18598 21.8094 7.33911C22.1266 7.42661 22.2907 7.40473 22.6844 7.24067C23.0672 7.06567 23.1985 6.93442 23.3407 6.55161C23.5157 6.08129 23.5157 6.03754 23.2094 4.83442C23.0344 4.16723 22.925 3.60942 22.9688 3.60942C23.0016 3.60942 23.5266 3.54379 24.1282 3.45629C24.7188 3.36879 25.5391 3.27036 25.9547 3.22661L26.6875 3.15004V4.48442V5.81879L27.0594 6.19067C27.3875 6.51879 27.4969 6.56254 28 6.56254C28.5032 6.56254 28.6125 6.51879 28.9407 6.19067L29.3125 5.81879V3.50004V1.18129L28.9407 0.809419L28.5688 0.437544L27.1141 0.459419C26.3047 0.470357 25.4516 0.492232 25.211 0.514107Z" fill="#EF615A"/>
<path d="M38.1283 0.656216C35.722 1.30153 33.7424 2.96403 32.7033 5.19528C32.1236 6.42028 31.9377 7.28434 31.9377 8.71715C31.9377 10.5547 32.4627 12.25 33.4033 13.4968L33.7752 13.9781L33.3814 14.0437C33.0642 14.0875 32.7908 14.2953 32.058 15.0281C31.2486 15.8484 31.1392 15.9906 31.0955 16.4172C31.008 17.314 31.7408 18.025 32.6267 17.9047C32.9986 17.85 33.2064 17.6968 33.983 16.9312C34.7049 16.2093 34.9127 15.9359 34.9564 15.6187L35.022 15.225L35.5033 15.5968C36.1814 16.1 37.2424 16.5922 38.2377 16.8437C39.0252 17.0515 39.4736 17.0625 45.3908 17.0625C50.9361 17.0625 51.7564 17.0406 52.2158 16.8875C53.8017 16.3406 54.8736 15.2578 55.3986 13.6718C55.5408 13.2343 55.5736 12.8406 55.5408 11.9984C55.497 11.014 55.4533 10.7953 55.1361 10.15C54.6767 9.20934 53.7689 8.30153 52.8392 7.84215C52.1939 7.5359 51.9861 7.49215 50.9689 7.45934C50.0283 7.42653 49.7111 7.45934 49.208 7.63434L48.6064 7.84215L48.4314 6.99997C48.0814 5.28278 46.9986 3.48903 45.6314 2.34059C44.7783 1.62965 43.2252 0.842154 42.2189 0.612466C41.2017 0.371841 39.0908 0.393716 38.1283 0.656216ZM42.2517 3.48903C43.608 4.02497 44.997 5.41403 45.5002 6.7484C45.6314 7.0984 45.7845 7.85309 45.8502 8.42184C45.9814 9.59215 46.1892 10.0953 46.747 10.5875C47.1627 10.9484 48.1361 11.2328 48.5845 11.1234C48.7267 11.0797 49.0658 10.8828 49.3283 10.675C50.8377 9.50465 52.8283 10.4015 52.8283 12.25C52.8283 13.114 52.4564 13.7375 51.6799 14.1531C51.2533 14.3718 51.122 14.3828 46.0142 14.4156C40.5017 14.4484 39.2877 14.3828 38.2486 14C36.9142 13.4968 35.5142 12.1078 34.9892 10.7515C34.6283 9.79997 34.5736 8.13747 34.8799 7.13122C35.4049 5.40309 36.8377 3.9484 38.5877 3.37965C39.4845 3.08434 41.3549 3.13903 42.2517 3.48903Z" fill="#EF615A"/>
<path d="M25.1563 12.9062C18.9329 14.0656 14.022 19.0203 12.8954 25.2547C12.611 26.7969 12.611 29.2031 12.8954 30.7453C13.5735 34.5297 15.7173 37.9969 18.8017 40.3156C20.6063 41.6609 23.1438 42.7437 25.4735 43.1484C26.7095 43.3672 29.3235 43.3562 30.636 43.1375C35.1204 42.3719 39.2438 39.4406 41.4204 35.4703C42.6126 33.2828 43.1813 31.2703 43.2798 28.9625L43.3454 27.4641L42.9517 27.0703C42.6126 26.7312 42.5032 26.6875 42.011 26.6875C41.0267 26.6875 40.5892 27.3219 40.5782 28.7875C40.5673 30.7125 39.5938 33.4906 38.2923 35.2734C36.2907 38.0078 33.5017 39.7906 30.2095 40.425C29.2142 40.6219 26.9829 40.6437 26.0095 40.4687C23.3845 40.0094 21.1095 38.85 19.272 37.0562C16.7017 34.5406 15.422 31.5437 15.422 28C15.422 26.4031 15.6079 25.2437 16.0892 23.8656C16.7563 21.9844 17.8392 20.3 19.2829 18.9328C21.6673 16.6578 24.0079 15.6844 27.836 15.3562C28.5032 15.3016 28.6345 15.2469 28.9517 14.9297C29.2688 14.6125 29.3126 14.4922 29.3126 14C29.3126 13.4969 29.2688 13.3875 28.9407 13.0594L28.5688 12.6875L27.3876 12.6984C26.7313 12.6984 25.7251 12.7969 25.1563 12.9062Z" fill="#EF615A"/>
<path d="M39.1345 18.4625C38.2377 19.3375 38.1502 19.4687 38.0955 19.9172C38.008 20.814 38.7408 21.525 39.6377 21.4047C40.0205 21.35 40.2174 21.2078 41.0377 20.3656C41.9345 19.4578 42.0002 19.3593 42.0002 18.9328C42.0002 18.014 41.5189 17.5 40.6439 17.5C40.1189 17.5 40.097 17.5109 39.1345 18.4625Z" fill="#EF615A"/>
<path d="M49.6345 18.4625C48.7377 19.3375 48.6502 19.4687 48.5955 19.9172C48.508 20.814 49.2408 21.525 50.1377 21.4047C50.5205 21.35 50.7174 21.2078 51.5377 20.3656C52.4345 19.4578 52.5002 19.3593 52.5002 18.9328C52.5002 18.014 52.0189 17.5 51.1439 17.5C50.6189 17.5 50.597 17.5109 49.6345 18.4625Z" fill="#EF615A"/>
<path d="M32.1345 21.9625C31.2377 22.8375 31.1502 22.9687 31.0955 23.4172C31.008 24.314 31.7408 25.025 32.6377 24.9047C33.0205 24.85 33.2174 24.7078 34.0377 23.8656C34.9345 22.9578 35.0002 22.8593 35.0002 22.4328C35.0002 21.514 34.5189 21 33.6439 21C33.1189 21 33.097 21.0109 32.1345 21.9625Z" fill="#EF615A"/>
<path d="M42.6345 21.9625C41.7377 22.8375 41.6502 22.9687 41.5955 23.4172C41.508 24.314 42.2408 25.025 43.1377 24.9047C43.5205 24.85 43.7174 24.7078 44.5377 23.8656C45.4345 22.9578 45.5002 22.8593 45.5002 22.4328C45.5002 21.514 45.0189 21 44.1439 21C43.6189 21 43.597 21.0109 42.6345 21.9625Z" fill="#EF615A"/>
</g>
<defs>
<clipPath id="clip0_433_77">
<rect width="56" height="56" fill="white"/>
</clipPath>
</defs>
</svg>
