<svg width="56" height="56" viewBox="0 0 56 56" fill="none" xmlns="http://www.w3.org/2000/svg">
<path opacity="0.5" d="M27.7034 7.31296C37.1945 7.31296 46.6663 15.6384 46.6663 25.174C46.6663 34.7095 39.5649 45.5 30.0737 45.5C14.0737 41.8442 9.33301 30.6255 9.33301 21.09C9.33301 11.5544 12.296 5.52686 27.7034 7.31296Z" fill="#00C1C1"/>
<path d="M31.257 7.17775C28.836 7.56511 25.0592 8.92089 24.5888 9.55728C24.3121 9.91698 24.3674 10.8024 24.6856 11.1206C25.073 11.5079 25.737 11.4664 26.8023 10.9961C28.6561 10.166 30.7175 9.59878 32.682 9.37743L33.5397 9.28059V10.6225C33.5397 12.1997 33.7195 12.504 34.6464 12.504C35.5734 12.504 35.7532 12.1997 35.7532 10.6364C35.7532 9.10074 35.601 9.18375 37.7039 9.54344C40.8581 10.083 44.3998 11.674 46.4473 13.4724L46.973 13.929L46.1429 14.7867C45.6864 15.2571 45.2713 15.8105 45.2298 16.0041C45.0361 16.7789 45.8662 17.6089 46.6409 17.4153C46.8346 17.3738 47.388 16.9587 47.8722 16.5022L48.7299 15.6583L49.3248 16.4053C51.2478 18.8264 52.6036 21.9391 53.1155 25.1626C53.4198 27.0579 53.5305 26.8919 52.0087 26.8919C50.4454 26.8919 50.1411 27.0717 50.1411 27.9986C50.1411 28.9255 50.4454 29.1054 52.0087 29.1054C53.5443 29.1054 53.4613 28.9532 53.1016 31.0561C52.5621 34.2241 51.2617 37.1571 49.3248 39.5919L48.7299 40.339L47.8722 39.4951C47.388 39.0385 46.8346 38.6235 46.6409 38.582C45.8662 38.3883 45.0361 39.2184 45.2298 39.9931C45.2713 40.1868 45.6864 40.7402 46.1429 41.2244L46.9868 42.0821L46.2397 42.6632C43.5835 44.7799 39.9727 46.2463 36.6248 46.606L35.7532 46.7028V45.3747C35.7532 43.7976 35.5734 43.4932 34.6464 43.4932C33.7195 43.4932 33.5397 43.7976 33.5397 45.3747V46.7167L32.682 46.6198C30.7175 46.3985 28.6561 45.8313 26.8023 45.0012C25.2805 44.3233 24.4089 44.5585 24.4089 45.6791C24.4089 46.3985 24.5888 46.5922 25.8062 47.1455C28.5039 48.3907 30.6898 48.8887 33.9547 48.9855C36.0022 49.0409 36.6248 49.0132 38.0497 48.778C42.6428 47.9895 46.2951 46.108 49.5323 42.8845C52.5483 39.8548 54.3467 36.5622 55.3013 32.315C55.7025 30.475 55.7302 25.9511 55.3567 24.0558C54.4712 19.6841 52.6174 16.1978 49.5323 13.1127C46.5303 10.1107 43.4728 8.43669 39.2118 7.42677C37.3442 6.98407 33.2215 6.85956 31.257 7.17775Z" fill="#EF615A"/>
<path d="M13.8944 13.8874C13.7145 14.0672 13.6177 14.3439 13.6177 14.7175C13.6177 15.091 13.7145 15.3677 13.8944 15.5475C14.1572 15.8104 14.3509 15.8242 20.7148 15.8242C27.1755 15.8242 27.2723 15.8242 27.5352 15.5337C27.881 15.1602 27.881 14.2748 27.5352 13.9012C27.2723 13.6107 27.1755 13.6107 20.7148 13.6107C14.3509 13.6107 14.1572 13.6245 13.8944 13.8874Z" fill="#EF615A"/>
<path d="M42.6012 18.439C42.3798 18.5774 40.9825 19.9193 39.5023 21.3996L36.8184 24.0973L36.3203 23.876C35.5456 23.5439 33.6364 23.5854 32.8064 23.959C31.7411 24.4294 31.1047 25.0242 30.6482 25.9511C30.2747 26.6982 30.2193 26.9472 30.2193 27.9433C30.2193 28.6904 30.3023 29.2991 30.4407 29.6588L30.662 30.2122L30.164 30.7655C29.9011 31.0699 29.6244 31.4849 29.5829 31.6925C29.3893 32.4257 30.2193 33.2557 30.9664 33.0621C31.1739 33.0067 31.6028 32.73 31.921 32.4395C32.4743 31.9415 32.5297 31.9276 32.9171 32.0937C33.5949 32.3703 34.7294 32.4533 35.5733 32.2873C37.0812 31.9691 38.0358 31.2774 38.6445 30.0461C39.0181 29.2991 39.0734 29.0501 39.0734 28.054C39.0734 27.3069 38.9904 26.6982 38.852 26.3247L38.6169 25.7575L41.3837 22.9767C42.9194 21.4411 44.2336 20.0438 44.3305 19.864C44.8424 18.8402 43.5834 17.8026 42.6012 18.439ZM35.3658 26.0895C35.6563 26.1725 36.0851 26.463 36.3065 26.712C36.6662 27.1132 36.7215 27.2793 36.7215 28.0125C36.7215 28.7872 36.68 28.8979 36.265 29.3129C35.3242 30.2537 33.9685 30.2537 33.0277 29.3129C32.6127 28.8979 32.5712 28.7734 32.5712 28.0263C32.5712 27.0441 32.8617 26.5737 33.7333 26.1863C34.3973 25.882 34.6464 25.8681 35.3658 26.0895Z" fill="#EF615A"/>
<path d="M7.25398 20.528C7.07414 20.7079 6.97729 20.9846 6.97729 21.3581C6.97729 21.7316 7.07414 22.0083 7.25398 22.1882C7.53067 22.4648 7.71052 22.4648 16.5646 22.4648H25.6123L25.9029 22.1467C26.3179 21.7039 26.3041 20.9431 25.889 20.5557L25.5708 20.2513H16.5508C7.71052 20.2513 7.53067 20.2513 7.25398 20.528Z" fill="#EF615A"/>
<path d="M0.613359 27.1686C0.433511 27.3485 0.33667 27.6252 0.33667 27.9987C0.33667 28.3722 0.433511 28.6489 0.613359 28.8288C0.890049 29.1055 1.0699 29.1055 12.511 29.1055C23.9521 29.1055 24.132 29.1055 24.4087 28.8288C24.5885 28.6489 24.6853 28.3722 24.6853 27.9987C24.6853 27.6252 24.5885 27.3485 24.4087 27.1686C24.132 26.892 23.9521 26.892 12.511 26.892C1.0699 26.892 0.890049 26.892 0.613359 27.1686Z" fill="#EF615A"/>
<path d="M7.25398 33.809C7.07414 33.9889 6.97729 34.2656 6.97729 34.6391C6.97729 35.0126 7.07414 35.2893 7.25398 35.4692C7.53067 35.7458 7.71052 35.7458 16.5646 35.7458H25.6123L25.9029 35.4277C26.3179 34.985 26.3041 34.2241 25.889 33.8367L25.5708 33.5323H16.5508C7.71052 33.5323 7.53067 33.5323 7.25398 33.809Z" fill="#EF615A"/>
<path d="M13.8944 40.4496C13.7145 40.6295 13.6177 40.9062 13.6177 41.2797C13.6177 41.6532 13.7145 41.9299 13.8944 42.1098C14.1572 42.3726 14.3509 42.3865 20.7148 42.3865C27.1755 42.3865 27.2723 42.3865 27.5352 42.096C27.881 41.7224 27.881 40.837 27.5352 40.4635C27.2723 40.173 27.1755 40.173 20.7148 40.173C14.3509 40.173 14.1572 40.1868 13.8944 40.4496Z" fill="#EF615A"/>
</svg>
